M48
; DRILL file {KiCad (5.1.8)-1} date 11/17/20 00:12:27
; FORMAT={-:-/ absolute / inch / decimal}
; #@! TF.CreationDate,2020-11-17T00:12:27-08:00
; #@! TF.GenerationSoftware,Kicad,Pcbnew,(5.1.8)-1
FMAT,2
INCH
T1C0.0118
T2C0.0157
T3C0.0394
T4C0.0430
T5C0.0472
T6C0.0591
T7C0.0669
T8C0.1260
%
G90
G05
T1
X4.1142Y-4.2913
X4.1142Y-4.3701
X4.1142Y-4.4488
X4.1142Y-5.1969
X4.1142Y-5.2756
X4.1142Y-5.3543
X4.1339Y-4.3307
X4.1339Y-4.4094
X4.1339Y-5.2362
X4.1339Y-5.315
X4.1535Y-4.2913
X4.1535Y-4.3701
X4.1535Y-4.4488
X4.1535Y-5.1969
X4.1535Y-5.2756
X4.1535Y-5.3543
X4.1732Y-4.3307
X4.1732Y-4.4094
X4.1732Y-5.2362
X4.1732Y-5.315
X4.1929Y-4.2913
X4.1929Y-4.3701
X4.1929Y-4.4488
X4.1929Y-5.1969
X4.1929Y-5.2756
X4.1929Y-5.3543
X4.2126Y-4.3307
X4.2126Y-4.4094
X4.2126Y-5.2362
X4.2126Y-5.315
X4.2323Y-4.2913
X4.2323Y-4.3701
X4.2323Y-4.4488
X4.2323Y-5.1969
X4.2323Y-5.2756
X4.2323Y-5.3543
X4.252Y-4.3307
X4.252Y-4.4094
X4.252Y-5.2362
X4.252Y-5.315
X4.2717Y-4.2913
X4.2717Y-4.3701
X4.2717Y-4.4488
X4.2717Y-5.1969
X4.2717Y-5.2756
X4.2717Y-5.3543
X4.2913Y-4.3307
X4.2913Y-4.4094
X4.2913Y-5.2362
X4.2913Y-5.315
X4.311Y-4.2913
X4.311Y-4.3701
X4.311Y-4.4488
X4.311Y-5.1969
X4.311Y-5.2756
X4.311Y-5.3543
X4.3307Y-4.3307
X4.3307Y-4.4094
X4.3307Y-5.2362
X4.3307Y-5.315
X4.3504Y-4.2913
X4.3504Y-4.3701
X4.3504Y-4.4488
X4.3504Y-5.1969
X4.3504Y-5.2756
X4.3504Y-5.3543
X4.3701Y-4.3307
X4.3701Y-4.4094
X4.3701Y-5.2362
X4.3701Y-5.315
X4.3898Y-4.2913
X4.3898Y-4.3701
X4.3898Y-4.4488
X4.3898Y-5.1969
X4.3898Y-5.2756
X4.3898Y-5.3543
X4.4094Y-4.3307
X4.4094Y-4.4094
X4.4094Y-5.2362
X4.4094Y-5.315
X4.4291Y-4.2913
X4.4291Y-4.3701
X4.4291Y-4.4488
X4.4291Y-5.1969
X4.4291Y-5.2756
X4.4291Y-5.3543
X4.4488Y-4.3307
X4.4488Y-4.4094
X4.4488Y-5.2362
X4.4488Y-5.315
X4.4685Y-4.2913
X4.4685Y-4.3701
X4.4685Y-4.4488
X4.4685Y-5.1969
X4.4685Y-5.2756
X4.4685Y-5.3543
X4.5866Y-4.0157
X4.5866Y-4.0551
X4.5866Y-4.0945
X4.5866Y-4.1339
X4.5866Y-4.1732
X4.5866Y-4.252
X4.5866Y-4.2913
X4.5866Y-4.3307
X4.5866Y-4.3701
X4.5866Y-4.4094
X4.5866Y-4.4882
X4.5866Y-4.5276
X4.5866Y-4.5669
X4.5866Y-4.6063
X4.5866Y-4.6457
X4.5866Y-4.7244
X4.5866Y-4.7638
X4.5866Y-4.8031
X4.5866Y-4.8425
X4.5866Y-4.8819
X4.626Y-4.0157
X4.626Y-4.0551
X4.626Y-4.0945
X4.626Y-4.1339
X4.626Y-4.1732
X4.626Y-4.252
X4.626Y-4.2913
X4.626Y-4.3307
X4.626Y-4.3701
X4.626Y-4.4094
X4.626Y-4.4882
X4.626Y-4.5276
X4.626Y-4.5669
X4.626Y-4.6063
X4.626Y-4.6457
X4.626Y-4.7244
X4.626Y-4.7638
X4.626Y-4.8031
X4.626Y-4.8425
X4.626Y-4.8819
X4.7835Y-4.0157
X4.7835Y-4.0551
X4.7835Y-4.0945
X4.7835Y-4.1339
X4.7835Y-4.1732
X4.7835Y-4.252
X4.7835Y-4.2913
X4.7835Y-4.3307
X4.7835Y-4.3701
X4.7835Y-4.4094
X4.7835Y-4.4882
X4.7835Y-4.5276
X4.7835Y-4.5669
X4.7835Y-4.6063
X4.7835Y-4.6457
X4.7835Y-4.7244
X4.7835Y-4.7638
X4.7835Y-4.8031
X4.7835Y-4.8425
X4.7835Y-4.8819
X4.8228Y-4.0157
X4.8228Y-4.0551
X4.8228Y-4.0945
X4.8228Y-4.1339
X4.8228Y-4.1732
X4.8228Y-4.252
X4.8228Y-4.2913
X4.8228Y-4.3307
X4.8228Y-4.3701
X4.8228Y-4.4094
X4.8228Y-4.4882
X4.8228Y-4.5276
X4.8228Y-4.5669
X4.8228Y-4.6063
X4.8228Y-4.6457
X4.8228Y-4.7244
X4.8228Y-4.7638
X4.8228Y-4.8031
X4.8228Y-4.8425
X4.8228Y-4.8819
X5.6496Y-4.0157
X5.6496Y-4.0945
X5.6496Y-4.3898
X5.6496Y-4.4685
X5.6496Y-4.9016
X5.6496Y-5.1772
X5.6496Y-5.4921
X5.6496Y-5.5709
X5.6693Y-4.0551
X5.6693Y-4.1339
X5.6693Y-4.4291
X5.6693Y-4.5079
X5.6693Y-4.9409
X5.6693Y-5.0197
X5.6693Y-5.1378
X5.6693Y-5.2165
X5.6693Y-5.5315
X5.6693Y-5.6102
X5.689Y-4.0157
X5.689Y-4.0945
X5.689Y-4.3898
X5.689Y-4.4685
X5.689Y-4.9016
X5.689Y-4.9803
X5.689Y-5.0591
X5.689Y-5.1772
X5.689Y-5.4921
X5.689Y-5.5709
X5.7087Y-4.0551
X5.7087Y-4.1339
X5.7087Y-4.2913
X5.7087Y-4.4291
X5.7087Y-4.5079
X5.7087Y-4.9409
X5.7087Y-5.0197
X5.7087Y-5.1378
X5.7087Y-5.2165
X5.7087Y-5.5315
X5.7087Y-5.6102
X5.7283Y-4.0157
X5.7283Y-4.0945
X5.7283Y-4.252
X5.7283Y-4.3898
X5.7283Y-4.4685
X5.7283Y-4.9016
X5.7283Y-4.9803
X5.7283Y-5.0591
X5.7283Y-5.1772
X5.7283Y-5.4921
X5.7283Y-5.5709
X5.748Y-4.2913
X5.748Y-4.9409
X5.748Y-5.0197
X5.7677Y-4.252
X5.7677Y-4.3307
X5.7677Y-4.9803
X5.7677Y-5.0591
X5.7874Y-4.2913
X5.7874Y-4.9409
X5.7874Y-5.0197
X5.8071Y-4.252
X5.8071Y-4.3307
X5.8071Y-4.9803
X5.8071Y-5.0591
X5.8268Y-4.2913
X5.8268Y-4.9409
X5.8268Y-5.0197
X5.8465Y-4.252
X5.8465Y-4.3307
X5.8465Y-4.5669
X5.8465Y-4.626
X5.8465Y-4.685
X5.8465Y-4.9803
X5.8465Y-5.0591
X5.8465Y-5.2756
X5.8465Y-5.315
X5.8465Y-5.3937
X5.8661Y-4.2913
X5.8661Y-4.5866
X5.8661Y-4.9409
X5.8661Y-5.0197
X5.8661Y-5.3543
X5.8858Y-4.252
X5.8858Y-4.3307
X5.8858Y-4.6457
X5.8858Y-4.9803
X5.8858Y-5.0591
X5.8858Y-5.315
X5.9055Y-4.5669
X5.9055Y-4.6063
X5.9055Y-4.685
X5.9055Y-5.2756
X5.9055Y-5.3543
X5.9055Y-5.3937
X6.1339Y-4.378
X6.1339Y-4.4213
X6.1339Y-4.4567
X6.1339Y-4.4961
X6.1339Y-4.5354
X6.1614Y-4.4055
X6.1614Y-4.437
X6.1614Y-4.4764
X6.1614Y-4.5157
X6.189Y-4.378
X6.189Y-4.4213
X6.189Y-4.4567
X6.189Y-4.4961
X6.189Y-4.5394
X6.2165Y-4.4055
X6.2165Y-4.437
X6.2165Y-4.4764
X6.2165Y-4.5157
X6.4488Y-4.378
X6.4488Y-4.4055
X6.4488Y-4.437
X6.4488Y-4.4764
X6.4488Y-4.5118
X6.4567Y-4.5394
X6.4724Y-4.4213
X6.4724Y-4.4567
X6.4724Y-4.4921
X6.4961Y-4.378
X6.4961Y-4.4055
X6.4961Y-4.437
X6.4961Y-4.4764
X6.4961Y-4.5118
X6.4961Y-4.5394
X6.5315Y-4.378
X6.5315Y-4.4173
X6.5315Y-4.4567
X6.5315Y-4.4961
X6.5315Y-4.5394
X7.5394Y-5.2362
X7.5591Y-5.1969
X7.5984Y-5.2362
X7.6181Y-4.2913
X7.6181Y-4.3701
X7.6181Y-4.4488
X7.6181Y-5.1969
X7.6181Y-5.1969
X7.6181Y-5.2756
X7.6181Y-5.3543
X7.6575Y-4.3307
X7.6575Y-4.4094
X7.6575Y-5.2362
X7.6575Y-5.2362
X7.6575Y-5.315
X7.6772Y-4.2913
X7.6772Y-4.3701
X7.6772Y-4.4488
X7.6772Y-5.1969
X7.6772Y-5.1969
X7.6772Y-5.2756
X7.6772Y-5.3543
X7.7165Y-4.3307
X7.7165Y-4.4094
X7.7165Y-5.2362
X7.7165Y-5.315
X7.7362Y-4.2913
X7.7362Y-4.3701
X7.7362Y-4.4488
X7.7362Y-5.1969
X7.7362Y-5.2756
X7.7362Y-5.3543
X7.7756Y-4.3307
X7.7756Y-4.4094
X7.7756Y-5.2362
X7.7756Y-5.315
X7.7953Y-4.2913
X7.7953Y-4.3701
X7.7953Y-4.4488
X7.7953Y-5.1969
X7.7953Y-5.2756
X7.7953Y-5.3543
X7.8346Y-4.3307
X7.8346Y-4.4094
X7.8346Y-5.2362
X7.8346Y-5.315
X7.8543Y-4.2913
X7.8543Y-4.3701
X7.8543Y-4.4488
X7.8543Y-5.1969
X7.8543Y-5.2756
X7.8543Y-5.3543
X7.8937Y-4.3307
X7.8937Y-4.4094
X7.8937Y-5.2362
X7.8937Y-5.315
X7.9134Y-4.2913
X7.9134Y-4.3701
X7.9134Y-4.4488
X7.9134Y-5.1969
X7.9134Y-5.2756
X7.9134Y-5.3543
X7.9528Y-4.3307
X7.9528Y-4.4094
X7.9528Y-5.2362
X7.9528Y-5.315
X7.9724Y-4.2913
X7.9724Y-4.3701
X7.9724Y-4.4488
X7.9724Y-5.1969
X7.9724Y-5.2756
X7.9724Y-5.3543
T2
X4.1339Y-4.626
X4.1339Y-4.7244
X4.1339Y-4.8228
X4.1339Y-5.0197
X4.1339Y-5.4134
X4.2323Y-4.626
X4.2323Y-4.7244
X4.2323Y-4.8228
X4.2323Y-5.0197
X4.2323Y-5.4134
X4.3307Y-4.5276
X4.3307Y-4.626
X4.3307Y-4.7244
X4.3307Y-4.8228
X4.3307Y-5.0197
X4.3307Y-5.1181
X4.3307Y-5.4134
X4.4291Y-4.0354
X4.4291Y-4.1339
X4.4291Y-4.2323
X4.4291Y-4.5276
X4.4291Y-4.626
X4.4291Y-4.7244
X4.4291Y-4.8228
X4.4291Y-5.0197
X4.4291Y-5.1181
X4.4291Y-5.4134
X4.4291Y-5.5118
X4.4291Y-5.6102
X4.5276Y-4.0354
X4.5276Y-4.1339
X4.5276Y-4.2323
X4.5276Y-4.3307
X4.5276Y-4.3307
X4.5276Y-4.4291
X4.5276Y-4.5276
X4.5276Y-4.626
X4.5276Y-4.7244
X4.5276Y-4.8228
X4.5276Y-5.0197
X4.5276Y-5.1181
X4.5276Y-5.2165
X4.5276Y-5.315
X4.5276Y-5.4134
X4.5276Y-5.5118
X4.5276Y-5.6102
X4.626Y-5.0197
X4.626Y-5.1181
X4.626Y-5.2165
X4.626Y-5.315
X4.626Y-5.4134
X4.626Y-5.5118
X4.626Y-5.5118
X4.626Y-5.6102
X4.7244Y-5.0197
X4.7244Y-5.1181
X4.7244Y-5.2165
X4.7244Y-5.315
X4.7244Y-5.4134
X4.7244Y-5.5118
X4.7244Y-5.6102
X4.8228Y-5.0197
X4.8228Y-5.1181
X4.8228Y-5.2165
X4.8228Y-5.315
X4.8228Y-5.4134
X4.8228Y-5.5118
X4.8228Y-5.6102
X4.9213Y-4.0354
X4.9213Y-4.1339
X4.9213Y-4.2323
X4.9213Y-4.3307
X4.9213Y-4.4291
X4.9213Y-4.5276
X4.9213Y-4.626
X4.9213Y-4.7244
X4.9213Y-4.8228
X4.9213Y-5.0197
X4.9213Y-5.1181
X4.9213Y-5.2165
X4.9213Y-5.315
X4.9213Y-5.4134
X4.9213Y-5.5118
X4.9213Y-5.6102
X5.0197Y-4.0354
X5.0197Y-4.1339
X5.0197Y-5.0197
X5.0197Y-5.5118
X5.0197Y-5.6102
X5.1181Y-4.1339
X5.1181Y-5.0197
X5.1181Y-5.5118
X5.1772Y-4.4685
X5.1772Y-4.5669
X5.2165Y-4.1339
X5.2165Y-5.0197
X5.2165Y-5.5118
X5.315Y-4.0354
X5.315Y-4.1339
X5.315Y-5.0197
X5.315Y-5.5118
X5.315Y-5.6102
X6.0039Y-4.0354
X6.0039Y-4.1339
X6.0039Y-4.2323
X6.0039Y-4.3307
X6.0039Y-4.4291
X6.0039Y-4.5276
X6.0039Y-4.626
X6.0039Y-5.0197
X6.0039Y-5.1181
X6.0039Y-5.2165
X6.0039Y-5.315
X6.0039Y-5.4134
X6.0039Y-5.5118
X6.0827Y-5.1339
X6.1024Y-4.1339
X6.1024Y-4.2323
X6.1024Y-4.3307
X6.1024Y-4.685
X6.1024Y-5.2165
X6.1024Y-5.315
X6.1024Y-5.4134
X6.1496Y-4.9291
X6.1614Y-4.8031
X6.1614Y-5.1457
X6.2008Y-4.0354
X6.2008Y-4.1339
X6.2008Y-4.2323
X6.2008Y-4.3307
X6.2008Y-4.626
X6.2008Y-4.7146
X6.2008Y-4.7638
X6.2008Y-5.315
X6.2008Y-5.4134
X6.2008Y-5.5118
X6.2008Y-5.6102
X6.252Y-5.2244
X6.2559Y-5.1654
X6.2559Y-5.2913
X6.2598Y-5.1142
X6.2697Y-4.5276
X6.2992Y-4.0551
X6.2992Y-4.9016
X6.2992Y-5.4134
X6.2992Y-5.5118
X6.3091Y-4.2618
X6.3386Y-5.0984
X6.3583Y-4.8524
X6.378Y-4.1437
X6.3976Y-5.1575
X6.3976Y-5.2165
X6.3976Y-5.315
X6.3976Y-5.4134
X6.4075Y-4.5276
X6.4075Y-5.5315
X6.4862Y-4.6654
X6.4862Y-4.7146
X6.4862Y-4.7638
X6.49Y-4.9545
X6.4961Y-4.0354
X6.4961Y-4.1339
X6.4961Y-4.1339
X6.4961Y-4.2323
X6.4961Y-4.3307
X6.4961Y-5.2165
X6.4961Y-5.315
X6.4961Y-5.5236
X6.4961Y-5.6102
X6.5059Y-4.8819
X6.5354Y-5.0197
X6.5945Y-4.0354
X6.5945Y-4.1339
X6.5945Y-4.2323
X6.5945Y-4.2323
X6.5945Y-4.3307
X6.5945Y-4.4291
X6.5945Y-4.5276
X6.5945Y-4.626
X6.5945Y-5.1181
X6.5945Y-5.2165
X6.5945Y-5.315
X6.5945Y-5.4134
X6.5945Y-5.5118
X6.5945Y-5.6102
X6.6929Y-4.0354
X6.6929Y-4.1339
X6.6929Y-4.2323
X6.6929Y-4.3307
X6.6929Y-4.4291
X6.6929Y-4.5276
X6.6929Y-4.626
X6.6929Y-5.0197
X6.6929Y-5.2165
X6.6929Y-5.315
X6.6929Y-5.4134
X6.6929Y-5.5118
X6.6929Y-5.6102
X6.7913Y-4.0354
X6.7913Y-4.1339
X6.7913Y-4.2323
X6.7913Y-4.3307
X6.7913Y-4.4291
X6.7913Y-4.5276
X6.7913Y-4.626
X6.7913Y-5.0197
X6.7913Y-5.1181
X6.7913Y-5.315
X6.7913Y-5.4134
X6.7913Y-5.5118
X6.7913Y-5.5118
X6.7913Y-5.6102
X6.7963Y-5.2116
X6.8898Y-4.0354
X6.8898Y-4.1339
X6.8898Y-4.2323
X6.8898Y-4.3307
X6.8898Y-4.4291
X6.8898Y-4.5276
X6.8898Y-4.626
X6.8898Y-5.2165
X6.8898Y-5.315
X6.8898Y-5.4134
X6.8898Y-5.5118
X6.8898Y-5.6102
X6.9882Y-4.0354
X6.9882Y-4.1339
X6.9882Y-4.2323
X6.9882Y-4.3307
X6.9882Y-4.4291
X6.9882Y-4.5276
X6.9882Y-4.626
X6.9882Y-5.2165
X6.9882Y-5.315
X6.9882Y-5.4134
X6.9882Y-5.5118
X6.9882Y-5.6102
X7.0866Y-4.0354
X7.0866Y-4.1339
X7.0866Y-4.2323
X7.0866Y-4.3307
X7.0866Y-4.4291
X7.0866Y-4.5276
X7.0866Y-4.626
X7.0866Y-5.2165
X7.0866Y-5.315
X7.0866Y-5.4134
X7.0866Y-5.5118
X7.0866Y-5.5118
X7.0866Y-5.6102
X7.185Y-4.0354
X7.185Y-4.1339
X7.185Y-4.2323
X7.185Y-4.3307
X7.185Y-4.4291
X7.185Y-4.5276
X7.185Y-4.626
X7.185Y-5.2165
X7.185Y-5.2165
X7.185Y-5.315
X7.185Y-5.4134
X7.185Y-5.5118
X7.185Y-5.5118
X7.185Y-5.6102
X7.2835Y-4.0354
X7.2835Y-4.1339
X7.2835Y-4.2323
X7.2835Y-4.3307
X7.2835Y-4.4291
X7.2835Y-4.5276
X7.2835Y-4.626
X7.2835Y-5.2165
X7.2835Y-5.315
X7.2835Y-5.4134
X7.2835Y-5.5118
X7.2835Y-5.5118
X7.2835Y-5.6102
X7.3819Y-4.0354
X7.3819Y-4.1339
X7.3819Y-4.2323
X7.3819Y-4.3307
X7.3819Y-4.4291
X7.3819Y-4.5276
X7.3819Y-4.626
X7.3819Y-5.2165
X7.3819Y-5.315
X7.3819Y-5.315
X7.3819Y-5.4134
X7.3819Y-5.5118
X7.3819Y-5.6102
X7.4803Y-4.0354
X7.4803Y-4.1339
X7.4803Y-4.2323
X7.4803Y-4.3307
X7.4803Y-4.4291
X7.4803Y-4.5276
X7.4803Y-4.626
X7.4803Y-5.4134
X7.4803Y-5.5118
X7.4803Y-5.6102
X7.5Y-5.3346
X7.5039Y-5.2549
X7.5787Y-4.5276
X7.5787Y-4.626
X7.5787Y-5.315
X7.5787Y-5.3937
X7.5787Y-5.6496
X7.6772Y-4.0354
X7.6772Y-4.1339
X7.6772Y-4.2323
X7.6772Y-4.626
X7.6772Y-5.4134
X7.6772Y-5.5118
X7.6772Y-5.6102
X7.7756Y-4.2323
X7.7756Y-4.626
X7.7756Y-4.7244
X7.7756Y-4.8228
X7.7756Y-5.0197
X7.7756Y-5.4134
X7.874Y-4.2323
X7.874Y-4.626
X7.874Y-4.7244
X7.874Y-4.8228
X7.874Y-5.0197
X7.874Y-5.0984
X7.874Y-5.4134
X7.9724Y-4.626
X7.9724Y-4.7244
X7.9724Y-4.8228
X7.9724Y-5.0197
X7.9724Y-5.0197
X7.9724Y-5.0984
X7.9724Y-5.4134
T3
X6.0709Y-4.0551
X5.1811Y-4.0551
X7.5787Y-5.5512
X6.4961Y-5.3819
X6.0551Y-4.7717
X6.0787Y-5.4961
X5.1732Y-5.5827
X7.5787Y-4.1535
T4
X7.4598Y-4.7571
X7.4598Y-4.8571
T5
X7.0835Y-4.7598
X7.2835Y-4.7598
X6.6535Y-4.8622
X6.8535Y-4.8622
X6.6543Y-4.7598
X6.8543Y-4.7598
X7.0827Y-4.8622
X7.2827Y-4.8622
T6
X5.1772Y-5.2756
X5.1772Y-4.8228
X5.1772Y-4.3701
T7
X5.0772Y-5.1756
X5.0772Y-5.3756
X5.2772Y-5.1756
X5.2772Y-5.3756
X5.0772Y-4.7228
X5.0772Y-4.9228
X5.2772Y-4.7228
X5.2772Y-4.9228
X5.0772Y-4.2701
X5.0772Y-4.4701
X5.2772Y-4.2701
X5.2772Y-4.4701
T8
X7.874Y-5.5709
X4.2126Y-4.0748
X7.8543Y-4.0748
X4.2126Y-5.5709
T0
M30
