%TF.GenerationSoftware,KiCad,Pcbnew,(5.1.8)-1*%
%TF.CreationDate,2020-11-17T00:12:26-08:00*%
%TF.ProjectId,WPT_RX,5750545f-5258-42e6-9b69-6361645f7063,rev?*%
%TF.SameCoordinates,Original*%
%TF.FileFunction,Legend,Bot*%
%TF.FilePolarity,Positive*%
%FSLAX46Y46*%
G04 Gerber Fmt 4.6, Leading zero omitted, Abs format (unit mm)*
G04 Created by KiCad (PCBNEW (5.1.8)-1) date 2020-11-17 00:12:26*
%MOMM*%
%LPD*%
G01*
G04 APERTURE LIST*
%ADD10C,0.120000*%
%ADD11C,0.125000*%
G04 APERTURE END LIST*
D10*
%TO.C,R9*%
X179920000Y-117790000D02*
X179920000Y-119735000D01*
X185000000Y-117790000D02*
X185000000Y-119750000D01*
X177210000Y-101680000D02*
X177210000Y-117790000D01*
X187710000Y-101680000D02*
X187710000Y-117790000D01*
X187710000Y-101680000D02*
X177210000Y-101680000D01*
X187710000Y-117790000D02*
X177210000Y-117790000D01*
%TO.C,R12*%
X169020000Y-117790000D02*
X169020000Y-119735000D01*
X174100000Y-117790000D02*
X174100000Y-119750000D01*
X166310000Y-101680000D02*
X166310000Y-117790000D01*
X176810000Y-101680000D02*
X176810000Y-117790000D01*
X176810000Y-101680000D02*
X166310000Y-101680000D01*
X176810000Y-117790000D02*
X166310000Y-117790000D01*
%TO.C,R13*%
X184980000Y-126610000D02*
X184980000Y-124665000D01*
X179900000Y-126610000D02*
X179900000Y-124650000D01*
X187690000Y-142720000D02*
X187690000Y-126610000D01*
X177190000Y-142720000D02*
X177190000Y-126610000D01*
X177190000Y-142720000D02*
X187690000Y-142720000D01*
X177190000Y-126610000D02*
X187690000Y-126610000D01*
%TO.C,R14*%
X174080000Y-126610000D02*
X174080000Y-124665000D01*
X169000000Y-126610000D02*
X169000000Y-124650000D01*
X176790000Y-142720000D02*
X176790000Y-126610000D01*
X166290000Y-142720000D02*
X166290000Y-126610000D01*
X166290000Y-142720000D02*
X176790000Y-142720000D01*
X166290000Y-126610000D02*
X176790000Y-126610000D01*
%TO.C,D1*%
X143190000Y-129110000D02*
X143190000Y-128700000D01*
X143190000Y-125300000D02*
X143190000Y-124890000D01*
X143190000Y-124890000D02*
X148810000Y-124890000D01*
X148810000Y-129110000D02*
X143190000Y-129110000D01*
X143190000Y-125300000D02*
X142400000Y-125300000D01*
X148810000Y-129110000D02*
X148810000Y-128850000D01*
X148810000Y-125150000D02*
X148810000Y-124890000D01*
%TO.C,D2*%
X148810000Y-133390000D02*
X148810000Y-133800000D01*
X148810000Y-137200000D02*
X148810000Y-137610000D01*
X148810000Y-137610000D02*
X143190000Y-137610000D01*
X143190000Y-133390000D02*
X148810000Y-133390000D01*
X148810000Y-137200000D02*
X149600000Y-137200000D01*
X143190000Y-133390000D02*
X143190000Y-133650000D01*
X143190000Y-137350000D02*
X143190000Y-137610000D01*
%TO.C,D3*%
X143190000Y-111110000D02*
X143190000Y-110700000D01*
X143190000Y-107300000D02*
X143190000Y-106890000D01*
X143190000Y-106890000D02*
X148810000Y-106890000D01*
X148810000Y-111110000D02*
X143190000Y-111110000D01*
X143190000Y-107300000D02*
X142400000Y-107300000D01*
X148810000Y-111110000D02*
X148810000Y-110850000D01*
X148810000Y-107150000D02*
X148810000Y-106890000D01*
%TO.C,D4*%
X148810000Y-115390000D02*
X148810000Y-115800000D01*
X148810000Y-119200000D02*
X148810000Y-119610000D01*
X148810000Y-119610000D02*
X143190000Y-119610000D01*
X143190000Y-115390000D02*
X148810000Y-115390000D01*
X148810000Y-119200000D02*
X149600000Y-119200000D01*
X143190000Y-115390000D02*
X143190000Y-115650000D01*
X143190000Y-119350000D02*
X143190000Y-119610000D01*
%TO.C,Q1*%
X195500000Y-132500000D02*
X195100000Y-132500000D01*
X195500000Y-125900000D02*
X195500000Y-132500000D01*
X189900000Y-126300000D02*
X189900000Y-131500000D01*
%TO.C,R9*%
D11*
X182543333Y-101326190D02*
X182710000Y-101088095D01*
X182829047Y-101326190D02*
X182829047Y-100826190D01*
X182638571Y-100826190D01*
X182590952Y-100850000D01*
X182567142Y-100873809D01*
X182543333Y-100921428D01*
X182543333Y-100992857D01*
X182567142Y-101040476D01*
X182590952Y-101064285D01*
X182638571Y-101088095D01*
X182829047Y-101088095D01*
X182305238Y-101326190D02*
X182210000Y-101326190D01*
X182162380Y-101302380D01*
X182138571Y-101278571D01*
X182090952Y-101207142D01*
X182067142Y-101111904D01*
X182067142Y-100921428D01*
X182090952Y-100873809D01*
X182114761Y-100850000D01*
X182162380Y-100826190D01*
X182257619Y-100826190D01*
X182305238Y-100850000D01*
X182329047Y-100873809D01*
X182352857Y-100921428D01*
X182352857Y-101040476D01*
X182329047Y-101088095D01*
X182305238Y-101111904D01*
X182257619Y-101135714D01*
X182162380Y-101135714D01*
X182114761Y-101111904D01*
X182090952Y-101088095D01*
X182067142Y-101040476D01*
%TO.C,R12*%
X171881428Y-101326190D02*
X172048095Y-101088095D01*
X172167142Y-101326190D02*
X172167142Y-100826190D01*
X171976666Y-100826190D01*
X171929047Y-100850000D01*
X171905238Y-100873809D01*
X171881428Y-100921428D01*
X171881428Y-100992857D01*
X171905238Y-101040476D01*
X171929047Y-101064285D01*
X171976666Y-101088095D01*
X172167142Y-101088095D01*
X171405238Y-101326190D02*
X171690952Y-101326190D01*
X171548095Y-101326190D02*
X171548095Y-100826190D01*
X171595714Y-100897619D01*
X171643333Y-100945238D01*
X171690952Y-100969047D01*
X171214761Y-100873809D02*
X171190952Y-100850000D01*
X171143333Y-100826190D01*
X171024285Y-100826190D01*
X170976666Y-100850000D01*
X170952857Y-100873809D01*
X170929047Y-100921428D01*
X170929047Y-100969047D01*
X170952857Y-101040476D01*
X171238571Y-101326190D01*
X170929047Y-101326190D01*
%TO.C,R13*%
X182761428Y-143946190D02*
X182928095Y-143708095D01*
X183047142Y-143946190D02*
X183047142Y-143446190D01*
X182856666Y-143446190D01*
X182809047Y-143470000D01*
X182785238Y-143493809D01*
X182761428Y-143541428D01*
X182761428Y-143612857D01*
X182785238Y-143660476D01*
X182809047Y-143684285D01*
X182856666Y-143708095D01*
X183047142Y-143708095D01*
X182285238Y-143946190D02*
X182570952Y-143946190D01*
X182428095Y-143946190D02*
X182428095Y-143446190D01*
X182475714Y-143517619D01*
X182523333Y-143565238D01*
X182570952Y-143589047D01*
X182118571Y-143446190D02*
X181809047Y-143446190D01*
X181975714Y-143636666D01*
X181904285Y-143636666D01*
X181856666Y-143660476D01*
X181832857Y-143684285D01*
X181809047Y-143731904D01*
X181809047Y-143850952D01*
X181832857Y-143898571D01*
X181856666Y-143922380D01*
X181904285Y-143946190D01*
X182047142Y-143946190D01*
X182094761Y-143922380D01*
X182118571Y-143898571D01*
%TO.C,R14*%
X171861428Y-143946190D02*
X172028095Y-143708095D01*
X172147142Y-143946190D02*
X172147142Y-143446190D01*
X171956666Y-143446190D01*
X171909047Y-143470000D01*
X171885238Y-143493809D01*
X171861428Y-143541428D01*
X171861428Y-143612857D01*
X171885238Y-143660476D01*
X171909047Y-143684285D01*
X171956666Y-143708095D01*
X172147142Y-143708095D01*
X171385238Y-143946190D02*
X171670952Y-143946190D01*
X171528095Y-143946190D02*
X171528095Y-143446190D01*
X171575714Y-143517619D01*
X171623333Y-143565238D01*
X171670952Y-143589047D01*
X170956666Y-143612857D02*
X170956666Y-143946190D01*
X171075714Y-143422380D02*
X171194761Y-143779523D01*
X170885238Y-143779523D01*
%TO.C,D1*%
X147769047Y-124426190D02*
X147769047Y-123926190D01*
X147650000Y-123926190D01*
X147578571Y-123950000D01*
X147530952Y-123997619D01*
X147507142Y-124045238D01*
X147483333Y-124140476D01*
X147483333Y-124211904D01*
X147507142Y-124307142D01*
X147530952Y-124354761D01*
X147578571Y-124402380D01*
X147650000Y-124426190D01*
X147769047Y-124426190D01*
X147007142Y-124426190D02*
X147292857Y-124426190D01*
X147150000Y-124426190D02*
X147150000Y-123926190D01*
X147197619Y-123997619D01*
X147245238Y-124045238D01*
X147292857Y-124069047D01*
%TO.C,D2*%
X147169047Y-132926190D02*
X147169047Y-132426190D01*
X147050000Y-132426190D01*
X146978571Y-132450000D01*
X146930952Y-132497619D01*
X146907142Y-132545238D01*
X146883333Y-132640476D01*
X146883333Y-132711904D01*
X146907142Y-132807142D01*
X146930952Y-132854761D01*
X146978571Y-132902380D01*
X147050000Y-132926190D01*
X147169047Y-132926190D01*
X146692857Y-132473809D02*
X146669047Y-132450000D01*
X146621428Y-132426190D01*
X146502380Y-132426190D01*
X146454761Y-132450000D01*
X146430952Y-132473809D01*
X146407142Y-132521428D01*
X146407142Y-132569047D01*
X146430952Y-132640476D01*
X146716666Y-132926190D01*
X146407142Y-132926190D01*
%TO.C,D3*%
X147569047Y-106426190D02*
X147569047Y-105926190D01*
X147450000Y-105926190D01*
X147378571Y-105950000D01*
X147330952Y-105997619D01*
X147307142Y-106045238D01*
X147283333Y-106140476D01*
X147283333Y-106211904D01*
X147307142Y-106307142D01*
X147330952Y-106354761D01*
X147378571Y-106402380D01*
X147450000Y-106426190D01*
X147569047Y-106426190D01*
X147116666Y-105926190D02*
X146807142Y-105926190D01*
X146973809Y-106116666D01*
X146902380Y-106116666D01*
X146854761Y-106140476D01*
X146830952Y-106164285D01*
X146807142Y-106211904D01*
X146807142Y-106330952D01*
X146830952Y-106378571D01*
X146854761Y-106402380D01*
X146902380Y-106426190D01*
X147045238Y-106426190D01*
X147092857Y-106402380D01*
X147116666Y-106378571D01*
%TO.C,D4*%
X147169047Y-120526190D02*
X147169047Y-120026190D01*
X147050000Y-120026190D01*
X146978571Y-120050000D01*
X146930952Y-120097619D01*
X146907142Y-120145238D01*
X146883333Y-120240476D01*
X146883333Y-120311904D01*
X146907142Y-120407142D01*
X146930952Y-120454761D01*
X146978571Y-120502380D01*
X147050000Y-120526190D01*
X147169047Y-120526190D01*
X146454761Y-120192857D02*
X146454761Y-120526190D01*
X146573809Y-120002380D02*
X146692857Y-120359523D01*
X146383333Y-120359523D01*
%TO.C,Q1*%
X196747619Y-129773809D02*
X196795238Y-129750000D01*
X196842857Y-129702380D01*
X196914285Y-129630952D01*
X196961904Y-129607142D01*
X197009523Y-129607142D01*
X196985714Y-129726190D02*
X197033333Y-129702380D01*
X197080952Y-129654761D01*
X197104761Y-129559523D01*
X197104761Y-129392857D01*
X197080952Y-129297619D01*
X197033333Y-129250000D01*
X196985714Y-129226190D01*
X196890476Y-129226190D01*
X196842857Y-129250000D01*
X196795238Y-129297619D01*
X196771428Y-129392857D01*
X196771428Y-129559523D01*
X196795238Y-129654761D01*
X196842857Y-129702380D01*
X196890476Y-129726190D01*
X196985714Y-129726190D01*
X196295238Y-129726190D02*
X196580952Y-129726190D01*
X196438095Y-129726190D02*
X196438095Y-129226190D01*
X196485714Y-129297619D01*
X196533333Y-129345238D01*
X196580952Y-129369047D01*
%TD*%
M02*
