%TF.GenerationSoftware,KiCad,Pcbnew,(5.1.8)-1*%
%TF.CreationDate,2020-11-17T00:45:18-08:00*%
%TF.ProjectId,WPT_TX,5750545f-5458-42e6-9b69-6361645f7063,rev?*%
%TF.SameCoordinates,Original*%
%TF.FileFunction,Soldermask,Top*%
%TF.FilePolarity,Negative*%
%FSLAX46Y46*%
G04 Gerber Fmt 4.6, Leading zero omitted, Abs format (unit mm)*
G04 Created by KiCad (PCBNEW (5.1.8)-1) date 2020-11-17 00:45:18*
%MOMM*%
%LPD*%
G01*
G04 APERTURE LIST*
%ADD10R,4.500000X4.290000*%
%ADD11R,0.700000X0.800000*%
%ADD12R,2.500000X2.500000*%
%ADD13R,1.800000X1.000000*%
%ADD14O,3.479800X1.841500*%
%ADD15R,1.000000X3.200000*%
%ADD16R,1.300000X1.100000*%
%ADD17R,0.800000X2.200000*%
%ADD18R,5.800000X6.400000*%
%ADD19R,5.600000X5.600000*%
%ADD20R,0.350000X0.650000*%
%ADD21R,2.400000X1.550000*%
%ADD22R,10.000000X5.000000*%
%ADD23C,2.250000*%
%ADD24C,2.050000*%
%ADD25R,1.000000X1.000000*%
%ADD26O,1.000000X1.000000*%
%ADD27C,5.600000*%
%ADD28C,2.000000*%
G04 APERTURE END LIST*
D10*
%TO.C,Q1*%
X170000000Y-112250000D03*
D11*
X171910000Y-114500000D03*
X170640000Y-114500000D03*
X169360000Y-114500000D03*
X168090000Y-114500000D03*
X168090000Y-109000000D03*
X169360000Y-109000000D03*
X170640000Y-109000000D03*
X171910000Y-109000000D03*
%TD*%
%TO.C,C37*%
G36*
G01*
X162000000Y-109900000D02*
X160000000Y-109900000D01*
G75*
G02*
X159750000Y-109650000I0J250000D01*
G01*
X159750000Y-105750000D01*
G75*
G02*
X160000000Y-105500000I250000J0D01*
G01*
X162000000Y-105500000D01*
G75*
G02*
X162250000Y-105750000I0J-250000D01*
G01*
X162250000Y-109650000D01*
G75*
G02*
X162000000Y-109900000I-250000J0D01*
G01*
G37*
G36*
G01*
X162000000Y-101500000D02*
X160000000Y-101500000D01*
G75*
G02*
X159750000Y-101250000I0J250000D01*
G01*
X159750000Y-97350000D01*
G75*
G02*
X160000000Y-97100000I250000J0D01*
G01*
X162000000Y-97100000D01*
G75*
G02*
X162250000Y-97350000I0J-250000D01*
G01*
X162250000Y-101250000D01*
G75*
G02*
X162000000Y-101500000I-250000J0D01*
G01*
G37*
%TD*%
%TO.C,U11*%
G36*
G01*
X122462500Y-130750000D02*
X122337500Y-130750000D01*
G75*
G02*
X122275000Y-130687500I0J62500D01*
G01*
X122275000Y-129987500D01*
G75*
G02*
X122337500Y-129925000I62500J0D01*
G01*
X122462500Y-129925000D01*
G75*
G02*
X122525000Y-129987500I0J-62500D01*
G01*
X122525000Y-130687500D01*
G75*
G02*
X122462500Y-130750000I-62500J0D01*
G01*
G37*
G36*
G01*
X122962500Y-130750000D02*
X122837500Y-130750000D01*
G75*
G02*
X122775000Y-130687500I0J62500D01*
G01*
X122775000Y-129987500D01*
G75*
G02*
X122837500Y-129925000I62500J0D01*
G01*
X122962500Y-129925000D01*
G75*
G02*
X123025000Y-129987500I0J-62500D01*
G01*
X123025000Y-130687500D01*
G75*
G02*
X122962500Y-130750000I-62500J0D01*
G01*
G37*
G36*
G01*
X123462500Y-130750000D02*
X123337500Y-130750000D01*
G75*
G02*
X123275000Y-130687500I0J62500D01*
G01*
X123275000Y-129987500D01*
G75*
G02*
X123337500Y-129925000I62500J0D01*
G01*
X123462500Y-129925000D01*
G75*
G02*
X123525000Y-129987500I0J-62500D01*
G01*
X123525000Y-130687500D01*
G75*
G02*
X123462500Y-130750000I-62500J0D01*
G01*
G37*
G36*
G01*
X123962500Y-130750000D02*
X123837500Y-130750000D01*
G75*
G02*
X123775000Y-130687500I0J62500D01*
G01*
X123775000Y-129987500D01*
G75*
G02*
X123837500Y-129925000I62500J0D01*
G01*
X123962500Y-129925000D01*
G75*
G02*
X124025000Y-129987500I0J-62500D01*
G01*
X124025000Y-130687500D01*
G75*
G02*
X123962500Y-130750000I-62500J0D01*
G01*
G37*
G36*
G01*
X124462500Y-130750000D02*
X124337500Y-130750000D01*
G75*
G02*
X124275000Y-130687500I0J62500D01*
G01*
X124275000Y-129987500D01*
G75*
G02*
X124337500Y-129925000I62500J0D01*
G01*
X124462500Y-129925000D01*
G75*
G02*
X124525000Y-129987500I0J-62500D01*
G01*
X124525000Y-130687500D01*
G75*
G02*
X124462500Y-130750000I-62500J0D01*
G01*
G37*
G36*
G01*
X125687500Y-129525000D02*
X124987500Y-129525000D01*
G75*
G02*
X124925000Y-129462500I0J62500D01*
G01*
X124925000Y-129337500D01*
G75*
G02*
X124987500Y-129275000I62500J0D01*
G01*
X125687500Y-129275000D01*
G75*
G02*
X125750000Y-129337500I0J-62500D01*
G01*
X125750000Y-129462500D01*
G75*
G02*
X125687500Y-129525000I-62500J0D01*
G01*
G37*
G36*
G01*
X125687500Y-129025000D02*
X124987500Y-129025000D01*
G75*
G02*
X124925000Y-128962500I0J62500D01*
G01*
X124925000Y-128837500D01*
G75*
G02*
X124987500Y-128775000I62500J0D01*
G01*
X125687500Y-128775000D01*
G75*
G02*
X125750000Y-128837500I0J-62500D01*
G01*
X125750000Y-128962500D01*
G75*
G02*
X125687500Y-129025000I-62500J0D01*
G01*
G37*
G36*
G01*
X125687500Y-128525000D02*
X124987500Y-128525000D01*
G75*
G02*
X124925000Y-128462500I0J62500D01*
G01*
X124925000Y-128337500D01*
G75*
G02*
X124987500Y-128275000I62500J0D01*
G01*
X125687500Y-128275000D01*
G75*
G02*
X125750000Y-128337500I0J-62500D01*
G01*
X125750000Y-128462500D01*
G75*
G02*
X125687500Y-128525000I-62500J0D01*
G01*
G37*
G36*
G01*
X125687500Y-128025000D02*
X124987500Y-128025000D01*
G75*
G02*
X124925000Y-127962500I0J62500D01*
G01*
X124925000Y-127837500D01*
G75*
G02*
X124987500Y-127775000I62500J0D01*
G01*
X125687500Y-127775000D01*
G75*
G02*
X125750000Y-127837500I0J-62500D01*
G01*
X125750000Y-127962500D01*
G75*
G02*
X125687500Y-128025000I-62500J0D01*
G01*
G37*
G36*
G01*
X125687500Y-127525000D02*
X124987500Y-127525000D01*
G75*
G02*
X124925000Y-127462500I0J62500D01*
G01*
X124925000Y-127337500D01*
G75*
G02*
X124987500Y-127275000I62500J0D01*
G01*
X125687500Y-127275000D01*
G75*
G02*
X125750000Y-127337500I0J-62500D01*
G01*
X125750000Y-127462500D01*
G75*
G02*
X125687500Y-127525000I-62500J0D01*
G01*
G37*
G36*
G01*
X124462500Y-126875000D02*
X124337500Y-126875000D01*
G75*
G02*
X124275000Y-126812500I0J62500D01*
G01*
X124275000Y-126112500D01*
G75*
G02*
X124337500Y-126050000I62500J0D01*
G01*
X124462500Y-126050000D01*
G75*
G02*
X124525000Y-126112500I0J-62500D01*
G01*
X124525000Y-126812500D01*
G75*
G02*
X124462500Y-126875000I-62500J0D01*
G01*
G37*
G36*
G01*
X123962500Y-126875000D02*
X123837500Y-126875000D01*
G75*
G02*
X123775000Y-126812500I0J62500D01*
G01*
X123775000Y-126112500D01*
G75*
G02*
X123837500Y-126050000I62500J0D01*
G01*
X123962500Y-126050000D01*
G75*
G02*
X124025000Y-126112500I0J-62500D01*
G01*
X124025000Y-126812500D01*
G75*
G02*
X123962500Y-126875000I-62500J0D01*
G01*
G37*
G36*
G01*
X123462500Y-126875000D02*
X123337500Y-126875000D01*
G75*
G02*
X123275000Y-126812500I0J62500D01*
G01*
X123275000Y-126112500D01*
G75*
G02*
X123337500Y-126050000I62500J0D01*
G01*
X123462500Y-126050000D01*
G75*
G02*
X123525000Y-126112500I0J-62500D01*
G01*
X123525000Y-126812500D01*
G75*
G02*
X123462500Y-126875000I-62500J0D01*
G01*
G37*
G36*
G01*
X122962500Y-126875000D02*
X122837500Y-126875000D01*
G75*
G02*
X122775000Y-126812500I0J62500D01*
G01*
X122775000Y-126112500D01*
G75*
G02*
X122837500Y-126050000I62500J0D01*
G01*
X122962500Y-126050000D01*
G75*
G02*
X123025000Y-126112500I0J-62500D01*
G01*
X123025000Y-126812500D01*
G75*
G02*
X122962500Y-126875000I-62500J0D01*
G01*
G37*
G36*
G01*
X122462500Y-126875000D02*
X122337500Y-126875000D01*
G75*
G02*
X122275000Y-126812500I0J62500D01*
G01*
X122275000Y-126112500D01*
G75*
G02*
X122337500Y-126050000I62500J0D01*
G01*
X122462500Y-126050000D01*
G75*
G02*
X122525000Y-126112500I0J-62500D01*
G01*
X122525000Y-126812500D01*
G75*
G02*
X122462500Y-126875000I-62500J0D01*
G01*
G37*
G36*
G01*
X121812500Y-127525000D02*
X121112500Y-127525000D01*
G75*
G02*
X121050000Y-127462500I0J62500D01*
G01*
X121050000Y-127337500D01*
G75*
G02*
X121112500Y-127275000I62500J0D01*
G01*
X121812500Y-127275000D01*
G75*
G02*
X121875000Y-127337500I0J-62500D01*
G01*
X121875000Y-127462500D01*
G75*
G02*
X121812500Y-127525000I-62500J0D01*
G01*
G37*
G36*
G01*
X121812500Y-128025000D02*
X121112500Y-128025000D01*
G75*
G02*
X121050000Y-127962500I0J62500D01*
G01*
X121050000Y-127837500D01*
G75*
G02*
X121112500Y-127775000I62500J0D01*
G01*
X121812500Y-127775000D01*
G75*
G02*
X121875000Y-127837500I0J-62500D01*
G01*
X121875000Y-127962500D01*
G75*
G02*
X121812500Y-128025000I-62500J0D01*
G01*
G37*
G36*
G01*
X121812500Y-128525000D02*
X121112500Y-128525000D01*
G75*
G02*
X121050000Y-128462500I0J62500D01*
G01*
X121050000Y-128337500D01*
G75*
G02*
X121112500Y-128275000I62500J0D01*
G01*
X121812500Y-128275000D01*
G75*
G02*
X121875000Y-128337500I0J-62500D01*
G01*
X121875000Y-128462500D01*
G75*
G02*
X121812500Y-128525000I-62500J0D01*
G01*
G37*
G36*
G01*
X121812500Y-129025000D02*
X121112500Y-129025000D01*
G75*
G02*
X121050000Y-128962500I0J62500D01*
G01*
X121050000Y-128837500D01*
G75*
G02*
X121112500Y-128775000I62500J0D01*
G01*
X121812500Y-128775000D01*
G75*
G02*
X121875000Y-128837500I0J-62500D01*
G01*
X121875000Y-128962500D01*
G75*
G02*
X121812500Y-129025000I-62500J0D01*
G01*
G37*
G36*
G01*
X121812500Y-129525000D02*
X121112500Y-129525000D01*
G75*
G02*
X121050000Y-129462500I0J62500D01*
G01*
X121050000Y-129337500D01*
G75*
G02*
X121112500Y-129275000I62500J0D01*
G01*
X121812500Y-129275000D01*
G75*
G02*
X121875000Y-129337500I0J-62500D01*
G01*
X121875000Y-129462500D01*
G75*
G02*
X121812500Y-129525000I-62500J0D01*
G01*
G37*
D12*
X123400000Y-128400000D03*
%TD*%
D13*
%TO.C,Y1*%
X141500000Y-127000000D03*
X141500000Y-124500000D03*
%TD*%
D14*
%TO.C,J7*%
X115620000Y-111250000D03*
X115620000Y-113790000D03*
X115620000Y-108710000D03*
%TD*%
D10*
%TO.C,Q2*%
X170000000Y-104750000D03*
D11*
X171910000Y-107000000D03*
X170640000Y-107000000D03*
X169360000Y-107000000D03*
X168090000Y-107000000D03*
X168090000Y-101500000D03*
X169360000Y-101500000D03*
X170640000Y-101500000D03*
X171910000Y-101500000D03*
%TD*%
D10*
%TO.C,Q3*%
X170000000Y-118750000D03*
D11*
X168090000Y-116500000D03*
X169360000Y-116500000D03*
X170640000Y-116500000D03*
X171910000Y-116500000D03*
X171910000Y-122000000D03*
X170640000Y-122000000D03*
X169360000Y-122000000D03*
X168090000Y-122000000D03*
%TD*%
D10*
%TO.C,Q4*%
X170000000Y-126250000D03*
D11*
X168090000Y-124000000D03*
X169360000Y-124000000D03*
X170640000Y-124000000D03*
X171910000Y-124000000D03*
X171910000Y-129500000D03*
X170640000Y-129500000D03*
X169360000Y-129500000D03*
X168090000Y-129500000D03*
%TD*%
D14*
%TO.C,J8*%
X115620000Y-122020000D03*
X115620000Y-119480000D03*
%TD*%
D15*
%TO.C,R8*%
X123100000Y-103000000D03*
X116900000Y-103000000D03*
%TD*%
D16*
%TO.C,Y2*%
X127250000Y-130550000D03*
X129550000Y-130550000D03*
X129550000Y-128650000D03*
X127250000Y-128650000D03*
%TD*%
%TO.C,U1*%
G36*
G01*
X124950000Y-112255000D02*
X124950000Y-112555000D01*
G75*
G02*
X124800000Y-112705000I-150000J0D01*
G01*
X123150000Y-112705000D01*
G75*
G02*
X123000000Y-112555000I0J150000D01*
G01*
X123000000Y-112255000D01*
G75*
G02*
X123150000Y-112105000I150000J0D01*
G01*
X124800000Y-112105000D01*
G75*
G02*
X124950000Y-112255000I0J-150000D01*
G01*
G37*
G36*
G01*
X124950000Y-110985000D02*
X124950000Y-111285000D01*
G75*
G02*
X124800000Y-111435000I-150000J0D01*
G01*
X123150000Y-111435000D01*
G75*
G02*
X123000000Y-111285000I0J150000D01*
G01*
X123000000Y-110985000D01*
G75*
G02*
X123150000Y-110835000I150000J0D01*
G01*
X124800000Y-110835000D01*
G75*
G02*
X124950000Y-110985000I0J-150000D01*
G01*
G37*
G36*
G01*
X124950000Y-109715000D02*
X124950000Y-110015000D01*
G75*
G02*
X124800000Y-110165000I-150000J0D01*
G01*
X123150000Y-110165000D01*
G75*
G02*
X123000000Y-110015000I0J150000D01*
G01*
X123000000Y-109715000D01*
G75*
G02*
X123150000Y-109565000I150000J0D01*
G01*
X124800000Y-109565000D01*
G75*
G02*
X124950000Y-109715000I0J-150000D01*
G01*
G37*
G36*
G01*
X124950000Y-108445000D02*
X124950000Y-108745000D01*
G75*
G02*
X124800000Y-108895000I-150000J0D01*
G01*
X123150000Y-108895000D01*
G75*
G02*
X123000000Y-108745000I0J150000D01*
G01*
X123000000Y-108445000D01*
G75*
G02*
X123150000Y-108295000I150000J0D01*
G01*
X124800000Y-108295000D01*
G75*
G02*
X124950000Y-108445000I0J-150000D01*
G01*
G37*
G36*
G01*
X120000000Y-108445000D02*
X120000000Y-108745000D01*
G75*
G02*
X119850000Y-108895000I-150000J0D01*
G01*
X118200000Y-108895000D01*
G75*
G02*
X118050000Y-108745000I0J150000D01*
G01*
X118050000Y-108445000D01*
G75*
G02*
X118200000Y-108295000I150000J0D01*
G01*
X119850000Y-108295000D01*
G75*
G02*
X120000000Y-108445000I0J-150000D01*
G01*
G37*
G36*
G01*
X120000000Y-109715000D02*
X120000000Y-110015000D01*
G75*
G02*
X119850000Y-110165000I-150000J0D01*
G01*
X118200000Y-110165000D01*
G75*
G02*
X118050000Y-110015000I0J150000D01*
G01*
X118050000Y-109715000D01*
G75*
G02*
X118200000Y-109565000I150000J0D01*
G01*
X119850000Y-109565000D01*
G75*
G02*
X120000000Y-109715000I0J-150000D01*
G01*
G37*
G36*
G01*
X120000000Y-110985000D02*
X120000000Y-111285000D01*
G75*
G02*
X119850000Y-111435000I-150000J0D01*
G01*
X118200000Y-111435000D01*
G75*
G02*
X118050000Y-111285000I0J150000D01*
G01*
X118050000Y-110985000D01*
G75*
G02*
X118200000Y-110835000I150000J0D01*
G01*
X119850000Y-110835000D01*
G75*
G02*
X120000000Y-110985000I0J-150000D01*
G01*
G37*
G36*
G01*
X120000000Y-112255000D02*
X120000000Y-112555000D01*
G75*
G02*
X119850000Y-112705000I-150000J0D01*
G01*
X118200000Y-112705000D01*
G75*
G02*
X118050000Y-112555000I0J150000D01*
G01*
X118050000Y-112255000D01*
G75*
G02*
X118200000Y-112105000I150000J0D01*
G01*
X119850000Y-112105000D01*
G75*
G02*
X120000000Y-112255000I0J-150000D01*
G01*
G37*
%TD*%
D17*
%TO.C,U7*%
X136220000Y-110200000D03*
X137360000Y-110200000D03*
X139640000Y-110200000D03*
X140780000Y-110200000D03*
D18*
X138500000Y-103900000D03*
%TD*%
%TO.C,U9*%
G36*
G01*
X139875000Y-124437500D02*
X139875000Y-124562500D01*
G75*
G02*
X139812500Y-124625000I-62500J0D01*
G01*
X139062500Y-124625000D01*
G75*
G02*
X139000000Y-124562500I0J62500D01*
G01*
X139000000Y-124437500D01*
G75*
G02*
X139062500Y-124375000I62500J0D01*
G01*
X139812500Y-124375000D01*
G75*
G02*
X139875000Y-124437500I0J-62500D01*
G01*
G37*
G36*
G01*
X139875000Y-123937500D02*
X139875000Y-124062500D01*
G75*
G02*
X139812500Y-124125000I-62500J0D01*
G01*
X139062500Y-124125000D01*
G75*
G02*
X139000000Y-124062500I0J62500D01*
G01*
X139000000Y-123937500D01*
G75*
G02*
X139062500Y-123875000I62500J0D01*
G01*
X139812500Y-123875000D01*
G75*
G02*
X139875000Y-123937500I0J-62500D01*
G01*
G37*
G36*
G01*
X139875000Y-123437500D02*
X139875000Y-123562500D01*
G75*
G02*
X139812500Y-123625000I-62500J0D01*
G01*
X139062500Y-123625000D01*
G75*
G02*
X139000000Y-123562500I0J62500D01*
G01*
X139000000Y-123437500D01*
G75*
G02*
X139062500Y-123375000I62500J0D01*
G01*
X139812500Y-123375000D01*
G75*
G02*
X139875000Y-123437500I0J-62500D01*
G01*
G37*
G36*
G01*
X139875000Y-122937500D02*
X139875000Y-123062500D01*
G75*
G02*
X139812500Y-123125000I-62500J0D01*
G01*
X139062500Y-123125000D01*
G75*
G02*
X139000000Y-123062500I0J62500D01*
G01*
X139000000Y-122937500D01*
G75*
G02*
X139062500Y-122875000I62500J0D01*
G01*
X139812500Y-122875000D01*
G75*
G02*
X139875000Y-122937500I0J-62500D01*
G01*
G37*
G36*
G01*
X139875000Y-122437500D02*
X139875000Y-122562500D01*
G75*
G02*
X139812500Y-122625000I-62500J0D01*
G01*
X139062500Y-122625000D01*
G75*
G02*
X139000000Y-122562500I0J62500D01*
G01*
X139000000Y-122437500D01*
G75*
G02*
X139062500Y-122375000I62500J0D01*
G01*
X139812500Y-122375000D01*
G75*
G02*
X139875000Y-122437500I0J-62500D01*
G01*
G37*
G36*
G01*
X139875000Y-121937500D02*
X139875000Y-122062500D01*
G75*
G02*
X139812500Y-122125000I-62500J0D01*
G01*
X139062500Y-122125000D01*
G75*
G02*
X139000000Y-122062500I0J62500D01*
G01*
X139000000Y-121937500D01*
G75*
G02*
X139062500Y-121875000I62500J0D01*
G01*
X139812500Y-121875000D01*
G75*
G02*
X139875000Y-121937500I0J-62500D01*
G01*
G37*
G36*
G01*
X139875000Y-121437500D02*
X139875000Y-121562500D01*
G75*
G02*
X139812500Y-121625000I-62500J0D01*
G01*
X139062500Y-121625000D01*
G75*
G02*
X139000000Y-121562500I0J62500D01*
G01*
X139000000Y-121437500D01*
G75*
G02*
X139062500Y-121375000I62500J0D01*
G01*
X139812500Y-121375000D01*
G75*
G02*
X139875000Y-121437500I0J-62500D01*
G01*
G37*
G36*
G01*
X139875000Y-120937500D02*
X139875000Y-121062500D01*
G75*
G02*
X139812500Y-121125000I-62500J0D01*
G01*
X139062500Y-121125000D01*
G75*
G02*
X139000000Y-121062500I0J62500D01*
G01*
X139000000Y-120937500D01*
G75*
G02*
X139062500Y-120875000I62500J0D01*
G01*
X139812500Y-120875000D01*
G75*
G02*
X139875000Y-120937500I0J-62500D01*
G01*
G37*
G36*
G01*
X139875000Y-120437500D02*
X139875000Y-120562500D01*
G75*
G02*
X139812500Y-120625000I-62500J0D01*
G01*
X139062500Y-120625000D01*
G75*
G02*
X139000000Y-120562500I0J62500D01*
G01*
X139000000Y-120437500D01*
G75*
G02*
X139062500Y-120375000I62500J0D01*
G01*
X139812500Y-120375000D01*
G75*
G02*
X139875000Y-120437500I0J-62500D01*
G01*
G37*
G36*
G01*
X139875000Y-119937500D02*
X139875000Y-120062500D01*
G75*
G02*
X139812500Y-120125000I-62500J0D01*
G01*
X139062500Y-120125000D01*
G75*
G02*
X139000000Y-120062500I0J62500D01*
G01*
X139000000Y-119937500D01*
G75*
G02*
X139062500Y-119875000I62500J0D01*
G01*
X139812500Y-119875000D01*
G75*
G02*
X139875000Y-119937500I0J-62500D01*
G01*
G37*
G36*
G01*
X139875000Y-119437500D02*
X139875000Y-119562500D01*
G75*
G02*
X139812500Y-119625000I-62500J0D01*
G01*
X139062500Y-119625000D01*
G75*
G02*
X139000000Y-119562500I0J62500D01*
G01*
X139000000Y-119437500D01*
G75*
G02*
X139062500Y-119375000I62500J0D01*
G01*
X139812500Y-119375000D01*
G75*
G02*
X139875000Y-119437500I0J-62500D01*
G01*
G37*
G36*
G01*
X139875000Y-118937500D02*
X139875000Y-119062500D01*
G75*
G02*
X139812500Y-119125000I-62500J0D01*
G01*
X139062500Y-119125000D01*
G75*
G02*
X139000000Y-119062500I0J62500D01*
G01*
X139000000Y-118937500D01*
G75*
G02*
X139062500Y-118875000I62500J0D01*
G01*
X139812500Y-118875000D01*
G75*
G02*
X139875000Y-118937500I0J-62500D01*
G01*
G37*
G36*
G01*
X138875000Y-117937500D02*
X138875000Y-118687500D01*
G75*
G02*
X138812500Y-118750000I-62500J0D01*
G01*
X138687500Y-118750000D01*
G75*
G02*
X138625000Y-118687500I0J62500D01*
G01*
X138625000Y-117937500D01*
G75*
G02*
X138687500Y-117875000I62500J0D01*
G01*
X138812500Y-117875000D01*
G75*
G02*
X138875000Y-117937500I0J-62500D01*
G01*
G37*
G36*
G01*
X138375000Y-117937500D02*
X138375000Y-118687500D01*
G75*
G02*
X138312500Y-118750000I-62500J0D01*
G01*
X138187500Y-118750000D01*
G75*
G02*
X138125000Y-118687500I0J62500D01*
G01*
X138125000Y-117937500D01*
G75*
G02*
X138187500Y-117875000I62500J0D01*
G01*
X138312500Y-117875000D01*
G75*
G02*
X138375000Y-117937500I0J-62500D01*
G01*
G37*
G36*
G01*
X137875000Y-117937500D02*
X137875000Y-118687500D01*
G75*
G02*
X137812500Y-118750000I-62500J0D01*
G01*
X137687500Y-118750000D01*
G75*
G02*
X137625000Y-118687500I0J62500D01*
G01*
X137625000Y-117937500D01*
G75*
G02*
X137687500Y-117875000I62500J0D01*
G01*
X137812500Y-117875000D01*
G75*
G02*
X137875000Y-117937500I0J-62500D01*
G01*
G37*
G36*
G01*
X137375000Y-117937500D02*
X137375000Y-118687500D01*
G75*
G02*
X137312500Y-118750000I-62500J0D01*
G01*
X137187500Y-118750000D01*
G75*
G02*
X137125000Y-118687500I0J62500D01*
G01*
X137125000Y-117937500D01*
G75*
G02*
X137187500Y-117875000I62500J0D01*
G01*
X137312500Y-117875000D01*
G75*
G02*
X137375000Y-117937500I0J-62500D01*
G01*
G37*
G36*
G01*
X136875000Y-117937500D02*
X136875000Y-118687500D01*
G75*
G02*
X136812500Y-118750000I-62500J0D01*
G01*
X136687500Y-118750000D01*
G75*
G02*
X136625000Y-118687500I0J62500D01*
G01*
X136625000Y-117937500D01*
G75*
G02*
X136687500Y-117875000I62500J0D01*
G01*
X136812500Y-117875000D01*
G75*
G02*
X136875000Y-117937500I0J-62500D01*
G01*
G37*
G36*
G01*
X136375000Y-117937500D02*
X136375000Y-118687500D01*
G75*
G02*
X136312500Y-118750000I-62500J0D01*
G01*
X136187500Y-118750000D01*
G75*
G02*
X136125000Y-118687500I0J62500D01*
G01*
X136125000Y-117937500D01*
G75*
G02*
X136187500Y-117875000I62500J0D01*
G01*
X136312500Y-117875000D01*
G75*
G02*
X136375000Y-117937500I0J-62500D01*
G01*
G37*
G36*
G01*
X135875000Y-117937500D02*
X135875000Y-118687500D01*
G75*
G02*
X135812500Y-118750000I-62500J0D01*
G01*
X135687500Y-118750000D01*
G75*
G02*
X135625000Y-118687500I0J62500D01*
G01*
X135625000Y-117937500D01*
G75*
G02*
X135687500Y-117875000I62500J0D01*
G01*
X135812500Y-117875000D01*
G75*
G02*
X135875000Y-117937500I0J-62500D01*
G01*
G37*
G36*
G01*
X135375000Y-117937500D02*
X135375000Y-118687500D01*
G75*
G02*
X135312500Y-118750000I-62500J0D01*
G01*
X135187500Y-118750000D01*
G75*
G02*
X135125000Y-118687500I0J62500D01*
G01*
X135125000Y-117937500D01*
G75*
G02*
X135187500Y-117875000I62500J0D01*
G01*
X135312500Y-117875000D01*
G75*
G02*
X135375000Y-117937500I0J-62500D01*
G01*
G37*
G36*
G01*
X134875000Y-117937500D02*
X134875000Y-118687500D01*
G75*
G02*
X134812500Y-118750000I-62500J0D01*
G01*
X134687500Y-118750000D01*
G75*
G02*
X134625000Y-118687500I0J62500D01*
G01*
X134625000Y-117937500D01*
G75*
G02*
X134687500Y-117875000I62500J0D01*
G01*
X134812500Y-117875000D01*
G75*
G02*
X134875000Y-117937500I0J-62500D01*
G01*
G37*
G36*
G01*
X134375000Y-117937500D02*
X134375000Y-118687500D01*
G75*
G02*
X134312500Y-118750000I-62500J0D01*
G01*
X134187500Y-118750000D01*
G75*
G02*
X134125000Y-118687500I0J62500D01*
G01*
X134125000Y-117937500D01*
G75*
G02*
X134187500Y-117875000I62500J0D01*
G01*
X134312500Y-117875000D01*
G75*
G02*
X134375000Y-117937500I0J-62500D01*
G01*
G37*
G36*
G01*
X133875000Y-117937500D02*
X133875000Y-118687500D01*
G75*
G02*
X133812500Y-118750000I-62500J0D01*
G01*
X133687500Y-118750000D01*
G75*
G02*
X133625000Y-118687500I0J62500D01*
G01*
X133625000Y-117937500D01*
G75*
G02*
X133687500Y-117875000I62500J0D01*
G01*
X133812500Y-117875000D01*
G75*
G02*
X133875000Y-117937500I0J-62500D01*
G01*
G37*
G36*
G01*
X133375000Y-117937500D02*
X133375000Y-118687500D01*
G75*
G02*
X133312500Y-118750000I-62500J0D01*
G01*
X133187500Y-118750000D01*
G75*
G02*
X133125000Y-118687500I0J62500D01*
G01*
X133125000Y-117937500D01*
G75*
G02*
X133187500Y-117875000I62500J0D01*
G01*
X133312500Y-117875000D01*
G75*
G02*
X133375000Y-117937500I0J-62500D01*
G01*
G37*
G36*
G01*
X133000000Y-118937500D02*
X133000000Y-119062500D01*
G75*
G02*
X132937500Y-119125000I-62500J0D01*
G01*
X132187500Y-119125000D01*
G75*
G02*
X132125000Y-119062500I0J62500D01*
G01*
X132125000Y-118937500D01*
G75*
G02*
X132187500Y-118875000I62500J0D01*
G01*
X132937500Y-118875000D01*
G75*
G02*
X133000000Y-118937500I0J-62500D01*
G01*
G37*
G36*
G01*
X133000000Y-119437500D02*
X133000000Y-119562500D01*
G75*
G02*
X132937500Y-119625000I-62500J0D01*
G01*
X132187500Y-119625000D01*
G75*
G02*
X132125000Y-119562500I0J62500D01*
G01*
X132125000Y-119437500D01*
G75*
G02*
X132187500Y-119375000I62500J0D01*
G01*
X132937500Y-119375000D01*
G75*
G02*
X133000000Y-119437500I0J-62500D01*
G01*
G37*
G36*
G01*
X133000000Y-119937500D02*
X133000000Y-120062500D01*
G75*
G02*
X132937500Y-120125000I-62500J0D01*
G01*
X132187500Y-120125000D01*
G75*
G02*
X132125000Y-120062500I0J62500D01*
G01*
X132125000Y-119937500D01*
G75*
G02*
X132187500Y-119875000I62500J0D01*
G01*
X132937500Y-119875000D01*
G75*
G02*
X133000000Y-119937500I0J-62500D01*
G01*
G37*
G36*
G01*
X133000000Y-120437500D02*
X133000000Y-120562500D01*
G75*
G02*
X132937500Y-120625000I-62500J0D01*
G01*
X132187500Y-120625000D01*
G75*
G02*
X132125000Y-120562500I0J62500D01*
G01*
X132125000Y-120437500D01*
G75*
G02*
X132187500Y-120375000I62500J0D01*
G01*
X132937500Y-120375000D01*
G75*
G02*
X133000000Y-120437500I0J-62500D01*
G01*
G37*
G36*
G01*
X133000000Y-120937500D02*
X133000000Y-121062500D01*
G75*
G02*
X132937500Y-121125000I-62500J0D01*
G01*
X132187500Y-121125000D01*
G75*
G02*
X132125000Y-121062500I0J62500D01*
G01*
X132125000Y-120937500D01*
G75*
G02*
X132187500Y-120875000I62500J0D01*
G01*
X132937500Y-120875000D01*
G75*
G02*
X133000000Y-120937500I0J-62500D01*
G01*
G37*
G36*
G01*
X133000000Y-121437500D02*
X133000000Y-121562500D01*
G75*
G02*
X132937500Y-121625000I-62500J0D01*
G01*
X132187500Y-121625000D01*
G75*
G02*
X132125000Y-121562500I0J62500D01*
G01*
X132125000Y-121437500D01*
G75*
G02*
X132187500Y-121375000I62500J0D01*
G01*
X132937500Y-121375000D01*
G75*
G02*
X133000000Y-121437500I0J-62500D01*
G01*
G37*
G36*
G01*
X133000000Y-121937500D02*
X133000000Y-122062500D01*
G75*
G02*
X132937500Y-122125000I-62500J0D01*
G01*
X132187500Y-122125000D01*
G75*
G02*
X132125000Y-122062500I0J62500D01*
G01*
X132125000Y-121937500D01*
G75*
G02*
X132187500Y-121875000I62500J0D01*
G01*
X132937500Y-121875000D01*
G75*
G02*
X133000000Y-121937500I0J-62500D01*
G01*
G37*
G36*
G01*
X133000000Y-122437500D02*
X133000000Y-122562500D01*
G75*
G02*
X132937500Y-122625000I-62500J0D01*
G01*
X132187500Y-122625000D01*
G75*
G02*
X132125000Y-122562500I0J62500D01*
G01*
X132125000Y-122437500D01*
G75*
G02*
X132187500Y-122375000I62500J0D01*
G01*
X132937500Y-122375000D01*
G75*
G02*
X133000000Y-122437500I0J-62500D01*
G01*
G37*
G36*
G01*
X133000000Y-122937500D02*
X133000000Y-123062500D01*
G75*
G02*
X132937500Y-123125000I-62500J0D01*
G01*
X132187500Y-123125000D01*
G75*
G02*
X132125000Y-123062500I0J62500D01*
G01*
X132125000Y-122937500D01*
G75*
G02*
X132187500Y-122875000I62500J0D01*
G01*
X132937500Y-122875000D01*
G75*
G02*
X133000000Y-122937500I0J-62500D01*
G01*
G37*
G36*
G01*
X133000000Y-123437500D02*
X133000000Y-123562500D01*
G75*
G02*
X132937500Y-123625000I-62500J0D01*
G01*
X132187500Y-123625000D01*
G75*
G02*
X132125000Y-123562500I0J62500D01*
G01*
X132125000Y-123437500D01*
G75*
G02*
X132187500Y-123375000I62500J0D01*
G01*
X132937500Y-123375000D01*
G75*
G02*
X133000000Y-123437500I0J-62500D01*
G01*
G37*
G36*
G01*
X133000000Y-123937500D02*
X133000000Y-124062500D01*
G75*
G02*
X132937500Y-124125000I-62500J0D01*
G01*
X132187500Y-124125000D01*
G75*
G02*
X132125000Y-124062500I0J62500D01*
G01*
X132125000Y-123937500D01*
G75*
G02*
X132187500Y-123875000I62500J0D01*
G01*
X132937500Y-123875000D01*
G75*
G02*
X133000000Y-123937500I0J-62500D01*
G01*
G37*
G36*
G01*
X133000000Y-124437500D02*
X133000000Y-124562500D01*
G75*
G02*
X132937500Y-124625000I-62500J0D01*
G01*
X132187500Y-124625000D01*
G75*
G02*
X132125000Y-124562500I0J62500D01*
G01*
X132125000Y-124437500D01*
G75*
G02*
X132187500Y-124375000I62500J0D01*
G01*
X132937500Y-124375000D01*
G75*
G02*
X133000000Y-124437500I0J-62500D01*
G01*
G37*
G36*
G01*
X133375000Y-124812500D02*
X133375000Y-125562500D01*
G75*
G02*
X133312500Y-125625000I-62500J0D01*
G01*
X133187500Y-125625000D01*
G75*
G02*
X133125000Y-125562500I0J62500D01*
G01*
X133125000Y-124812500D01*
G75*
G02*
X133187500Y-124750000I62500J0D01*
G01*
X133312500Y-124750000D01*
G75*
G02*
X133375000Y-124812500I0J-62500D01*
G01*
G37*
G36*
G01*
X133875000Y-124812500D02*
X133875000Y-125562500D01*
G75*
G02*
X133812500Y-125625000I-62500J0D01*
G01*
X133687500Y-125625000D01*
G75*
G02*
X133625000Y-125562500I0J62500D01*
G01*
X133625000Y-124812500D01*
G75*
G02*
X133687500Y-124750000I62500J0D01*
G01*
X133812500Y-124750000D01*
G75*
G02*
X133875000Y-124812500I0J-62500D01*
G01*
G37*
G36*
G01*
X134375000Y-124812500D02*
X134375000Y-125562500D01*
G75*
G02*
X134312500Y-125625000I-62500J0D01*
G01*
X134187500Y-125625000D01*
G75*
G02*
X134125000Y-125562500I0J62500D01*
G01*
X134125000Y-124812500D01*
G75*
G02*
X134187500Y-124750000I62500J0D01*
G01*
X134312500Y-124750000D01*
G75*
G02*
X134375000Y-124812500I0J-62500D01*
G01*
G37*
G36*
G01*
X134875000Y-124812500D02*
X134875000Y-125562500D01*
G75*
G02*
X134812500Y-125625000I-62500J0D01*
G01*
X134687500Y-125625000D01*
G75*
G02*
X134625000Y-125562500I0J62500D01*
G01*
X134625000Y-124812500D01*
G75*
G02*
X134687500Y-124750000I62500J0D01*
G01*
X134812500Y-124750000D01*
G75*
G02*
X134875000Y-124812500I0J-62500D01*
G01*
G37*
G36*
G01*
X135375000Y-124812500D02*
X135375000Y-125562500D01*
G75*
G02*
X135312500Y-125625000I-62500J0D01*
G01*
X135187500Y-125625000D01*
G75*
G02*
X135125000Y-125562500I0J62500D01*
G01*
X135125000Y-124812500D01*
G75*
G02*
X135187500Y-124750000I62500J0D01*
G01*
X135312500Y-124750000D01*
G75*
G02*
X135375000Y-124812500I0J-62500D01*
G01*
G37*
G36*
G01*
X135875000Y-124812500D02*
X135875000Y-125562500D01*
G75*
G02*
X135812500Y-125625000I-62500J0D01*
G01*
X135687500Y-125625000D01*
G75*
G02*
X135625000Y-125562500I0J62500D01*
G01*
X135625000Y-124812500D01*
G75*
G02*
X135687500Y-124750000I62500J0D01*
G01*
X135812500Y-124750000D01*
G75*
G02*
X135875000Y-124812500I0J-62500D01*
G01*
G37*
G36*
G01*
X136375000Y-124812500D02*
X136375000Y-125562500D01*
G75*
G02*
X136312500Y-125625000I-62500J0D01*
G01*
X136187500Y-125625000D01*
G75*
G02*
X136125000Y-125562500I0J62500D01*
G01*
X136125000Y-124812500D01*
G75*
G02*
X136187500Y-124750000I62500J0D01*
G01*
X136312500Y-124750000D01*
G75*
G02*
X136375000Y-124812500I0J-62500D01*
G01*
G37*
G36*
G01*
X136875000Y-124812500D02*
X136875000Y-125562500D01*
G75*
G02*
X136812500Y-125625000I-62500J0D01*
G01*
X136687500Y-125625000D01*
G75*
G02*
X136625000Y-125562500I0J62500D01*
G01*
X136625000Y-124812500D01*
G75*
G02*
X136687500Y-124750000I62500J0D01*
G01*
X136812500Y-124750000D01*
G75*
G02*
X136875000Y-124812500I0J-62500D01*
G01*
G37*
G36*
G01*
X137375000Y-124812500D02*
X137375000Y-125562500D01*
G75*
G02*
X137312500Y-125625000I-62500J0D01*
G01*
X137187500Y-125625000D01*
G75*
G02*
X137125000Y-125562500I0J62500D01*
G01*
X137125000Y-124812500D01*
G75*
G02*
X137187500Y-124750000I62500J0D01*
G01*
X137312500Y-124750000D01*
G75*
G02*
X137375000Y-124812500I0J-62500D01*
G01*
G37*
G36*
G01*
X137875000Y-124812500D02*
X137875000Y-125562500D01*
G75*
G02*
X137812500Y-125625000I-62500J0D01*
G01*
X137687500Y-125625000D01*
G75*
G02*
X137625000Y-125562500I0J62500D01*
G01*
X137625000Y-124812500D01*
G75*
G02*
X137687500Y-124750000I62500J0D01*
G01*
X137812500Y-124750000D01*
G75*
G02*
X137875000Y-124812500I0J-62500D01*
G01*
G37*
G36*
G01*
X138375000Y-124812500D02*
X138375000Y-125562500D01*
G75*
G02*
X138312500Y-125625000I-62500J0D01*
G01*
X138187500Y-125625000D01*
G75*
G02*
X138125000Y-125562500I0J62500D01*
G01*
X138125000Y-124812500D01*
G75*
G02*
X138187500Y-124750000I62500J0D01*
G01*
X138312500Y-124750000D01*
G75*
G02*
X138375000Y-124812500I0J-62500D01*
G01*
G37*
G36*
G01*
X138875000Y-124812500D02*
X138875000Y-125562500D01*
G75*
G02*
X138812500Y-125625000I-62500J0D01*
G01*
X138687500Y-125625000D01*
G75*
G02*
X138625000Y-125562500I0J62500D01*
G01*
X138625000Y-124812500D01*
G75*
G02*
X138687500Y-124750000I62500J0D01*
G01*
X138812500Y-124750000D01*
G75*
G02*
X138875000Y-124812500I0J-62500D01*
G01*
G37*
D19*
X136000000Y-121750000D03*
%TD*%
D20*
%TO.C,U12*%
X116425000Y-126950000D03*
X117075000Y-126950000D03*
X117725000Y-126950000D03*
X118375000Y-126950000D03*
X118375000Y-123850000D03*
X117725000Y-123850000D03*
X117075000Y-123850000D03*
X116425000Y-123850000D03*
D21*
X117400000Y-125400000D03*
%TD*%
%TO.C,C10*%
G36*
G01*
X121025000Y-105750000D02*
X121025000Y-106250000D01*
G75*
G02*
X120800000Y-106475000I-225000J0D01*
G01*
X120350000Y-106475000D01*
G75*
G02*
X120125000Y-106250000I0J225000D01*
G01*
X120125000Y-105750000D01*
G75*
G02*
X120350000Y-105525000I225000J0D01*
G01*
X120800000Y-105525000D01*
G75*
G02*
X121025000Y-105750000I0J-225000D01*
G01*
G37*
G36*
G01*
X119475000Y-105750000D02*
X119475000Y-106250000D01*
G75*
G02*
X119250000Y-106475000I-225000J0D01*
G01*
X118800000Y-106475000D01*
G75*
G02*
X118575000Y-106250000I0J225000D01*
G01*
X118575000Y-105750000D01*
G75*
G02*
X118800000Y-105525000I225000J0D01*
G01*
X119250000Y-105525000D01*
G75*
G02*
X119475000Y-105750000I0J-225000D01*
G01*
G37*
%TD*%
%TO.C,D1*%
G36*
G01*
X111456250Y-96112500D02*
X110543750Y-96112500D01*
G75*
G02*
X110300000Y-95868750I0J243750D01*
G01*
X110300000Y-95381250D01*
G75*
G02*
X110543750Y-95137500I243750J0D01*
G01*
X111456250Y-95137500D01*
G75*
G02*
X111700000Y-95381250I0J-243750D01*
G01*
X111700000Y-95868750D01*
G75*
G02*
X111456250Y-96112500I-243750J0D01*
G01*
G37*
G36*
G01*
X111456250Y-97987500D02*
X110543750Y-97987500D01*
G75*
G02*
X110300000Y-97743750I0J243750D01*
G01*
X110300000Y-97256250D01*
G75*
G02*
X110543750Y-97012500I243750J0D01*
G01*
X111456250Y-97012500D01*
G75*
G02*
X111700000Y-97256250I0J-243750D01*
G01*
X111700000Y-97743750D01*
G75*
G02*
X111456250Y-97987500I-243750J0D01*
G01*
G37*
%TD*%
%TO.C,D2*%
G36*
G01*
X115356250Y-97925000D02*
X114443750Y-97925000D01*
G75*
G02*
X114200000Y-97681250I0J243750D01*
G01*
X114200000Y-97193750D01*
G75*
G02*
X114443750Y-96950000I243750J0D01*
G01*
X115356250Y-96950000D01*
G75*
G02*
X115600000Y-97193750I0J-243750D01*
G01*
X115600000Y-97681250D01*
G75*
G02*
X115356250Y-97925000I-243750J0D01*
G01*
G37*
G36*
G01*
X115356250Y-96050000D02*
X114443750Y-96050000D01*
G75*
G02*
X114200000Y-95806250I0J243750D01*
G01*
X114200000Y-95318750D01*
G75*
G02*
X114443750Y-95075000I243750J0D01*
G01*
X115356250Y-95075000D01*
G75*
G02*
X115600000Y-95318750I0J-243750D01*
G01*
X115600000Y-95806250D01*
G75*
G02*
X115356250Y-96050000I-243750J0D01*
G01*
G37*
%TD*%
%TO.C,D3*%
G36*
G01*
X119256250Y-95987500D02*
X118343750Y-95987500D01*
G75*
G02*
X118100000Y-95743750I0J243750D01*
G01*
X118100000Y-95256250D01*
G75*
G02*
X118343750Y-95012500I243750J0D01*
G01*
X119256250Y-95012500D01*
G75*
G02*
X119500000Y-95256250I0J-243750D01*
G01*
X119500000Y-95743750D01*
G75*
G02*
X119256250Y-95987500I-243750J0D01*
G01*
G37*
G36*
G01*
X119256250Y-97862500D02*
X118343750Y-97862500D01*
G75*
G02*
X118100000Y-97618750I0J243750D01*
G01*
X118100000Y-97131250D01*
G75*
G02*
X118343750Y-96887500I243750J0D01*
G01*
X119256250Y-96887500D01*
G75*
G02*
X119500000Y-97131250I0J-243750D01*
G01*
X119500000Y-97618750D01*
G75*
G02*
X119256250Y-97862500I-243750J0D01*
G01*
G37*
%TD*%
%TO.C,D4*%
G36*
G01*
X123156250Y-97862500D02*
X122243750Y-97862500D01*
G75*
G02*
X122000000Y-97618750I0J243750D01*
G01*
X122000000Y-97131250D01*
G75*
G02*
X122243750Y-96887500I243750J0D01*
G01*
X123156250Y-96887500D01*
G75*
G02*
X123400000Y-97131250I0J-243750D01*
G01*
X123400000Y-97618750D01*
G75*
G02*
X123156250Y-97862500I-243750J0D01*
G01*
G37*
G36*
G01*
X123156250Y-95987500D02*
X122243750Y-95987500D01*
G75*
G02*
X122000000Y-95743750I0J243750D01*
G01*
X122000000Y-95256250D01*
G75*
G02*
X122243750Y-95012500I243750J0D01*
G01*
X123156250Y-95012500D01*
G75*
G02*
X123400000Y-95256250I0J-243750D01*
G01*
X123400000Y-95743750D01*
G75*
G02*
X123156250Y-95987500I-243750J0D01*
G01*
G37*
%TD*%
%TO.C,D5*%
G36*
G01*
X111456250Y-134050000D02*
X110543750Y-134050000D01*
G75*
G02*
X110300000Y-133806250I0J243750D01*
G01*
X110300000Y-133318750D01*
G75*
G02*
X110543750Y-133075000I243750J0D01*
G01*
X111456250Y-133075000D01*
G75*
G02*
X111700000Y-133318750I0J-243750D01*
G01*
X111700000Y-133806250D01*
G75*
G02*
X111456250Y-134050000I-243750J0D01*
G01*
G37*
G36*
G01*
X111456250Y-135925000D02*
X110543750Y-135925000D01*
G75*
G02*
X110300000Y-135681250I0J243750D01*
G01*
X110300000Y-135193750D01*
G75*
G02*
X110543750Y-134950000I243750J0D01*
G01*
X111456250Y-134950000D01*
G75*
G02*
X111700000Y-135193750I0J-243750D01*
G01*
X111700000Y-135681250D01*
G75*
G02*
X111456250Y-135925000I-243750J0D01*
G01*
G37*
%TD*%
%TO.C,D6*%
G36*
G01*
X120156250Y-135925000D02*
X119243750Y-135925000D01*
G75*
G02*
X119000000Y-135681250I0J243750D01*
G01*
X119000000Y-135193750D01*
G75*
G02*
X119243750Y-134950000I243750J0D01*
G01*
X120156250Y-134950000D01*
G75*
G02*
X120400000Y-135193750I0J-243750D01*
G01*
X120400000Y-135681250D01*
G75*
G02*
X120156250Y-135925000I-243750J0D01*
G01*
G37*
G36*
G01*
X120156250Y-134050000D02*
X119243750Y-134050000D01*
G75*
G02*
X119000000Y-133806250I0J243750D01*
G01*
X119000000Y-133318750D01*
G75*
G02*
X119243750Y-133075000I243750J0D01*
G01*
X120156250Y-133075000D01*
G75*
G02*
X120400000Y-133318750I0J-243750D01*
G01*
X120400000Y-133806250D01*
G75*
G02*
X120156250Y-134050000I-243750J0D01*
G01*
G37*
%TD*%
%TO.C,D9*%
G36*
G01*
X115656250Y-135925000D02*
X114743750Y-135925000D01*
G75*
G02*
X114500000Y-135681250I0J243750D01*
G01*
X114500000Y-135193750D01*
G75*
G02*
X114743750Y-134950000I243750J0D01*
G01*
X115656250Y-134950000D01*
G75*
G02*
X115900000Y-135193750I0J-243750D01*
G01*
X115900000Y-135681250D01*
G75*
G02*
X115656250Y-135925000I-243750J0D01*
G01*
G37*
G36*
G01*
X115656250Y-134050000D02*
X114743750Y-134050000D01*
G75*
G02*
X114500000Y-133806250I0J243750D01*
G01*
X114500000Y-133318750D01*
G75*
G02*
X114743750Y-133075000I243750J0D01*
G01*
X115656250Y-133075000D01*
G75*
G02*
X115900000Y-133318750I0J-243750D01*
G01*
X115900000Y-133806250D01*
G75*
G02*
X115656250Y-134050000I-243750J0D01*
G01*
G37*
%TD*%
%TO.C,R4*%
G36*
G01*
X108725000Y-95450000D02*
X109275000Y-95450000D01*
G75*
G02*
X109475000Y-95650000I0J-200000D01*
G01*
X109475000Y-96050000D01*
G75*
G02*
X109275000Y-96250000I-200000J0D01*
G01*
X108725000Y-96250000D01*
G75*
G02*
X108525000Y-96050000I0J200000D01*
G01*
X108525000Y-95650000D01*
G75*
G02*
X108725000Y-95450000I200000J0D01*
G01*
G37*
G36*
G01*
X108725000Y-97100000D02*
X109275000Y-97100000D01*
G75*
G02*
X109475000Y-97300000I0J-200000D01*
G01*
X109475000Y-97700000D01*
G75*
G02*
X109275000Y-97900000I-200000J0D01*
G01*
X108725000Y-97900000D01*
G75*
G02*
X108525000Y-97700000I0J200000D01*
G01*
X108525000Y-97300000D01*
G75*
G02*
X108725000Y-97100000I200000J0D01*
G01*
G37*
%TD*%
%TO.C,R6*%
G36*
G01*
X112625000Y-95450000D02*
X113175000Y-95450000D01*
G75*
G02*
X113375000Y-95650000I0J-200000D01*
G01*
X113375000Y-96050000D01*
G75*
G02*
X113175000Y-96250000I-200000J0D01*
G01*
X112625000Y-96250000D01*
G75*
G02*
X112425000Y-96050000I0J200000D01*
G01*
X112425000Y-95650000D01*
G75*
G02*
X112625000Y-95450000I200000J0D01*
G01*
G37*
G36*
G01*
X112625000Y-97100000D02*
X113175000Y-97100000D01*
G75*
G02*
X113375000Y-97300000I0J-200000D01*
G01*
X113375000Y-97700000D01*
G75*
G02*
X113175000Y-97900000I-200000J0D01*
G01*
X112625000Y-97900000D01*
G75*
G02*
X112425000Y-97700000I0J200000D01*
G01*
X112425000Y-97300000D01*
G75*
G02*
X112625000Y-97100000I200000J0D01*
G01*
G37*
%TD*%
%TO.C,R9*%
G36*
G01*
X116525000Y-97100000D02*
X117075000Y-97100000D01*
G75*
G02*
X117275000Y-97300000I0J-200000D01*
G01*
X117275000Y-97700000D01*
G75*
G02*
X117075000Y-97900000I-200000J0D01*
G01*
X116525000Y-97900000D01*
G75*
G02*
X116325000Y-97700000I0J200000D01*
G01*
X116325000Y-97300000D01*
G75*
G02*
X116525000Y-97100000I200000J0D01*
G01*
G37*
G36*
G01*
X116525000Y-95450000D02*
X117075000Y-95450000D01*
G75*
G02*
X117275000Y-95650000I0J-200000D01*
G01*
X117275000Y-96050000D01*
G75*
G02*
X117075000Y-96250000I-200000J0D01*
G01*
X116525000Y-96250000D01*
G75*
G02*
X116325000Y-96050000I0J200000D01*
G01*
X116325000Y-95650000D01*
G75*
G02*
X116525000Y-95450000I200000J0D01*
G01*
G37*
%TD*%
%TO.C,R15*%
G36*
G01*
X120425000Y-97100000D02*
X120975000Y-97100000D01*
G75*
G02*
X121175000Y-97300000I0J-200000D01*
G01*
X121175000Y-97700000D01*
G75*
G02*
X120975000Y-97900000I-200000J0D01*
G01*
X120425000Y-97900000D01*
G75*
G02*
X120225000Y-97700000I0J200000D01*
G01*
X120225000Y-97300000D01*
G75*
G02*
X120425000Y-97100000I200000J0D01*
G01*
G37*
G36*
G01*
X120425000Y-95450000D02*
X120975000Y-95450000D01*
G75*
G02*
X121175000Y-95650000I0J-200000D01*
G01*
X121175000Y-96050000D01*
G75*
G02*
X120975000Y-96250000I-200000J0D01*
G01*
X120425000Y-96250000D01*
G75*
G02*
X120225000Y-96050000I0J200000D01*
G01*
X120225000Y-95650000D01*
G75*
G02*
X120425000Y-95450000I200000J0D01*
G01*
G37*
%TD*%
%TO.C,R17*%
G36*
G01*
X108725000Y-133275000D02*
X109275000Y-133275000D01*
G75*
G02*
X109475000Y-133475000I0J-200000D01*
G01*
X109475000Y-133875000D01*
G75*
G02*
X109275000Y-134075000I-200000J0D01*
G01*
X108725000Y-134075000D01*
G75*
G02*
X108525000Y-133875000I0J200000D01*
G01*
X108525000Y-133475000D01*
G75*
G02*
X108725000Y-133275000I200000J0D01*
G01*
G37*
G36*
G01*
X108725000Y-134925000D02*
X109275000Y-134925000D01*
G75*
G02*
X109475000Y-135125000I0J-200000D01*
G01*
X109475000Y-135525000D01*
G75*
G02*
X109275000Y-135725000I-200000J0D01*
G01*
X108725000Y-135725000D01*
G75*
G02*
X108525000Y-135525000I0J200000D01*
G01*
X108525000Y-135125000D01*
G75*
G02*
X108725000Y-134925000I200000J0D01*
G01*
G37*
%TD*%
%TO.C,R19*%
G36*
G01*
X112925000Y-133450000D02*
X113475000Y-133450000D01*
G75*
G02*
X113675000Y-133650000I0J-200000D01*
G01*
X113675000Y-134050000D01*
G75*
G02*
X113475000Y-134250000I-200000J0D01*
G01*
X112925000Y-134250000D01*
G75*
G02*
X112725000Y-134050000I0J200000D01*
G01*
X112725000Y-133650000D01*
G75*
G02*
X112925000Y-133450000I200000J0D01*
G01*
G37*
G36*
G01*
X112925000Y-135100000D02*
X113475000Y-135100000D01*
G75*
G02*
X113675000Y-135300000I0J-200000D01*
G01*
X113675000Y-135700000D01*
G75*
G02*
X113475000Y-135900000I-200000J0D01*
G01*
X112925000Y-135900000D01*
G75*
G02*
X112725000Y-135700000I0J200000D01*
G01*
X112725000Y-135300000D01*
G75*
G02*
X112925000Y-135100000I200000J0D01*
G01*
G37*
%TD*%
%TO.C,R20*%
G36*
G01*
X117975000Y-134075000D02*
X117425000Y-134075000D01*
G75*
G02*
X117225000Y-133875000I0J200000D01*
G01*
X117225000Y-133475000D01*
G75*
G02*
X117425000Y-133275000I200000J0D01*
G01*
X117975000Y-133275000D01*
G75*
G02*
X118175000Y-133475000I0J-200000D01*
G01*
X118175000Y-133875000D01*
G75*
G02*
X117975000Y-134075000I-200000J0D01*
G01*
G37*
G36*
G01*
X117975000Y-135725000D02*
X117425000Y-135725000D01*
G75*
G02*
X117225000Y-135525000I0J200000D01*
G01*
X117225000Y-135125000D01*
G75*
G02*
X117425000Y-134925000I200000J0D01*
G01*
X117975000Y-134925000D01*
G75*
G02*
X118175000Y-135125000I0J-200000D01*
G01*
X118175000Y-135525000D01*
G75*
G02*
X117975000Y-135725000I-200000J0D01*
G01*
G37*
%TD*%
%TO.C,R25*%
G36*
G01*
X118225000Y-119775000D02*
X118775000Y-119775000D01*
G75*
G02*
X118975000Y-119975000I0J-200000D01*
G01*
X118975000Y-120375000D01*
G75*
G02*
X118775000Y-120575000I-200000J0D01*
G01*
X118225000Y-120575000D01*
G75*
G02*
X118025000Y-120375000I0J200000D01*
G01*
X118025000Y-119975000D01*
G75*
G02*
X118225000Y-119775000I200000J0D01*
G01*
G37*
G36*
G01*
X118225000Y-121425000D02*
X118775000Y-121425000D01*
G75*
G02*
X118975000Y-121625000I0J-200000D01*
G01*
X118975000Y-122025000D01*
G75*
G02*
X118775000Y-122225000I-200000J0D01*
G01*
X118225000Y-122225000D01*
G75*
G02*
X118025000Y-122025000I0J200000D01*
G01*
X118025000Y-121625000D01*
G75*
G02*
X118225000Y-121425000I200000J0D01*
G01*
G37*
%TD*%
%TO.C,U5*%
G36*
G01*
X126050000Y-108745000D02*
X126050000Y-108445000D01*
G75*
G02*
X126200000Y-108295000I150000J0D01*
G01*
X127850000Y-108295000D01*
G75*
G02*
X128000000Y-108445000I0J-150000D01*
G01*
X128000000Y-108745000D01*
G75*
G02*
X127850000Y-108895000I-150000J0D01*
G01*
X126200000Y-108895000D01*
G75*
G02*
X126050000Y-108745000I0J150000D01*
G01*
G37*
G36*
G01*
X126050000Y-110015000D02*
X126050000Y-109715000D01*
G75*
G02*
X126200000Y-109565000I150000J0D01*
G01*
X127850000Y-109565000D01*
G75*
G02*
X128000000Y-109715000I0J-150000D01*
G01*
X128000000Y-110015000D01*
G75*
G02*
X127850000Y-110165000I-150000J0D01*
G01*
X126200000Y-110165000D01*
G75*
G02*
X126050000Y-110015000I0J150000D01*
G01*
G37*
G36*
G01*
X126050000Y-111285000D02*
X126050000Y-110985000D01*
G75*
G02*
X126200000Y-110835000I150000J0D01*
G01*
X127850000Y-110835000D01*
G75*
G02*
X128000000Y-110985000I0J-150000D01*
G01*
X128000000Y-111285000D01*
G75*
G02*
X127850000Y-111435000I-150000J0D01*
G01*
X126200000Y-111435000D01*
G75*
G02*
X126050000Y-111285000I0J150000D01*
G01*
G37*
G36*
G01*
X126050000Y-112555000D02*
X126050000Y-112255000D01*
G75*
G02*
X126200000Y-112105000I150000J0D01*
G01*
X127850000Y-112105000D01*
G75*
G02*
X128000000Y-112255000I0J-150000D01*
G01*
X128000000Y-112555000D01*
G75*
G02*
X127850000Y-112705000I-150000J0D01*
G01*
X126200000Y-112705000D01*
G75*
G02*
X126050000Y-112555000I0J150000D01*
G01*
G37*
G36*
G01*
X131000000Y-112555000D02*
X131000000Y-112255000D01*
G75*
G02*
X131150000Y-112105000I150000J0D01*
G01*
X132800000Y-112105000D01*
G75*
G02*
X132950000Y-112255000I0J-150000D01*
G01*
X132950000Y-112555000D01*
G75*
G02*
X132800000Y-112705000I-150000J0D01*
G01*
X131150000Y-112705000D01*
G75*
G02*
X131000000Y-112555000I0J150000D01*
G01*
G37*
G36*
G01*
X131000000Y-111285000D02*
X131000000Y-110985000D01*
G75*
G02*
X131150000Y-110835000I150000J0D01*
G01*
X132800000Y-110835000D01*
G75*
G02*
X132950000Y-110985000I0J-150000D01*
G01*
X132950000Y-111285000D01*
G75*
G02*
X132800000Y-111435000I-150000J0D01*
G01*
X131150000Y-111435000D01*
G75*
G02*
X131000000Y-111285000I0J150000D01*
G01*
G37*
G36*
G01*
X131000000Y-110015000D02*
X131000000Y-109715000D01*
G75*
G02*
X131150000Y-109565000I150000J0D01*
G01*
X132800000Y-109565000D01*
G75*
G02*
X132950000Y-109715000I0J-150000D01*
G01*
X132950000Y-110015000D01*
G75*
G02*
X132800000Y-110165000I-150000J0D01*
G01*
X131150000Y-110165000D01*
G75*
G02*
X131000000Y-110015000I0J150000D01*
G01*
G37*
G36*
G01*
X131000000Y-108745000D02*
X131000000Y-108445000D01*
G75*
G02*
X131150000Y-108295000I150000J0D01*
G01*
X132800000Y-108295000D01*
G75*
G02*
X132950000Y-108445000I0J-150000D01*
G01*
X132950000Y-108745000D01*
G75*
G02*
X132800000Y-108895000I-150000J0D01*
G01*
X131150000Y-108895000D01*
G75*
G02*
X131000000Y-108745000I0J150000D01*
G01*
G37*
%TD*%
%TO.C,U6*%
G36*
G01*
X120050000Y-114705000D02*
X120050000Y-114405000D01*
G75*
G02*
X120200000Y-114255000I150000J0D01*
G01*
X121850000Y-114255000D01*
G75*
G02*
X122000000Y-114405000I0J-150000D01*
G01*
X122000000Y-114705000D01*
G75*
G02*
X121850000Y-114855000I-150000J0D01*
G01*
X120200000Y-114855000D01*
G75*
G02*
X120050000Y-114705000I0J150000D01*
G01*
G37*
G36*
G01*
X120050000Y-115975000D02*
X120050000Y-115675000D01*
G75*
G02*
X120200000Y-115525000I150000J0D01*
G01*
X121850000Y-115525000D01*
G75*
G02*
X122000000Y-115675000I0J-150000D01*
G01*
X122000000Y-115975000D01*
G75*
G02*
X121850000Y-116125000I-150000J0D01*
G01*
X120200000Y-116125000D01*
G75*
G02*
X120050000Y-115975000I0J150000D01*
G01*
G37*
G36*
G01*
X120050000Y-117245000D02*
X120050000Y-116945000D01*
G75*
G02*
X120200000Y-116795000I150000J0D01*
G01*
X121850000Y-116795000D01*
G75*
G02*
X122000000Y-116945000I0J-150000D01*
G01*
X122000000Y-117245000D01*
G75*
G02*
X121850000Y-117395000I-150000J0D01*
G01*
X120200000Y-117395000D01*
G75*
G02*
X120050000Y-117245000I0J150000D01*
G01*
G37*
G36*
G01*
X120050000Y-118515000D02*
X120050000Y-118215000D01*
G75*
G02*
X120200000Y-118065000I150000J0D01*
G01*
X121850000Y-118065000D01*
G75*
G02*
X122000000Y-118215000I0J-150000D01*
G01*
X122000000Y-118515000D01*
G75*
G02*
X121850000Y-118665000I-150000J0D01*
G01*
X120200000Y-118665000D01*
G75*
G02*
X120050000Y-118515000I0J150000D01*
G01*
G37*
G36*
G01*
X120050000Y-119785000D02*
X120050000Y-119485000D01*
G75*
G02*
X120200000Y-119335000I150000J0D01*
G01*
X121850000Y-119335000D01*
G75*
G02*
X122000000Y-119485000I0J-150000D01*
G01*
X122000000Y-119785000D01*
G75*
G02*
X121850000Y-119935000I-150000J0D01*
G01*
X120200000Y-119935000D01*
G75*
G02*
X120050000Y-119785000I0J150000D01*
G01*
G37*
G36*
G01*
X120050000Y-121055000D02*
X120050000Y-120755000D01*
G75*
G02*
X120200000Y-120605000I150000J0D01*
G01*
X121850000Y-120605000D01*
G75*
G02*
X122000000Y-120755000I0J-150000D01*
G01*
X122000000Y-121055000D01*
G75*
G02*
X121850000Y-121205000I-150000J0D01*
G01*
X120200000Y-121205000D01*
G75*
G02*
X120050000Y-121055000I0J150000D01*
G01*
G37*
G36*
G01*
X120050000Y-122325000D02*
X120050000Y-122025000D01*
G75*
G02*
X120200000Y-121875000I150000J0D01*
G01*
X121850000Y-121875000D01*
G75*
G02*
X122000000Y-122025000I0J-150000D01*
G01*
X122000000Y-122325000D01*
G75*
G02*
X121850000Y-122475000I-150000J0D01*
G01*
X120200000Y-122475000D01*
G75*
G02*
X120050000Y-122325000I0J150000D01*
G01*
G37*
G36*
G01*
X120050000Y-123595000D02*
X120050000Y-123295000D01*
G75*
G02*
X120200000Y-123145000I150000J0D01*
G01*
X121850000Y-123145000D01*
G75*
G02*
X122000000Y-123295000I0J-150000D01*
G01*
X122000000Y-123595000D01*
G75*
G02*
X121850000Y-123745000I-150000J0D01*
G01*
X120200000Y-123745000D01*
G75*
G02*
X120050000Y-123595000I0J150000D01*
G01*
G37*
G36*
G01*
X125000000Y-123595000D02*
X125000000Y-123295000D01*
G75*
G02*
X125150000Y-123145000I150000J0D01*
G01*
X126800000Y-123145000D01*
G75*
G02*
X126950000Y-123295000I0J-150000D01*
G01*
X126950000Y-123595000D01*
G75*
G02*
X126800000Y-123745000I-150000J0D01*
G01*
X125150000Y-123745000D01*
G75*
G02*
X125000000Y-123595000I0J150000D01*
G01*
G37*
G36*
G01*
X125000000Y-122325000D02*
X125000000Y-122025000D01*
G75*
G02*
X125150000Y-121875000I150000J0D01*
G01*
X126800000Y-121875000D01*
G75*
G02*
X126950000Y-122025000I0J-150000D01*
G01*
X126950000Y-122325000D01*
G75*
G02*
X126800000Y-122475000I-150000J0D01*
G01*
X125150000Y-122475000D01*
G75*
G02*
X125000000Y-122325000I0J150000D01*
G01*
G37*
G36*
G01*
X125000000Y-121055000D02*
X125000000Y-120755000D01*
G75*
G02*
X125150000Y-120605000I150000J0D01*
G01*
X126800000Y-120605000D01*
G75*
G02*
X126950000Y-120755000I0J-150000D01*
G01*
X126950000Y-121055000D01*
G75*
G02*
X126800000Y-121205000I-150000J0D01*
G01*
X125150000Y-121205000D01*
G75*
G02*
X125000000Y-121055000I0J150000D01*
G01*
G37*
G36*
G01*
X125000000Y-119785000D02*
X125000000Y-119485000D01*
G75*
G02*
X125150000Y-119335000I150000J0D01*
G01*
X126800000Y-119335000D01*
G75*
G02*
X126950000Y-119485000I0J-150000D01*
G01*
X126950000Y-119785000D01*
G75*
G02*
X126800000Y-119935000I-150000J0D01*
G01*
X125150000Y-119935000D01*
G75*
G02*
X125000000Y-119785000I0J150000D01*
G01*
G37*
G36*
G01*
X125000000Y-118515000D02*
X125000000Y-118215000D01*
G75*
G02*
X125150000Y-118065000I150000J0D01*
G01*
X126800000Y-118065000D01*
G75*
G02*
X126950000Y-118215000I0J-150000D01*
G01*
X126950000Y-118515000D01*
G75*
G02*
X126800000Y-118665000I-150000J0D01*
G01*
X125150000Y-118665000D01*
G75*
G02*
X125000000Y-118515000I0J150000D01*
G01*
G37*
G36*
G01*
X125000000Y-117245000D02*
X125000000Y-116945000D01*
G75*
G02*
X125150000Y-116795000I150000J0D01*
G01*
X126800000Y-116795000D01*
G75*
G02*
X126950000Y-116945000I0J-150000D01*
G01*
X126950000Y-117245000D01*
G75*
G02*
X126800000Y-117395000I-150000J0D01*
G01*
X125150000Y-117395000D01*
G75*
G02*
X125000000Y-117245000I0J150000D01*
G01*
G37*
G36*
G01*
X125000000Y-115975000D02*
X125000000Y-115675000D01*
G75*
G02*
X125150000Y-115525000I150000J0D01*
G01*
X126800000Y-115525000D01*
G75*
G02*
X126950000Y-115675000I0J-150000D01*
G01*
X126950000Y-115975000D01*
G75*
G02*
X126800000Y-116125000I-150000J0D01*
G01*
X125150000Y-116125000D01*
G75*
G02*
X125000000Y-115975000I0J150000D01*
G01*
G37*
G36*
G01*
X125000000Y-114705000D02*
X125000000Y-114405000D01*
G75*
G02*
X125150000Y-114255000I150000J0D01*
G01*
X126800000Y-114255000D01*
G75*
G02*
X126950000Y-114405000I0J-150000D01*
G01*
X126950000Y-114705000D01*
G75*
G02*
X126800000Y-114855000I-150000J0D01*
G01*
X125150000Y-114855000D01*
G75*
G02*
X125000000Y-114705000I0J150000D01*
G01*
G37*
%TD*%
%TO.C,C26*%
G36*
G01*
X189800000Y-101250000D02*
X189800000Y-106150000D01*
G75*
G02*
X189550000Y-106400000I-250000J0D01*
G01*
X188250000Y-106400000D01*
G75*
G02*
X188000000Y-106150000I0J250000D01*
G01*
X188000000Y-101250000D01*
G75*
G02*
X188250000Y-101000000I250000J0D01*
G01*
X189550000Y-101000000D01*
G75*
G02*
X189800000Y-101250000I0J-250000D01*
G01*
G37*
G36*
G01*
X184700000Y-101250000D02*
X184700000Y-106150000D01*
G75*
G02*
X184450000Y-106400000I-250000J0D01*
G01*
X183150000Y-106400000D01*
G75*
G02*
X182900000Y-106150000I0J250000D01*
G01*
X182900000Y-101250000D01*
G75*
G02*
X183150000Y-101000000I250000J0D01*
G01*
X184450000Y-101000000D01*
G75*
G02*
X184700000Y-101250000I0J-250000D01*
G01*
G37*
%TD*%
%TO.C,C27*%
G36*
G01*
X184700000Y-107250000D02*
X184700000Y-112150000D01*
G75*
G02*
X184450000Y-112400000I-250000J0D01*
G01*
X183150000Y-112400000D01*
G75*
G02*
X182900000Y-112150000I0J250000D01*
G01*
X182900000Y-107250000D01*
G75*
G02*
X183150000Y-107000000I250000J0D01*
G01*
X184450000Y-107000000D01*
G75*
G02*
X184700000Y-107250000I0J-250000D01*
G01*
G37*
G36*
G01*
X189800000Y-107250000D02*
X189800000Y-112150000D01*
G75*
G02*
X189550000Y-112400000I-250000J0D01*
G01*
X188250000Y-112400000D01*
G75*
G02*
X188000000Y-112150000I0J250000D01*
G01*
X188000000Y-107250000D01*
G75*
G02*
X188250000Y-107000000I250000J0D01*
G01*
X189550000Y-107000000D01*
G75*
G02*
X189800000Y-107250000I0J-250000D01*
G01*
G37*
%TD*%
%TO.C,C28*%
G36*
G01*
X189800000Y-113250000D02*
X189800000Y-118150000D01*
G75*
G02*
X189550000Y-118400000I-250000J0D01*
G01*
X188250000Y-118400000D01*
G75*
G02*
X188000000Y-118150000I0J250000D01*
G01*
X188000000Y-113250000D01*
G75*
G02*
X188250000Y-113000000I250000J0D01*
G01*
X189550000Y-113000000D01*
G75*
G02*
X189800000Y-113250000I0J-250000D01*
G01*
G37*
G36*
G01*
X184700000Y-113250000D02*
X184700000Y-118150000D01*
G75*
G02*
X184450000Y-118400000I-250000J0D01*
G01*
X183150000Y-118400000D01*
G75*
G02*
X182900000Y-118150000I0J250000D01*
G01*
X182900000Y-113250000D01*
G75*
G02*
X183150000Y-113000000I250000J0D01*
G01*
X184450000Y-113000000D01*
G75*
G02*
X184700000Y-113250000I0J-250000D01*
G01*
G37*
%TD*%
%TO.C,C29*%
G36*
G01*
X184700000Y-95250000D02*
X184700000Y-100150000D01*
G75*
G02*
X184450000Y-100400000I-250000J0D01*
G01*
X183150000Y-100400000D01*
G75*
G02*
X182900000Y-100150000I0J250000D01*
G01*
X182900000Y-95250000D01*
G75*
G02*
X183150000Y-95000000I250000J0D01*
G01*
X184450000Y-95000000D01*
G75*
G02*
X184700000Y-95250000I0J-250000D01*
G01*
G37*
G36*
G01*
X189800000Y-95250000D02*
X189800000Y-100150000D01*
G75*
G02*
X189550000Y-100400000I-250000J0D01*
G01*
X188250000Y-100400000D01*
G75*
G02*
X188000000Y-100150000I0J250000D01*
G01*
X188000000Y-95250000D01*
G75*
G02*
X188250000Y-95000000I250000J0D01*
G01*
X189550000Y-95000000D01*
G75*
G02*
X189800000Y-95250000I0J-250000D01*
G01*
G37*
%TD*%
D22*
%TO.C,J1*%
X107000000Y-103000000D03*
%TD*%
%TO.C,J2*%
X107000000Y-127750000D03*
%TD*%
%TO.C,J9*%
X196000000Y-104000000D03*
%TD*%
%TO.C,J10*%
X196000000Y-127000000D03*
%TD*%
D23*
%TO.C,J3*%
X174960000Y-107790000D03*
X174960000Y-102710000D03*
X180040000Y-102710000D03*
X180040000Y-107790000D03*
D24*
X177500000Y-105250000D03*
%TD*%
D23*
%TO.C,J4*%
X174960000Y-128040000D03*
X174960000Y-122960000D03*
X180040000Y-122960000D03*
X180040000Y-128040000D03*
D24*
X177500000Y-125500000D03*
%TD*%
%TO.C,J5*%
X177500000Y-115500000D03*
D23*
X180040000Y-118040000D03*
X180040000Y-112960000D03*
X174960000Y-112960000D03*
X174960000Y-118040000D03*
%TD*%
D25*
%TO.C,J6*%
X136800000Y-135000000D03*
D26*
X136800000Y-133730000D03*
X138070000Y-135000000D03*
X138070000Y-133730000D03*
X139340000Y-135000000D03*
X139340000Y-133730000D03*
X140610000Y-135000000D03*
X140610000Y-133730000D03*
X141880000Y-135000000D03*
X141880000Y-133730000D03*
%TD*%
%TO.C,C35*%
G36*
G01*
X148500000Y-120100000D02*
X150500000Y-120100000D01*
G75*
G02*
X150750000Y-120350000I0J-250000D01*
G01*
X150750000Y-124250000D01*
G75*
G02*
X150500000Y-124500000I-250000J0D01*
G01*
X148500000Y-124500000D01*
G75*
G02*
X148250000Y-124250000I0J250000D01*
G01*
X148250000Y-120350000D01*
G75*
G02*
X148500000Y-120100000I250000J0D01*
G01*
G37*
G36*
G01*
X148500000Y-128500000D02*
X150500000Y-128500000D01*
G75*
G02*
X150750000Y-128750000I0J-250000D01*
G01*
X150750000Y-132650000D01*
G75*
G02*
X150500000Y-132900000I-250000J0D01*
G01*
X148500000Y-132900000D01*
G75*
G02*
X148250000Y-132650000I0J250000D01*
G01*
X148250000Y-128750000D01*
G75*
G02*
X148500000Y-128500000I250000J0D01*
G01*
G37*
%TD*%
%TO.C,C36*%
G36*
G01*
X150500000Y-101500000D02*
X148500000Y-101500000D01*
G75*
G02*
X148250000Y-101250000I0J250000D01*
G01*
X148250000Y-97350000D01*
G75*
G02*
X148500000Y-97100000I250000J0D01*
G01*
X150500000Y-97100000D01*
G75*
G02*
X150750000Y-97350000I0J-250000D01*
G01*
X150750000Y-101250000D01*
G75*
G02*
X150500000Y-101500000I-250000J0D01*
G01*
G37*
G36*
G01*
X150500000Y-109900000D02*
X148500000Y-109900000D01*
G75*
G02*
X148250000Y-109650000I0J250000D01*
G01*
X148250000Y-105750000D01*
G75*
G02*
X148500000Y-105500000I250000J0D01*
G01*
X150500000Y-105500000D01*
G75*
G02*
X150750000Y-105750000I0J-250000D01*
G01*
X150750000Y-109650000D01*
G75*
G02*
X150500000Y-109900000I-250000J0D01*
G01*
G37*
%TD*%
%TO.C,C38*%
G36*
G01*
X160000000Y-128500000D02*
X162000000Y-128500000D01*
G75*
G02*
X162250000Y-128750000I0J-250000D01*
G01*
X162250000Y-132650000D01*
G75*
G02*
X162000000Y-132900000I-250000J0D01*
G01*
X160000000Y-132900000D01*
G75*
G02*
X159750000Y-132650000I0J250000D01*
G01*
X159750000Y-128750000D01*
G75*
G02*
X160000000Y-128500000I250000J0D01*
G01*
G37*
G36*
G01*
X160000000Y-120100000D02*
X162000000Y-120100000D01*
G75*
G02*
X162250000Y-120350000I0J-250000D01*
G01*
X162250000Y-124250000D01*
G75*
G02*
X162000000Y-124500000I-250000J0D01*
G01*
X160000000Y-124500000D01*
G75*
G02*
X159750000Y-124250000I0J250000D01*
G01*
X159750000Y-120350000D01*
G75*
G02*
X160000000Y-120100000I250000J0D01*
G01*
G37*
%TD*%
D27*
%TO.C,H1*%
X105000000Y-96500000D03*
%TD*%
%TO.C,H2*%
X105000000Y-134500000D03*
%TD*%
%TO.C,H3*%
X198000000Y-134500000D03*
%TD*%
%TO.C,H4*%
X198000000Y-96500000D03*
%TD*%
D28*
%TO.C,TP1*%
X138200000Y-96400000D03*
%TD*%
%TO.C,TP2*%
X134200000Y-96400000D03*
%TD*%
%TO.C,TP3*%
X130200000Y-96400000D03*
%TD*%
%TO.C,TP4*%
X126200000Y-96400000D03*
%TD*%
%TO.C,TP5*%
X142200000Y-96400000D03*
%TD*%
%TO.C,TP6*%
X123600000Y-134400000D03*
%TD*%
%TO.C,TP7*%
X155300000Y-134400000D03*
%TD*%
%TO.C,TP8*%
X131600000Y-134400000D03*
%TD*%
%TO.C,TP9*%
X127600000Y-134400000D03*
%TD*%
%TO.C,TP10*%
X118000000Y-116500000D03*
%TD*%
%TO.C,TP12*%
X177500000Y-97000000D03*
%TD*%
%TO.C,TP13*%
X177500000Y-133600000D03*
%TD*%
M02*
