%TF.GenerationSoftware,KiCad,Pcbnew,(5.1.8)-1*%
%TF.CreationDate,2020-11-17T00:45:18-08:00*%
%TF.ProjectId,WPT_TX,5750545f-5458-42e6-9b69-6361645f7063,rev?*%
%TF.SameCoordinates,Original*%
%TF.FileFunction,Soldermask,Bot*%
%TF.FilePolarity,Negative*%
%FSLAX46Y46*%
G04 Gerber Fmt 4.6, Leading zero omitted, Abs format (unit mm)*
G04 Created by KiCad (PCBNEW (5.1.8)-1) date 2020-11-17 00:45:18*
%MOMM*%
%LPD*%
G01*
G04 APERTURE LIST*
%ADD10R,3.000000X2.600000*%
%ADD11O,3.479800X1.841500*%
%ADD12R,3.800000X2.000000*%
%ADD13R,1.500000X2.000000*%
%ADD14R,0.650000X1.220000*%
%ADD15C,2.250000*%
%ADD16C,2.050000*%
%ADD17R,1.000000X1.000000*%
%ADD18O,1.000000X1.000000*%
%ADD19C,5.600000*%
%ADD20C,2.000000*%
G04 APERTURE END LIST*
%TO.C,U10*%
G36*
G01*
X162950000Y-102525000D02*
X162950000Y-101875000D01*
G75*
G02*
X163025000Y-101800000I75000J0D01*
G01*
X163175000Y-101800000D01*
G75*
G02*
X163250000Y-101875000I0J-75000D01*
G01*
X163250000Y-102525000D01*
G75*
G02*
X163175000Y-102600000I-75000J0D01*
G01*
X163025000Y-102600000D01*
G75*
G02*
X162950000Y-102525000I0J75000D01*
G01*
G37*
G36*
G01*
X163750000Y-102525000D02*
X163750000Y-101875000D01*
G75*
G02*
X163825000Y-101800000I75000J0D01*
G01*
X163975000Y-101800000D01*
G75*
G02*
X164050000Y-101875000I0J-75000D01*
G01*
X164050000Y-102525000D01*
G75*
G02*
X163975000Y-102600000I-75000J0D01*
G01*
X163825000Y-102600000D01*
G75*
G02*
X163750000Y-102525000I0J75000D01*
G01*
G37*
G36*
G01*
X164550000Y-102525000D02*
X164550000Y-101875000D01*
G75*
G02*
X164625000Y-101800000I75000J0D01*
G01*
X164775000Y-101800000D01*
G75*
G02*
X164850000Y-101875000I0J-75000D01*
G01*
X164850000Y-102525000D01*
G75*
G02*
X164775000Y-102600000I-75000J0D01*
G01*
X164625000Y-102600000D01*
G75*
G02*
X164550000Y-102525000I0J75000D01*
G01*
G37*
G36*
G01*
X165350000Y-102525000D02*
X165350000Y-101875000D01*
G75*
G02*
X165425000Y-101800000I75000J0D01*
G01*
X165575000Y-101800000D01*
G75*
G02*
X165650000Y-101875000I0J-75000D01*
G01*
X165650000Y-102525000D01*
G75*
G02*
X165575000Y-102600000I-75000J0D01*
G01*
X165425000Y-102600000D01*
G75*
G02*
X165350000Y-102525000I0J75000D01*
G01*
G37*
G36*
G01*
X166150000Y-102525000D02*
X166150000Y-101875000D01*
G75*
G02*
X166225000Y-101800000I75000J0D01*
G01*
X166375000Y-101800000D01*
G75*
G02*
X166450000Y-101875000I0J-75000D01*
G01*
X166450000Y-102525000D01*
G75*
G02*
X166375000Y-102600000I-75000J0D01*
G01*
X166225000Y-102600000D01*
G75*
G02*
X166150000Y-102525000I0J75000D01*
G01*
G37*
G36*
G01*
X162950000Y-106525000D02*
X162950000Y-105875000D01*
G75*
G02*
X163025000Y-105800000I75000J0D01*
G01*
X163175000Y-105800000D01*
G75*
G02*
X163250000Y-105875000I0J-75000D01*
G01*
X163250000Y-106525000D01*
G75*
G02*
X163175000Y-106600000I-75000J0D01*
G01*
X163025000Y-106600000D01*
G75*
G02*
X162950000Y-106525000I0J75000D01*
G01*
G37*
G36*
G01*
X163750000Y-106525000D02*
X163750000Y-105875000D01*
G75*
G02*
X163825000Y-105800000I75000J0D01*
G01*
X163975000Y-105800000D01*
G75*
G02*
X164050000Y-105875000I0J-75000D01*
G01*
X164050000Y-106525000D01*
G75*
G02*
X163975000Y-106600000I-75000J0D01*
G01*
X163825000Y-106600000D01*
G75*
G02*
X163750000Y-106525000I0J75000D01*
G01*
G37*
G36*
G01*
X164550000Y-106525000D02*
X164550000Y-105875000D01*
G75*
G02*
X164625000Y-105800000I75000J0D01*
G01*
X164775000Y-105800000D01*
G75*
G02*
X164850000Y-105875000I0J-75000D01*
G01*
X164850000Y-106525000D01*
G75*
G02*
X164775000Y-106600000I-75000J0D01*
G01*
X164625000Y-106600000D01*
G75*
G02*
X164550000Y-106525000I0J75000D01*
G01*
G37*
G36*
G01*
X165350000Y-106525000D02*
X165350000Y-105875000D01*
G75*
G02*
X165425000Y-105800000I75000J0D01*
G01*
X165575000Y-105800000D01*
G75*
G02*
X165650000Y-105875000I0J-75000D01*
G01*
X165650000Y-106525000D01*
G75*
G02*
X165575000Y-106600000I-75000J0D01*
G01*
X165425000Y-106600000D01*
G75*
G02*
X165350000Y-106525000I0J75000D01*
G01*
G37*
D10*
X164700000Y-104200000D03*
G36*
G01*
X166150000Y-106525000D02*
X166150000Y-105875000D01*
G75*
G02*
X166225000Y-105800000I75000J0D01*
G01*
X166375000Y-105800000D01*
G75*
G02*
X166450000Y-105875000I0J-75000D01*
G01*
X166450000Y-106525000D01*
G75*
G02*
X166375000Y-106600000I-75000J0D01*
G01*
X166225000Y-106600000D01*
G75*
G02*
X166150000Y-106525000I0J75000D01*
G01*
G37*
%TD*%
%TO.C,U13*%
G36*
G01*
X166750000Y-127175000D02*
X166750000Y-127825000D01*
G75*
G02*
X166675000Y-127900000I-75000J0D01*
G01*
X166525000Y-127900000D01*
G75*
G02*
X166450000Y-127825000I0J75000D01*
G01*
X166450000Y-127175000D01*
G75*
G02*
X166525000Y-127100000I75000J0D01*
G01*
X166675000Y-127100000D01*
G75*
G02*
X166750000Y-127175000I0J-75000D01*
G01*
G37*
G36*
G01*
X165950000Y-127175000D02*
X165950000Y-127825000D01*
G75*
G02*
X165875000Y-127900000I-75000J0D01*
G01*
X165725000Y-127900000D01*
G75*
G02*
X165650000Y-127825000I0J75000D01*
G01*
X165650000Y-127175000D01*
G75*
G02*
X165725000Y-127100000I75000J0D01*
G01*
X165875000Y-127100000D01*
G75*
G02*
X165950000Y-127175000I0J-75000D01*
G01*
G37*
G36*
G01*
X165150000Y-127175000D02*
X165150000Y-127825000D01*
G75*
G02*
X165075000Y-127900000I-75000J0D01*
G01*
X164925000Y-127900000D01*
G75*
G02*
X164850000Y-127825000I0J75000D01*
G01*
X164850000Y-127175000D01*
G75*
G02*
X164925000Y-127100000I75000J0D01*
G01*
X165075000Y-127100000D01*
G75*
G02*
X165150000Y-127175000I0J-75000D01*
G01*
G37*
G36*
G01*
X164350000Y-127175000D02*
X164350000Y-127825000D01*
G75*
G02*
X164275000Y-127900000I-75000J0D01*
G01*
X164125000Y-127900000D01*
G75*
G02*
X164050000Y-127825000I0J75000D01*
G01*
X164050000Y-127175000D01*
G75*
G02*
X164125000Y-127100000I75000J0D01*
G01*
X164275000Y-127100000D01*
G75*
G02*
X164350000Y-127175000I0J-75000D01*
G01*
G37*
G36*
G01*
X163550000Y-127175000D02*
X163550000Y-127825000D01*
G75*
G02*
X163475000Y-127900000I-75000J0D01*
G01*
X163325000Y-127900000D01*
G75*
G02*
X163250000Y-127825000I0J75000D01*
G01*
X163250000Y-127175000D01*
G75*
G02*
X163325000Y-127100000I75000J0D01*
G01*
X163475000Y-127100000D01*
G75*
G02*
X163550000Y-127175000I0J-75000D01*
G01*
G37*
G36*
G01*
X166750000Y-123175000D02*
X166750000Y-123825000D01*
G75*
G02*
X166675000Y-123900000I-75000J0D01*
G01*
X166525000Y-123900000D01*
G75*
G02*
X166450000Y-123825000I0J75000D01*
G01*
X166450000Y-123175000D01*
G75*
G02*
X166525000Y-123100000I75000J0D01*
G01*
X166675000Y-123100000D01*
G75*
G02*
X166750000Y-123175000I0J-75000D01*
G01*
G37*
G36*
G01*
X165950000Y-123175000D02*
X165950000Y-123825000D01*
G75*
G02*
X165875000Y-123900000I-75000J0D01*
G01*
X165725000Y-123900000D01*
G75*
G02*
X165650000Y-123825000I0J75000D01*
G01*
X165650000Y-123175000D01*
G75*
G02*
X165725000Y-123100000I75000J0D01*
G01*
X165875000Y-123100000D01*
G75*
G02*
X165950000Y-123175000I0J-75000D01*
G01*
G37*
G36*
G01*
X165150000Y-123175000D02*
X165150000Y-123825000D01*
G75*
G02*
X165075000Y-123900000I-75000J0D01*
G01*
X164925000Y-123900000D01*
G75*
G02*
X164850000Y-123825000I0J75000D01*
G01*
X164850000Y-123175000D01*
G75*
G02*
X164925000Y-123100000I75000J0D01*
G01*
X165075000Y-123100000D01*
G75*
G02*
X165150000Y-123175000I0J-75000D01*
G01*
G37*
G36*
G01*
X164350000Y-123175000D02*
X164350000Y-123825000D01*
G75*
G02*
X164275000Y-123900000I-75000J0D01*
G01*
X164125000Y-123900000D01*
G75*
G02*
X164050000Y-123825000I0J75000D01*
G01*
X164050000Y-123175000D01*
G75*
G02*
X164125000Y-123100000I75000J0D01*
G01*
X164275000Y-123100000D01*
G75*
G02*
X164350000Y-123175000I0J-75000D01*
G01*
G37*
X165000000Y-125500000D03*
G36*
G01*
X163550000Y-123175000D02*
X163550000Y-123825000D01*
G75*
G02*
X163475000Y-123900000I-75000J0D01*
G01*
X163325000Y-123900000D01*
G75*
G02*
X163250000Y-123825000I0J75000D01*
G01*
X163250000Y-123175000D01*
G75*
G02*
X163325000Y-123100000I75000J0D01*
G01*
X163475000Y-123100000D01*
G75*
G02*
X163550000Y-123175000I0J-75000D01*
G01*
G37*
%TD*%
D11*
%TO.C,J7*%
X115620000Y-111250000D03*
X115620000Y-113790000D03*
X115620000Y-108710000D03*
%TD*%
%TO.C,J8*%
X115620000Y-122020000D03*
X115620000Y-119480000D03*
%TD*%
%TO.C,C1*%
G36*
G01*
X102250000Y-103475000D02*
X102750000Y-103475000D01*
G75*
G02*
X102975000Y-103700000I0J-225000D01*
G01*
X102975000Y-104150000D01*
G75*
G02*
X102750000Y-104375000I-225000J0D01*
G01*
X102250000Y-104375000D01*
G75*
G02*
X102025000Y-104150000I0J225000D01*
G01*
X102025000Y-103700000D01*
G75*
G02*
X102250000Y-103475000I225000J0D01*
G01*
G37*
G36*
G01*
X102250000Y-105025000D02*
X102750000Y-105025000D01*
G75*
G02*
X102975000Y-105250000I0J-225000D01*
G01*
X102975000Y-105700000D01*
G75*
G02*
X102750000Y-105925000I-225000J0D01*
G01*
X102250000Y-105925000D01*
G75*
G02*
X102025000Y-105700000I0J225000D01*
G01*
X102025000Y-105250000D01*
G75*
G02*
X102250000Y-105025000I225000J0D01*
G01*
G37*
%TD*%
%TO.C,C2*%
G36*
G01*
X102250000Y-113925000D02*
X102750000Y-113925000D01*
G75*
G02*
X102975000Y-114150000I0J-225000D01*
G01*
X102975000Y-114600000D01*
G75*
G02*
X102750000Y-114825000I-225000J0D01*
G01*
X102250000Y-114825000D01*
G75*
G02*
X102025000Y-114600000I0J225000D01*
G01*
X102025000Y-114150000D01*
G75*
G02*
X102250000Y-113925000I225000J0D01*
G01*
G37*
G36*
G01*
X102250000Y-112375000D02*
X102750000Y-112375000D01*
G75*
G02*
X102975000Y-112600000I0J-225000D01*
G01*
X102975000Y-113050000D01*
G75*
G02*
X102750000Y-113275000I-225000J0D01*
G01*
X102250000Y-113275000D01*
G75*
G02*
X102025000Y-113050000I0J225000D01*
G01*
X102025000Y-112600000D01*
G75*
G02*
X102250000Y-112375000I225000J0D01*
G01*
G37*
%TD*%
%TO.C,C3*%
G36*
G01*
X102250000Y-121300000D02*
X102750000Y-121300000D01*
G75*
G02*
X102975000Y-121525000I0J-225000D01*
G01*
X102975000Y-121975000D01*
G75*
G02*
X102750000Y-122200000I-225000J0D01*
G01*
X102250000Y-122200000D01*
G75*
G02*
X102025000Y-121975000I0J225000D01*
G01*
X102025000Y-121525000D01*
G75*
G02*
X102250000Y-121300000I225000J0D01*
G01*
G37*
G36*
G01*
X102250000Y-122850000D02*
X102750000Y-122850000D01*
G75*
G02*
X102975000Y-123075000I0J-225000D01*
G01*
X102975000Y-123525000D01*
G75*
G02*
X102750000Y-123750000I-225000J0D01*
G01*
X102250000Y-123750000D01*
G75*
G02*
X102025000Y-123525000I0J225000D01*
G01*
X102025000Y-123075000D01*
G75*
G02*
X102250000Y-122850000I225000J0D01*
G01*
G37*
%TD*%
%TO.C,C4*%
G36*
G01*
X121825000Y-110150000D02*
X121825000Y-109650000D01*
G75*
G02*
X122050000Y-109425000I225000J0D01*
G01*
X122500000Y-109425000D01*
G75*
G02*
X122725000Y-109650000I0J-225000D01*
G01*
X122725000Y-110150000D01*
G75*
G02*
X122500000Y-110375000I-225000J0D01*
G01*
X122050000Y-110375000D01*
G75*
G02*
X121825000Y-110150000I0J225000D01*
G01*
G37*
G36*
G01*
X120275000Y-110150000D02*
X120275000Y-109650000D01*
G75*
G02*
X120500000Y-109425000I225000J0D01*
G01*
X120950000Y-109425000D01*
G75*
G02*
X121175000Y-109650000I0J-225000D01*
G01*
X121175000Y-110150000D01*
G75*
G02*
X120950000Y-110375000I-225000J0D01*
G01*
X120500000Y-110375000D01*
G75*
G02*
X120275000Y-110150000I0J225000D01*
G01*
G37*
%TD*%
%TO.C,C5*%
G36*
G01*
X131325000Y-108350000D02*
X131325000Y-108850000D01*
G75*
G02*
X131100000Y-109075000I-225000J0D01*
G01*
X130650000Y-109075000D01*
G75*
G02*
X130425000Y-108850000I0J225000D01*
G01*
X130425000Y-108350000D01*
G75*
G02*
X130650000Y-108125000I225000J0D01*
G01*
X131100000Y-108125000D01*
G75*
G02*
X131325000Y-108350000I0J-225000D01*
G01*
G37*
G36*
G01*
X129775000Y-108350000D02*
X129775000Y-108850000D01*
G75*
G02*
X129550000Y-109075000I-225000J0D01*
G01*
X129100000Y-109075000D01*
G75*
G02*
X128875000Y-108850000I0J225000D01*
G01*
X128875000Y-108350000D01*
G75*
G02*
X129100000Y-108125000I225000J0D01*
G01*
X129550000Y-108125000D01*
G75*
G02*
X129775000Y-108350000I0J-225000D01*
G01*
G37*
%TD*%
%TO.C,C9*%
G36*
G01*
X121825000Y-111750000D02*
X121825000Y-111250000D01*
G75*
G02*
X122050000Y-111025000I225000J0D01*
G01*
X122500000Y-111025000D01*
G75*
G02*
X122725000Y-111250000I0J-225000D01*
G01*
X122725000Y-111750000D01*
G75*
G02*
X122500000Y-111975000I-225000J0D01*
G01*
X122050000Y-111975000D01*
G75*
G02*
X121825000Y-111750000I0J225000D01*
G01*
G37*
G36*
G01*
X120275000Y-111750000D02*
X120275000Y-111250000D01*
G75*
G02*
X120500000Y-111025000I225000J0D01*
G01*
X120950000Y-111025000D01*
G75*
G02*
X121175000Y-111250000I0J-225000D01*
G01*
X121175000Y-111750000D01*
G75*
G02*
X120950000Y-111975000I-225000J0D01*
G01*
X120500000Y-111975000D01*
G75*
G02*
X120275000Y-111750000I0J225000D01*
G01*
G37*
%TD*%
%TO.C,C11*%
G36*
G01*
X127225000Y-114850000D02*
X127225000Y-114350000D01*
G75*
G02*
X127450000Y-114125000I225000J0D01*
G01*
X127900000Y-114125000D01*
G75*
G02*
X128125000Y-114350000I0J-225000D01*
G01*
X128125000Y-114850000D01*
G75*
G02*
X127900000Y-115075000I-225000J0D01*
G01*
X127450000Y-115075000D01*
G75*
G02*
X127225000Y-114850000I0J225000D01*
G01*
G37*
G36*
G01*
X125675000Y-114850000D02*
X125675000Y-114350000D01*
G75*
G02*
X125900000Y-114125000I225000J0D01*
G01*
X126350000Y-114125000D01*
G75*
G02*
X126575000Y-114350000I0J-225000D01*
G01*
X126575000Y-114850000D01*
G75*
G02*
X126350000Y-115075000I-225000J0D01*
G01*
X125900000Y-115075000D01*
G75*
G02*
X125675000Y-114850000I0J225000D01*
G01*
G37*
%TD*%
%TO.C,C12*%
G36*
G01*
X140775000Y-127450000D02*
X140775000Y-126950000D01*
G75*
G02*
X141000000Y-126725000I225000J0D01*
G01*
X141450000Y-126725000D01*
G75*
G02*
X141675000Y-126950000I0J-225000D01*
G01*
X141675000Y-127450000D01*
G75*
G02*
X141450000Y-127675000I-225000J0D01*
G01*
X141000000Y-127675000D01*
G75*
G02*
X140775000Y-127450000I0J225000D01*
G01*
G37*
G36*
G01*
X142325000Y-127450000D02*
X142325000Y-126950000D01*
G75*
G02*
X142550000Y-126725000I225000J0D01*
G01*
X143000000Y-126725000D01*
G75*
G02*
X143225000Y-126950000I0J-225000D01*
G01*
X143225000Y-127450000D01*
G75*
G02*
X143000000Y-127675000I-225000J0D01*
G01*
X142550000Y-127675000D01*
G75*
G02*
X142325000Y-127450000I0J225000D01*
G01*
G37*
%TD*%
%TO.C,C13*%
G36*
G01*
X142325000Y-124650000D02*
X142325000Y-124150000D01*
G75*
G02*
X142550000Y-123925000I225000J0D01*
G01*
X143000000Y-123925000D01*
G75*
G02*
X143225000Y-124150000I0J-225000D01*
G01*
X143225000Y-124650000D01*
G75*
G02*
X143000000Y-124875000I-225000J0D01*
G01*
X142550000Y-124875000D01*
G75*
G02*
X142325000Y-124650000I0J225000D01*
G01*
G37*
G36*
G01*
X140775000Y-124650000D02*
X140775000Y-124150000D01*
G75*
G02*
X141000000Y-123925000I225000J0D01*
G01*
X141450000Y-123925000D01*
G75*
G02*
X141675000Y-124150000I0J-225000D01*
G01*
X141675000Y-124650000D01*
G75*
G02*
X141450000Y-124875000I-225000J0D01*
G01*
X141000000Y-124875000D01*
G75*
G02*
X140775000Y-124650000I0J225000D01*
G01*
G37*
%TD*%
%TO.C,C14*%
G36*
G01*
X142325000Y-120000000D02*
X142325000Y-119500000D01*
G75*
G02*
X142550000Y-119275000I225000J0D01*
G01*
X143000000Y-119275000D01*
G75*
G02*
X143225000Y-119500000I0J-225000D01*
G01*
X143225000Y-120000000D01*
G75*
G02*
X143000000Y-120225000I-225000J0D01*
G01*
X142550000Y-120225000D01*
G75*
G02*
X142325000Y-120000000I0J225000D01*
G01*
G37*
G36*
G01*
X140775000Y-120000000D02*
X140775000Y-119500000D01*
G75*
G02*
X141000000Y-119275000I225000J0D01*
G01*
X141450000Y-119275000D01*
G75*
G02*
X141675000Y-119500000I0J-225000D01*
G01*
X141675000Y-120000000D01*
G75*
G02*
X141450000Y-120225000I-225000J0D01*
G01*
X141000000Y-120225000D01*
G75*
G02*
X140775000Y-120000000I0J225000D01*
G01*
G37*
%TD*%
%TO.C,C15*%
G36*
G01*
X142325000Y-118250000D02*
X142325000Y-117750000D01*
G75*
G02*
X142550000Y-117525000I225000J0D01*
G01*
X143000000Y-117525000D01*
G75*
G02*
X143225000Y-117750000I0J-225000D01*
G01*
X143225000Y-118250000D01*
G75*
G02*
X143000000Y-118475000I-225000J0D01*
G01*
X142550000Y-118475000D01*
G75*
G02*
X142325000Y-118250000I0J225000D01*
G01*
G37*
G36*
G01*
X140775000Y-118250000D02*
X140775000Y-117750000D01*
G75*
G02*
X141000000Y-117525000I225000J0D01*
G01*
X141450000Y-117525000D01*
G75*
G02*
X141675000Y-117750000I0J-225000D01*
G01*
X141675000Y-118250000D01*
G75*
G02*
X141450000Y-118475000I-225000J0D01*
G01*
X141000000Y-118475000D01*
G75*
G02*
X140775000Y-118250000I0J225000D01*
G01*
G37*
%TD*%
%TO.C,C16*%
G36*
G01*
X162650000Y-116800000D02*
X162150000Y-116800000D01*
G75*
G02*
X161925000Y-116575000I0J225000D01*
G01*
X161925000Y-116125000D01*
G75*
G02*
X162150000Y-115900000I225000J0D01*
G01*
X162650000Y-115900000D01*
G75*
G02*
X162875000Y-116125000I0J-225000D01*
G01*
X162875000Y-116575000D01*
G75*
G02*
X162650000Y-116800000I-225000J0D01*
G01*
G37*
G36*
G01*
X162650000Y-115250000D02*
X162150000Y-115250000D01*
G75*
G02*
X161925000Y-115025000I0J225000D01*
G01*
X161925000Y-114575000D01*
G75*
G02*
X162150000Y-114350000I225000J0D01*
G01*
X162650000Y-114350000D01*
G75*
G02*
X162875000Y-114575000I0J-225000D01*
G01*
X162875000Y-115025000D01*
G75*
G02*
X162650000Y-115250000I-225000J0D01*
G01*
G37*
%TD*%
%TO.C,C17*%
G36*
G01*
X135925000Y-127450000D02*
X135925000Y-126950000D01*
G75*
G02*
X136150000Y-126725000I225000J0D01*
G01*
X136600000Y-126725000D01*
G75*
G02*
X136825000Y-126950000I0J-225000D01*
G01*
X136825000Y-127450000D01*
G75*
G02*
X136600000Y-127675000I-225000J0D01*
G01*
X136150000Y-127675000D01*
G75*
G02*
X135925000Y-127450000I0J225000D01*
G01*
G37*
G36*
G01*
X134375000Y-127450000D02*
X134375000Y-126950000D01*
G75*
G02*
X134600000Y-126725000I225000J0D01*
G01*
X135050000Y-126725000D01*
G75*
G02*
X135275000Y-126950000I0J-225000D01*
G01*
X135275000Y-127450000D01*
G75*
G02*
X135050000Y-127675000I-225000J0D01*
G01*
X134600000Y-127675000D01*
G75*
G02*
X134375000Y-127450000I0J225000D01*
G01*
G37*
%TD*%
%TO.C,C18*%
G36*
G01*
X136250000Y-116775000D02*
X136750000Y-116775000D01*
G75*
G02*
X136975000Y-117000000I0J-225000D01*
G01*
X136975000Y-117450000D01*
G75*
G02*
X136750000Y-117675000I-225000J0D01*
G01*
X136250000Y-117675000D01*
G75*
G02*
X136025000Y-117450000I0J225000D01*
G01*
X136025000Y-117000000D01*
G75*
G02*
X136250000Y-116775000I225000J0D01*
G01*
G37*
G36*
G01*
X136250000Y-118325000D02*
X136750000Y-118325000D01*
G75*
G02*
X136975000Y-118550000I0J-225000D01*
G01*
X136975000Y-119000000D01*
G75*
G02*
X136750000Y-119225000I-225000J0D01*
G01*
X136250000Y-119225000D01*
G75*
G02*
X136025000Y-119000000I0J225000D01*
G01*
X136025000Y-118550000D01*
G75*
G02*
X136250000Y-118325000I225000J0D01*
G01*
G37*
%TD*%
%TO.C,C19*%
G36*
G01*
X131275000Y-124250000D02*
X131275000Y-123750000D01*
G75*
G02*
X131500000Y-123525000I225000J0D01*
G01*
X131950000Y-123525000D01*
G75*
G02*
X132175000Y-123750000I0J-225000D01*
G01*
X132175000Y-124250000D01*
G75*
G02*
X131950000Y-124475000I-225000J0D01*
G01*
X131500000Y-124475000D01*
G75*
G02*
X131275000Y-124250000I0J225000D01*
G01*
G37*
G36*
G01*
X132825000Y-124250000D02*
X132825000Y-123750000D01*
G75*
G02*
X133050000Y-123525000I225000J0D01*
G01*
X133500000Y-123525000D01*
G75*
G02*
X133725000Y-123750000I0J-225000D01*
G01*
X133725000Y-124250000D01*
G75*
G02*
X133500000Y-124475000I-225000J0D01*
G01*
X133050000Y-124475000D01*
G75*
G02*
X132825000Y-124250000I0J225000D01*
G01*
G37*
%TD*%
%TO.C,C20*%
G36*
G01*
X136250000Y-124175000D02*
X135750000Y-124175000D01*
G75*
G02*
X135525000Y-123950000I0J225000D01*
G01*
X135525000Y-123500000D01*
G75*
G02*
X135750000Y-123275000I225000J0D01*
G01*
X136250000Y-123275000D01*
G75*
G02*
X136475000Y-123500000I0J-225000D01*
G01*
X136475000Y-123950000D01*
G75*
G02*
X136250000Y-124175000I-225000J0D01*
G01*
G37*
G36*
G01*
X136250000Y-125725000D02*
X135750000Y-125725000D01*
G75*
G02*
X135525000Y-125500000I0J225000D01*
G01*
X135525000Y-125050000D01*
G75*
G02*
X135750000Y-124825000I225000J0D01*
G01*
X136250000Y-124825000D01*
G75*
G02*
X136475000Y-125050000I0J-225000D01*
G01*
X136475000Y-125500000D01*
G75*
G02*
X136250000Y-125725000I-225000J0D01*
G01*
G37*
%TD*%
%TO.C,C22*%
G36*
G01*
X128725000Y-130650000D02*
X128725000Y-130150000D01*
G75*
G02*
X128950000Y-129925000I225000J0D01*
G01*
X129400000Y-129925000D01*
G75*
G02*
X129625000Y-130150000I0J-225000D01*
G01*
X129625000Y-130650000D01*
G75*
G02*
X129400000Y-130875000I-225000J0D01*
G01*
X128950000Y-130875000D01*
G75*
G02*
X128725000Y-130650000I0J225000D01*
G01*
G37*
G36*
G01*
X127175000Y-130650000D02*
X127175000Y-130150000D01*
G75*
G02*
X127400000Y-129925000I225000J0D01*
G01*
X127850000Y-129925000D01*
G75*
G02*
X128075000Y-130150000I0J-225000D01*
G01*
X128075000Y-130650000D01*
G75*
G02*
X127850000Y-130875000I-225000J0D01*
G01*
X127400000Y-130875000D01*
G75*
G02*
X127175000Y-130650000I0J225000D01*
G01*
G37*
%TD*%
%TO.C,C23*%
G36*
G01*
X129625000Y-128550000D02*
X129625000Y-129050000D01*
G75*
G02*
X129400000Y-129275000I-225000J0D01*
G01*
X128950000Y-129275000D01*
G75*
G02*
X128725000Y-129050000I0J225000D01*
G01*
X128725000Y-128550000D01*
G75*
G02*
X128950000Y-128325000I225000J0D01*
G01*
X129400000Y-128325000D01*
G75*
G02*
X129625000Y-128550000I0J-225000D01*
G01*
G37*
G36*
G01*
X128075000Y-128550000D02*
X128075000Y-129050000D01*
G75*
G02*
X127850000Y-129275000I-225000J0D01*
G01*
X127400000Y-129275000D01*
G75*
G02*
X127175000Y-129050000I0J225000D01*
G01*
X127175000Y-128550000D01*
G75*
G02*
X127400000Y-128325000I225000J0D01*
G01*
X127850000Y-128325000D01*
G75*
G02*
X128075000Y-128550000I0J-225000D01*
G01*
G37*
%TD*%
%TO.C,C25*%
G36*
G01*
X121900000Y-128650000D02*
X121900000Y-128150000D01*
G75*
G02*
X122125000Y-127925000I225000J0D01*
G01*
X122575000Y-127925000D01*
G75*
G02*
X122800000Y-128150000I0J-225000D01*
G01*
X122800000Y-128650000D01*
G75*
G02*
X122575000Y-128875000I-225000J0D01*
G01*
X122125000Y-128875000D01*
G75*
G02*
X121900000Y-128650000I0J225000D01*
G01*
G37*
G36*
G01*
X120350000Y-128650000D02*
X120350000Y-128150000D01*
G75*
G02*
X120575000Y-127925000I225000J0D01*
G01*
X121025000Y-127925000D01*
G75*
G02*
X121250000Y-128150000I0J-225000D01*
G01*
X121250000Y-128650000D01*
G75*
G02*
X121025000Y-128875000I-225000J0D01*
G01*
X120575000Y-128875000D01*
G75*
G02*
X120350000Y-128650000I0J225000D01*
G01*
G37*
%TD*%
%TO.C,C31*%
G36*
G01*
X118050000Y-127425000D02*
X117550000Y-127425000D01*
G75*
G02*
X117325000Y-127200000I0J225000D01*
G01*
X117325000Y-126750000D01*
G75*
G02*
X117550000Y-126525000I225000J0D01*
G01*
X118050000Y-126525000D01*
G75*
G02*
X118275000Y-126750000I0J-225000D01*
G01*
X118275000Y-127200000D01*
G75*
G02*
X118050000Y-127425000I-225000J0D01*
G01*
G37*
G36*
G01*
X118050000Y-125875000D02*
X117550000Y-125875000D01*
G75*
G02*
X117325000Y-125650000I0J225000D01*
G01*
X117325000Y-125200000D01*
G75*
G02*
X117550000Y-124975000I225000J0D01*
G01*
X118050000Y-124975000D01*
G75*
G02*
X118275000Y-125200000I0J-225000D01*
G01*
X118275000Y-125650000D01*
G75*
G02*
X118050000Y-125875000I-225000J0D01*
G01*
G37*
%TD*%
%TO.C,C32*%
G36*
G01*
X163700000Y-122275000D02*
X163700000Y-121325000D01*
G75*
G02*
X163950000Y-121075000I250000J0D01*
G01*
X164450000Y-121075000D01*
G75*
G02*
X164700000Y-121325000I0J-250000D01*
G01*
X164700000Y-122275000D01*
G75*
G02*
X164450000Y-122525000I-250000J0D01*
G01*
X163950000Y-122525000D01*
G75*
G02*
X163700000Y-122275000I0J250000D01*
G01*
G37*
G36*
G01*
X165600000Y-122275000D02*
X165600000Y-121325000D01*
G75*
G02*
X165850000Y-121075000I250000J0D01*
G01*
X166350000Y-121075000D01*
G75*
G02*
X166600000Y-121325000I0J-250000D01*
G01*
X166600000Y-122275000D01*
G75*
G02*
X166350000Y-122525000I-250000J0D01*
G01*
X165850000Y-122525000D01*
G75*
G02*
X165600000Y-122275000I0J250000D01*
G01*
G37*
%TD*%
%TO.C,C33*%
G36*
G01*
X140025000Y-128750000D02*
X140025000Y-129250000D01*
G75*
G02*
X139800000Y-129475000I-225000J0D01*
G01*
X139350000Y-129475000D01*
G75*
G02*
X139125000Y-129250000I0J225000D01*
G01*
X139125000Y-128750000D01*
G75*
G02*
X139350000Y-128525000I225000J0D01*
G01*
X139800000Y-128525000D01*
G75*
G02*
X140025000Y-128750000I0J-225000D01*
G01*
G37*
G36*
G01*
X138475000Y-128750000D02*
X138475000Y-129250000D01*
G75*
G02*
X138250000Y-129475000I-225000J0D01*
G01*
X137800000Y-129475000D01*
G75*
G02*
X137575000Y-129250000I0J225000D01*
G01*
X137575000Y-128750000D01*
G75*
G02*
X137800000Y-128525000I225000J0D01*
G01*
X138250000Y-128525000D01*
G75*
G02*
X138475000Y-128750000I0J-225000D01*
G01*
G37*
%TD*%
%TO.C,FB1*%
G36*
G01*
X140750000Y-121881250D02*
X140750000Y-121118750D01*
G75*
G02*
X140968750Y-120900000I218750J0D01*
G01*
X141406250Y-120900000D01*
G75*
G02*
X141625000Y-121118750I0J-218750D01*
G01*
X141625000Y-121881250D01*
G75*
G02*
X141406250Y-122100000I-218750J0D01*
G01*
X140968750Y-122100000D01*
G75*
G02*
X140750000Y-121881250I0J218750D01*
G01*
G37*
G36*
G01*
X142875000Y-121881250D02*
X142875000Y-121118750D01*
G75*
G02*
X143093750Y-120900000I218750J0D01*
G01*
X143531250Y-120900000D01*
G75*
G02*
X143750000Y-121118750I0J-218750D01*
G01*
X143750000Y-121881250D01*
G75*
G02*
X143531250Y-122100000I-218750J0D01*
G01*
X143093750Y-122100000D01*
G75*
G02*
X142875000Y-121881250I0J218750D01*
G01*
G37*
%TD*%
%TO.C,R1*%
G36*
G01*
X119275000Y-109175000D02*
X118725000Y-109175000D01*
G75*
G02*
X118525000Y-108975000I0J200000D01*
G01*
X118525000Y-108575000D01*
G75*
G02*
X118725000Y-108375000I200000J0D01*
G01*
X119275000Y-108375000D01*
G75*
G02*
X119475000Y-108575000I0J-200000D01*
G01*
X119475000Y-108975000D01*
G75*
G02*
X119275000Y-109175000I-200000J0D01*
G01*
G37*
G36*
G01*
X119275000Y-110825000D02*
X118725000Y-110825000D01*
G75*
G02*
X118525000Y-110625000I0J200000D01*
G01*
X118525000Y-110225000D01*
G75*
G02*
X118725000Y-110025000I200000J0D01*
G01*
X119275000Y-110025000D01*
G75*
G02*
X119475000Y-110225000I0J-200000D01*
G01*
X119475000Y-110625000D01*
G75*
G02*
X119275000Y-110825000I-200000J0D01*
G01*
G37*
%TD*%
%TO.C,R3*%
G36*
G01*
X127225000Y-109425000D02*
X127225000Y-109975000D01*
G75*
G02*
X127025000Y-110175000I-200000J0D01*
G01*
X126625000Y-110175000D01*
G75*
G02*
X126425000Y-109975000I0J200000D01*
G01*
X126425000Y-109425000D01*
G75*
G02*
X126625000Y-109225000I200000J0D01*
G01*
X127025000Y-109225000D01*
G75*
G02*
X127225000Y-109425000I0J-200000D01*
G01*
G37*
G36*
G01*
X125575000Y-109425000D02*
X125575000Y-109975000D01*
G75*
G02*
X125375000Y-110175000I-200000J0D01*
G01*
X124975000Y-110175000D01*
G75*
G02*
X124775000Y-109975000I0J200000D01*
G01*
X124775000Y-109425000D01*
G75*
G02*
X124975000Y-109225000I200000J0D01*
G01*
X125375000Y-109225000D01*
G75*
G02*
X125575000Y-109425000I0J-200000D01*
G01*
G37*
%TD*%
%TO.C,R7*%
G36*
G01*
X123125000Y-118125000D02*
X123125000Y-118675000D01*
G75*
G02*
X122925000Y-118875000I-200000J0D01*
G01*
X122525000Y-118875000D01*
G75*
G02*
X122325000Y-118675000I0J200000D01*
G01*
X122325000Y-118125000D01*
G75*
G02*
X122525000Y-117925000I200000J0D01*
G01*
X122925000Y-117925000D01*
G75*
G02*
X123125000Y-118125000I0J-200000D01*
G01*
G37*
G36*
G01*
X121475000Y-118125000D02*
X121475000Y-118675000D01*
G75*
G02*
X121275000Y-118875000I-200000J0D01*
G01*
X120875000Y-118875000D01*
G75*
G02*
X120675000Y-118675000I0J200000D01*
G01*
X120675000Y-118125000D01*
G75*
G02*
X120875000Y-117925000I200000J0D01*
G01*
X121275000Y-117925000D01*
G75*
G02*
X121475000Y-118125000I0J-200000D01*
G01*
G37*
%TD*%
%TO.C,R10*%
G36*
G01*
X121475000Y-116525000D02*
X121475000Y-117075000D01*
G75*
G02*
X121275000Y-117275000I-200000J0D01*
G01*
X120875000Y-117275000D01*
G75*
G02*
X120675000Y-117075000I0J200000D01*
G01*
X120675000Y-116525000D01*
G75*
G02*
X120875000Y-116325000I200000J0D01*
G01*
X121275000Y-116325000D01*
G75*
G02*
X121475000Y-116525000I0J-200000D01*
G01*
G37*
G36*
G01*
X123125000Y-116525000D02*
X123125000Y-117075000D01*
G75*
G02*
X122925000Y-117275000I-200000J0D01*
G01*
X122525000Y-117275000D01*
G75*
G02*
X122325000Y-117075000I0J200000D01*
G01*
X122325000Y-116525000D01*
G75*
G02*
X122525000Y-116325000I200000J0D01*
G01*
X122925000Y-116325000D01*
G75*
G02*
X123125000Y-116525000I0J-200000D01*
G01*
G37*
%TD*%
%TO.C,R11*%
G36*
G01*
X140775000Y-129275000D02*
X140775000Y-128725000D01*
G75*
G02*
X140975000Y-128525000I200000J0D01*
G01*
X141375000Y-128525000D01*
G75*
G02*
X141575000Y-128725000I0J-200000D01*
G01*
X141575000Y-129275000D01*
G75*
G02*
X141375000Y-129475000I-200000J0D01*
G01*
X140975000Y-129475000D01*
G75*
G02*
X140775000Y-129275000I0J200000D01*
G01*
G37*
G36*
G01*
X142425000Y-129275000D02*
X142425000Y-128725000D01*
G75*
G02*
X142625000Y-128525000I200000J0D01*
G01*
X143025000Y-128525000D01*
G75*
G02*
X143225000Y-128725000I0J-200000D01*
G01*
X143225000Y-129275000D01*
G75*
G02*
X143025000Y-129475000I-200000J0D01*
G01*
X142625000Y-129475000D01*
G75*
G02*
X142425000Y-129275000I0J200000D01*
G01*
G37*
%TD*%
%TO.C,R12*%
G36*
G01*
X141575000Y-130325000D02*
X141575000Y-130875000D01*
G75*
G02*
X141375000Y-131075000I-200000J0D01*
G01*
X140975000Y-131075000D01*
G75*
G02*
X140775000Y-130875000I0J200000D01*
G01*
X140775000Y-130325000D01*
G75*
G02*
X140975000Y-130125000I200000J0D01*
G01*
X141375000Y-130125000D01*
G75*
G02*
X141575000Y-130325000I0J-200000D01*
G01*
G37*
G36*
G01*
X143225000Y-130325000D02*
X143225000Y-130875000D01*
G75*
G02*
X143025000Y-131075000I-200000J0D01*
G01*
X142625000Y-131075000D01*
G75*
G02*
X142425000Y-130875000I0J200000D01*
G01*
X142425000Y-130325000D01*
G75*
G02*
X142625000Y-130125000I200000J0D01*
G01*
X143025000Y-130125000D01*
G75*
G02*
X143225000Y-130325000I0J-200000D01*
G01*
G37*
%TD*%
%TO.C,R13*%
G36*
G01*
X123125000Y-119725000D02*
X123125000Y-120275000D01*
G75*
G02*
X122925000Y-120475000I-200000J0D01*
G01*
X122525000Y-120475000D01*
G75*
G02*
X122325000Y-120275000I0J200000D01*
G01*
X122325000Y-119725000D01*
G75*
G02*
X122525000Y-119525000I200000J0D01*
G01*
X122925000Y-119525000D01*
G75*
G02*
X123125000Y-119725000I0J-200000D01*
G01*
G37*
G36*
G01*
X121475000Y-119725000D02*
X121475000Y-120275000D01*
G75*
G02*
X121275000Y-120475000I-200000J0D01*
G01*
X120875000Y-120475000D01*
G75*
G02*
X120675000Y-120275000I0J200000D01*
G01*
X120675000Y-119725000D01*
G75*
G02*
X120875000Y-119525000I200000J0D01*
G01*
X121275000Y-119525000D01*
G75*
G02*
X121475000Y-119725000I0J-200000D01*
G01*
G37*
%TD*%
%TO.C,R14*%
G36*
G01*
X132825000Y-109025000D02*
X133375000Y-109025000D01*
G75*
G02*
X133575000Y-109225000I0J-200000D01*
G01*
X133575000Y-109625000D01*
G75*
G02*
X133375000Y-109825000I-200000J0D01*
G01*
X132825000Y-109825000D01*
G75*
G02*
X132625000Y-109625000I0J200000D01*
G01*
X132625000Y-109225000D01*
G75*
G02*
X132825000Y-109025000I200000J0D01*
G01*
G37*
G36*
G01*
X132825000Y-107375000D02*
X133375000Y-107375000D01*
G75*
G02*
X133575000Y-107575000I0J-200000D01*
G01*
X133575000Y-107975000D01*
G75*
G02*
X133375000Y-108175000I-200000J0D01*
G01*
X132825000Y-108175000D01*
G75*
G02*
X132625000Y-107975000I0J200000D01*
G01*
X132625000Y-107575000D01*
G75*
G02*
X132825000Y-107375000I200000J0D01*
G01*
G37*
%TD*%
%TO.C,R16*%
G36*
G01*
X134425000Y-107375000D02*
X134975000Y-107375000D01*
G75*
G02*
X135175000Y-107575000I0J-200000D01*
G01*
X135175000Y-107975000D01*
G75*
G02*
X134975000Y-108175000I-200000J0D01*
G01*
X134425000Y-108175000D01*
G75*
G02*
X134225000Y-107975000I0J200000D01*
G01*
X134225000Y-107575000D01*
G75*
G02*
X134425000Y-107375000I200000J0D01*
G01*
G37*
G36*
G01*
X134425000Y-109025000D02*
X134975000Y-109025000D01*
G75*
G02*
X135175000Y-109225000I0J-200000D01*
G01*
X135175000Y-109625000D01*
G75*
G02*
X134975000Y-109825000I-200000J0D01*
G01*
X134425000Y-109825000D01*
G75*
G02*
X134225000Y-109625000I0J200000D01*
G01*
X134225000Y-109225000D01*
G75*
G02*
X134425000Y-109025000I200000J0D01*
G01*
G37*
%TD*%
%TO.C,R18*%
G36*
G01*
X135175000Y-128525000D02*
X135175000Y-129075000D01*
G75*
G02*
X134975000Y-129275000I-200000J0D01*
G01*
X134575000Y-129275000D01*
G75*
G02*
X134375000Y-129075000I0J200000D01*
G01*
X134375000Y-128525000D01*
G75*
G02*
X134575000Y-128325000I200000J0D01*
G01*
X134975000Y-128325000D01*
G75*
G02*
X135175000Y-128525000I0J-200000D01*
G01*
G37*
G36*
G01*
X136825000Y-128525000D02*
X136825000Y-129075000D01*
G75*
G02*
X136625000Y-129275000I-200000J0D01*
G01*
X136225000Y-129275000D01*
G75*
G02*
X136025000Y-129075000I0J200000D01*
G01*
X136025000Y-128525000D01*
G75*
G02*
X136225000Y-128325000I200000J0D01*
G01*
X136625000Y-128325000D01*
G75*
G02*
X136825000Y-128525000I0J-200000D01*
G01*
G37*
%TD*%
%TO.C,R21*%
G36*
G01*
X162175000Y-104425000D02*
X161625000Y-104425000D01*
G75*
G02*
X161425000Y-104225000I0J200000D01*
G01*
X161425000Y-103825000D01*
G75*
G02*
X161625000Y-103625000I200000J0D01*
G01*
X162175000Y-103625000D01*
G75*
G02*
X162375000Y-103825000I0J-200000D01*
G01*
X162375000Y-104225000D01*
G75*
G02*
X162175000Y-104425000I-200000J0D01*
G01*
G37*
G36*
G01*
X162175000Y-102775000D02*
X161625000Y-102775000D01*
G75*
G02*
X161425000Y-102575000I0J200000D01*
G01*
X161425000Y-102175000D01*
G75*
G02*
X161625000Y-101975000I200000J0D01*
G01*
X162175000Y-101975000D01*
G75*
G02*
X162375000Y-102175000I0J-200000D01*
G01*
X162375000Y-102575000D01*
G75*
G02*
X162175000Y-102775000I-200000J0D01*
G01*
G37*
%TD*%
%TO.C,R22*%
G36*
G01*
X134125000Y-112725000D02*
X134675000Y-112725000D01*
G75*
G02*
X134875000Y-112925000I0J-200000D01*
G01*
X134875000Y-113325000D01*
G75*
G02*
X134675000Y-113525000I-200000J0D01*
G01*
X134125000Y-113525000D01*
G75*
G02*
X133925000Y-113325000I0J200000D01*
G01*
X133925000Y-112925000D01*
G75*
G02*
X134125000Y-112725000I200000J0D01*
G01*
G37*
G36*
G01*
X134125000Y-111075000D02*
X134675000Y-111075000D01*
G75*
G02*
X134875000Y-111275000I0J-200000D01*
G01*
X134875000Y-111675000D01*
G75*
G02*
X134675000Y-111875000I-200000J0D01*
G01*
X134125000Y-111875000D01*
G75*
G02*
X133925000Y-111675000I0J200000D01*
G01*
X133925000Y-111275000D01*
G75*
G02*
X134125000Y-111075000I200000J0D01*
G01*
G37*
%TD*%
%TO.C,R23*%
G36*
G01*
X120525000Y-126425000D02*
X121075000Y-126425000D01*
G75*
G02*
X121275000Y-126625000I0J-200000D01*
G01*
X121275000Y-127025000D01*
G75*
G02*
X121075000Y-127225000I-200000J0D01*
G01*
X120525000Y-127225000D01*
G75*
G02*
X120325000Y-127025000I0J200000D01*
G01*
X120325000Y-126625000D01*
G75*
G02*
X120525000Y-126425000I200000J0D01*
G01*
G37*
G36*
G01*
X120525000Y-124775000D02*
X121075000Y-124775000D01*
G75*
G02*
X121275000Y-124975000I0J-200000D01*
G01*
X121275000Y-125375000D01*
G75*
G02*
X121075000Y-125575000I-200000J0D01*
G01*
X120525000Y-125575000D01*
G75*
G02*
X120325000Y-125375000I0J200000D01*
G01*
X120325000Y-124975000D01*
G75*
G02*
X120525000Y-124775000I200000J0D01*
G01*
G37*
%TD*%
%TO.C,R24*%
G36*
G01*
X166775000Y-129275000D02*
X166225000Y-129275000D01*
G75*
G02*
X166025000Y-129075000I0J200000D01*
G01*
X166025000Y-128675000D01*
G75*
G02*
X166225000Y-128475000I200000J0D01*
G01*
X166775000Y-128475000D01*
G75*
G02*
X166975000Y-128675000I0J-200000D01*
G01*
X166975000Y-129075000D01*
G75*
G02*
X166775000Y-129275000I-200000J0D01*
G01*
G37*
G36*
G01*
X166775000Y-130925000D02*
X166225000Y-130925000D01*
G75*
G02*
X166025000Y-130725000I0J200000D01*
G01*
X166025000Y-130325000D01*
G75*
G02*
X166225000Y-130125000I200000J0D01*
G01*
X166775000Y-130125000D01*
G75*
G02*
X166975000Y-130325000I0J-200000D01*
G01*
X166975000Y-130725000D01*
G75*
G02*
X166775000Y-130925000I-200000J0D01*
G01*
G37*
%TD*%
D12*
%TO.C,U2*%
X107000000Y-110750000D03*
D13*
X107000000Y-104450000D03*
X109300000Y-104450000D03*
X104700000Y-104450000D03*
%TD*%
D12*
%TO.C,U3*%
X107000000Y-119650000D03*
D13*
X107000000Y-113350000D03*
X109300000Y-113350000D03*
X104700000Y-113350000D03*
%TD*%
%TO.C,U4*%
X104700000Y-122300000D03*
X109300000Y-122300000D03*
X107000000Y-122300000D03*
D12*
X107000000Y-128600000D03*
%TD*%
D14*
%TO.C,U8*%
X164050000Y-114190000D03*
X165000000Y-114190000D03*
X165950000Y-114190000D03*
X165950000Y-116810000D03*
X164050000Y-116810000D03*
%TD*%
%TO.C,C6*%
G36*
G01*
X111349999Y-106400000D02*
X112650001Y-106400000D01*
G75*
G02*
X112900000Y-106649999I0J-249999D01*
G01*
X112900000Y-107300001D01*
G75*
G02*
X112650001Y-107550000I-249999J0D01*
G01*
X111349999Y-107550000D01*
G75*
G02*
X111100000Y-107300001I0J249999D01*
G01*
X111100000Y-106649999D01*
G75*
G02*
X111349999Y-106400000I249999J0D01*
G01*
G37*
G36*
G01*
X111349999Y-103450000D02*
X112650001Y-103450000D01*
G75*
G02*
X112900000Y-103699999I0J-249999D01*
G01*
X112900000Y-104350001D01*
G75*
G02*
X112650001Y-104600000I-249999J0D01*
G01*
X111349999Y-104600000D01*
G75*
G02*
X111100000Y-104350001I0J249999D01*
G01*
X111100000Y-103699999D01*
G75*
G02*
X111349999Y-103450000I249999J0D01*
G01*
G37*
%TD*%
%TO.C,C7*%
G36*
G01*
X111349999Y-112350000D02*
X112650001Y-112350000D01*
G75*
G02*
X112900000Y-112599999I0J-249999D01*
G01*
X112900000Y-113250001D01*
G75*
G02*
X112650001Y-113500000I-249999J0D01*
G01*
X111349999Y-113500000D01*
G75*
G02*
X111100000Y-113250001I0J249999D01*
G01*
X111100000Y-112599999D01*
G75*
G02*
X111349999Y-112350000I249999J0D01*
G01*
G37*
G36*
G01*
X111349999Y-115300000D02*
X112650001Y-115300000D01*
G75*
G02*
X112900000Y-115549999I0J-249999D01*
G01*
X112900000Y-116200001D01*
G75*
G02*
X112650001Y-116450000I-249999J0D01*
G01*
X111349999Y-116450000D01*
G75*
G02*
X111100000Y-116200001I0J249999D01*
G01*
X111100000Y-115549999D01*
G75*
G02*
X111349999Y-115300000I249999J0D01*
G01*
G37*
%TD*%
%TO.C,C8*%
G36*
G01*
X111349999Y-121950000D02*
X112650001Y-121950000D01*
G75*
G02*
X112900000Y-122199999I0J-249999D01*
G01*
X112900000Y-122850001D01*
G75*
G02*
X112650001Y-123100000I-249999J0D01*
G01*
X111349999Y-123100000D01*
G75*
G02*
X111100000Y-122850001I0J249999D01*
G01*
X111100000Y-122199999D01*
G75*
G02*
X111349999Y-121950000I249999J0D01*
G01*
G37*
G36*
G01*
X111349999Y-124900000D02*
X112650001Y-124900000D01*
G75*
G02*
X112900000Y-125149999I0J-249999D01*
G01*
X112900000Y-125800001D01*
G75*
G02*
X112650001Y-126050000I-249999J0D01*
G01*
X111349999Y-126050000D01*
G75*
G02*
X111100000Y-125800001I0J249999D01*
G01*
X111100000Y-125149999D01*
G75*
G02*
X111349999Y-124900000I249999J0D01*
G01*
G37*
%TD*%
%TO.C,C21*%
G36*
G01*
X168075000Y-103700000D02*
X167125000Y-103700000D01*
G75*
G02*
X166875000Y-103450000I0J250000D01*
G01*
X166875000Y-102950000D01*
G75*
G02*
X167125000Y-102700000I250000J0D01*
G01*
X168075000Y-102700000D01*
G75*
G02*
X168325000Y-102950000I0J-250000D01*
G01*
X168325000Y-103450000D01*
G75*
G02*
X168075000Y-103700000I-250000J0D01*
G01*
G37*
G36*
G01*
X168075000Y-105600000D02*
X167125000Y-105600000D01*
G75*
G02*
X166875000Y-105350000I0J250000D01*
G01*
X166875000Y-104850000D01*
G75*
G02*
X167125000Y-104600000I250000J0D01*
G01*
X168075000Y-104600000D01*
G75*
G02*
X168325000Y-104850000I0J-250000D01*
G01*
X168325000Y-105350000D01*
G75*
G02*
X168075000Y-105600000I-250000J0D01*
G01*
G37*
%TD*%
%TO.C,C24*%
G36*
G01*
X166150000Y-107325000D02*
X166150000Y-108275000D01*
G75*
G02*
X165900000Y-108525000I-250000J0D01*
G01*
X165400000Y-108525000D01*
G75*
G02*
X165150000Y-108275000I0J250000D01*
G01*
X165150000Y-107325000D01*
G75*
G02*
X165400000Y-107075000I250000J0D01*
G01*
X165900000Y-107075000D01*
G75*
G02*
X166150000Y-107325000I0J-250000D01*
G01*
G37*
G36*
G01*
X164250000Y-107325000D02*
X164250000Y-108275000D01*
G75*
G02*
X164000000Y-108525000I-250000J0D01*
G01*
X163500000Y-108525000D01*
G75*
G02*
X163250000Y-108275000I0J250000D01*
G01*
X163250000Y-107325000D01*
G75*
G02*
X163500000Y-107075000I250000J0D01*
G01*
X164000000Y-107075000D01*
G75*
G02*
X164250000Y-107325000I0J-250000D01*
G01*
G37*
%TD*%
%TO.C,C30*%
G36*
G01*
X161425000Y-124350000D02*
X162375000Y-124350000D01*
G75*
G02*
X162625000Y-124600000I0J-250000D01*
G01*
X162625000Y-125100000D01*
G75*
G02*
X162375000Y-125350000I-250000J0D01*
G01*
X161425000Y-125350000D01*
G75*
G02*
X161175000Y-125100000I0J250000D01*
G01*
X161175000Y-124600000D01*
G75*
G02*
X161425000Y-124350000I250000J0D01*
G01*
G37*
G36*
G01*
X161425000Y-126250000D02*
X162375000Y-126250000D01*
G75*
G02*
X162625000Y-126500000I0J-250000D01*
G01*
X162625000Y-127000000D01*
G75*
G02*
X162375000Y-127250000I-250000J0D01*
G01*
X161425000Y-127250000D01*
G75*
G02*
X161175000Y-127000000I0J250000D01*
G01*
X161175000Y-126500000D01*
G75*
G02*
X161425000Y-126250000I250000J0D01*
G01*
G37*
%TD*%
D15*
%TO.C,J3*%
X174960000Y-107790000D03*
X174960000Y-102710000D03*
X180040000Y-102710000D03*
X180040000Y-107790000D03*
D16*
X177500000Y-105250000D03*
%TD*%
D15*
%TO.C,J4*%
X174960000Y-128040000D03*
X174960000Y-122960000D03*
X180040000Y-122960000D03*
X180040000Y-128040000D03*
D16*
X177500000Y-125500000D03*
%TD*%
%TO.C,J5*%
X177500000Y-115500000D03*
D15*
X180040000Y-118040000D03*
X180040000Y-112960000D03*
X174960000Y-112960000D03*
X174960000Y-118040000D03*
%TD*%
D17*
%TO.C,J6*%
X136800000Y-135000000D03*
D18*
X136800000Y-133730000D03*
X138070000Y-135000000D03*
X138070000Y-133730000D03*
X139340000Y-135000000D03*
X139340000Y-133730000D03*
X140610000Y-135000000D03*
X140610000Y-133730000D03*
X141880000Y-135000000D03*
X141880000Y-133730000D03*
%TD*%
D19*
%TO.C,H1*%
X105000000Y-96500000D03*
%TD*%
%TO.C,H2*%
X105000000Y-134500000D03*
%TD*%
%TO.C,H3*%
X198000000Y-134500000D03*
%TD*%
%TO.C,H4*%
X198000000Y-96500000D03*
%TD*%
D20*
%TO.C,TP1*%
X138200000Y-96400000D03*
%TD*%
%TO.C,TP2*%
X134200000Y-96400000D03*
%TD*%
%TO.C,TP3*%
X130200000Y-96400000D03*
%TD*%
%TO.C,TP4*%
X126200000Y-96400000D03*
%TD*%
%TO.C,TP5*%
X142200000Y-96400000D03*
%TD*%
%TO.C,TP6*%
X123600000Y-134400000D03*
%TD*%
%TO.C,TP7*%
X155300000Y-134400000D03*
%TD*%
%TO.C,TP8*%
X131600000Y-134400000D03*
%TD*%
%TO.C,TP9*%
X127600000Y-134400000D03*
%TD*%
%TO.C,TP10*%
X118000000Y-116500000D03*
%TD*%
%TO.C,TP12*%
X177500000Y-97000000D03*
%TD*%
%TO.C,TP13*%
X177500000Y-133600000D03*
%TD*%
D17*
%TO.C,D7*%
X167600000Y-106750000D03*
X167600000Y-109250000D03*
%TD*%
%TO.C,D8*%
X161900000Y-120750000D03*
X161900000Y-123250000D03*
%TD*%
%TO.C,R2*%
G36*
G01*
X124775000Y-111475000D02*
X124775000Y-110925000D01*
G75*
G02*
X124975000Y-110725000I200000J0D01*
G01*
X125375000Y-110725000D01*
G75*
G02*
X125575000Y-110925000I0J-200000D01*
G01*
X125575000Y-111475000D01*
G75*
G02*
X125375000Y-111675000I-200000J0D01*
G01*
X124975000Y-111675000D01*
G75*
G02*
X124775000Y-111475000I0J200000D01*
G01*
G37*
G36*
G01*
X126425000Y-111475000D02*
X126425000Y-110925000D01*
G75*
G02*
X126625000Y-110725000I200000J0D01*
G01*
X127025000Y-110725000D01*
G75*
G02*
X127225000Y-110925000I0J-200000D01*
G01*
X127225000Y-111475000D01*
G75*
G02*
X127025000Y-111675000I-200000J0D01*
G01*
X126625000Y-111675000D01*
G75*
G02*
X126425000Y-111475000I0J200000D01*
G01*
G37*
%TD*%
%TO.C,R5*%
G36*
G01*
X124775000Y-112975000D02*
X124775000Y-112425000D01*
G75*
G02*
X124975000Y-112225000I200000J0D01*
G01*
X125375000Y-112225000D01*
G75*
G02*
X125575000Y-112425000I0J-200000D01*
G01*
X125575000Y-112975000D01*
G75*
G02*
X125375000Y-113175000I-200000J0D01*
G01*
X124975000Y-113175000D01*
G75*
G02*
X124775000Y-112975000I0J200000D01*
G01*
G37*
G36*
G01*
X126425000Y-112975000D02*
X126425000Y-112425000D01*
G75*
G02*
X126625000Y-112225000I200000J0D01*
G01*
X127025000Y-112225000D01*
G75*
G02*
X127225000Y-112425000I0J-200000D01*
G01*
X127225000Y-112975000D01*
G75*
G02*
X127025000Y-113175000I-200000J0D01*
G01*
X126625000Y-113175000D01*
G75*
G02*
X126425000Y-112975000I0J200000D01*
G01*
G37*
%TD*%
%TO.C,R26*%
G36*
G01*
X124675000Y-115000000D02*
X124125000Y-115000000D01*
G75*
G02*
X123925000Y-114800000I0J200000D01*
G01*
X123925000Y-114400000D01*
G75*
G02*
X124125000Y-114200000I200000J0D01*
G01*
X124675000Y-114200000D01*
G75*
G02*
X124875000Y-114400000I0J-200000D01*
G01*
X124875000Y-114800000D01*
G75*
G02*
X124675000Y-115000000I-200000J0D01*
G01*
G37*
G36*
G01*
X124675000Y-116650000D02*
X124125000Y-116650000D01*
G75*
G02*
X123925000Y-116450000I0J200000D01*
G01*
X123925000Y-116050000D01*
G75*
G02*
X124125000Y-115850000I200000J0D01*
G01*
X124675000Y-115850000D01*
G75*
G02*
X124875000Y-116050000I0J-200000D01*
G01*
X124875000Y-116450000D01*
G75*
G02*
X124675000Y-116650000I-200000J0D01*
G01*
G37*
%TD*%
M02*
