%TF.GenerationSoftware,KiCad,Pcbnew,(5.1.8)-1*%
%TF.CreationDate,2020-11-17T00:45:18-08:00*%
%TF.ProjectId,WPT_TX,5750545f-5458-42e6-9b69-6361645f7063,rev?*%
%TF.SameCoordinates,Original*%
%TF.FileFunction,Legend,Bot*%
%TF.FilePolarity,Positive*%
%FSLAX46Y46*%
G04 Gerber Fmt 4.6, Leading zero omitted, Abs format (unit mm)*
G04 Created by KiCad (PCBNEW (5.1.8)-1) date 2020-11-17 00:45:18*
%MOMM*%
%LPD*%
G01*
G04 APERTURE LIST*
%ADD10C,0.152400*%
%ADD11C,0.120000*%
%ADD12C,0.125000*%
G04 APERTURE END LIST*
D10*
%TO.C,U10*%
X162499999Y-106400001D02*
X162499999Y-106099999D01*
X162499999Y-106400001D02*
X162699999Y-106400001D01*
X162499999Y-102300001D02*
X162499999Y-101999999D01*
X162499999Y-101999999D02*
X162699999Y-101999999D01*
X166900001Y-106404999D02*
X166900001Y-105500000D01*
X166700001Y-106404999D02*
X166900001Y-106404999D01*
X166700001Y-101999999D02*
X166900001Y-101999999D01*
X166900001Y-102300001D02*
X166900001Y-101999999D01*
%TO.C,U13*%
X167200001Y-123299999D02*
X167200001Y-123600001D01*
X167200001Y-123299999D02*
X167000001Y-123299999D01*
X167200001Y-127399999D02*
X167200001Y-127700001D01*
X167200001Y-127700001D02*
X167000001Y-127700001D01*
X162799999Y-123295001D02*
X162799999Y-124200000D01*
X162999999Y-123295001D02*
X162799999Y-123295001D01*
X162999999Y-127700001D02*
X162799999Y-127700001D01*
X162799999Y-127399999D02*
X162799999Y-127700001D01*
D11*
%TO.C,C1*%
X101990000Y-104559420D02*
X101990000Y-104840580D01*
X103010000Y-104559420D02*
X103010000Y-104840580D01*
%TO.C,C2*%
X103010000Y-113459420D02*
X103010000Y-113740580D01*
X101990000Y-113459420D02*
X101990000Y-113740580D01*
%TO.C,C3*%
X101990000Y-122384420D02*
X101990000Y-122665580D01*
X103010000Y-122384420D02*
X103010000Y-122665580D01*
%TO.C,C4*%
X121359420Y-109390000D02*
X121640580Y-109390000D01*
X121359420Y-110410000D02*
X121640580Y-110410000D01*
%TO.C,C5*%
X130240580Y-108090000D02*
X129959420Y-108090000D01*
X130240580Y-109110000D02*
X129959420Y-109110000D01*
%TO.C,C9*%
X121359420Y-110990000D02*
X121640580Y-110990000D01*
X121359420Y-112010000D02*
X121640580Y-112010000D01*
%TO.C,C11*%
X126759420Y-114090000D02*
X127040580Y-114090000D01*
X126759420Y-115110000D02*
X127040580Y-115110000D01*
%TO.C,C12*%
X141859420Y-127710000D02*
X142140580Y-127710000D01*
X141859420Y-126690000D02*
X142140580Y-126690000D01*
%TO.C,C13*%
X141859420Y-123890000D02*
X142140580Y-123890000D01*
X141859420Y-124910000D02*
X142140580Y-124910000D01*
%TO.C,C14*%
X141859420Y-119240000D02*
X142140580Y-119240000D01*
X141859420Y-120260000D02*
X142140580Y-120260000D01*
%TO.C,C15*%
X141859420Y-117490000D02*
X142140580Y-117490000D01*
X141859420Y-118510000D02*
X142140580Y-118510000D01*
%TO.C,C16*%
X162910000Y-115715580D02*
X162910000Y-115434420D01*
X161890000Y-115715580D02*
X161890000Y-115434420D01*
%TO.C,C17*%
X135459420Y-126690000D02*
X135740580Y-126690000D01*
X135459420Y-127710000D02*
X135740580Y-127710000D01*
%TO.C,C18*%
X135990000Y-117859420D02*
X135990000Y-118140580D01*
X137010000Y-117859420D02*
X137010000Y-118140580D01*
%TO.C,C19*%
X132359420Y-124510000D02*
X132640580Y-124510000D01*
X132359420Y-123490000D02*
X132640580Y-123490000D01*
%TO.C,C20*%
X135490000Y-124640580D02*
X135490000Y-124359420D01*
X136510000Y-124640580D02*
X136510000Y-124359420D01*
%TO.C,C22*%
X128259420Y-129890000D02*
X128540580Y-129890000D01*
X128259420Y-130910000D02*
X128540580Y-130910000D01*
%TO.C,C23*%
X128540580Y-128290000D02*
X128259420Y-128290000D01*
X128540580Y-129310000D02*
X128259420Y-129310000D01*
%TO.C,C25*%
X121434420Y-127890000D02*
X121715580Y-127890000D01*
X121434420Y-128910000D02*
X121715580Y-128910000D01*
%TO.C,C31*%
X118310000Y-126340580D02*
X118310000Y-126059420D01*
X117290000Y-126340580D02*
X117290000Y-126059420D01*
%TO.C,C32*%
X164888748Y-122535000D02*
X165411252Y-122535000D01*
X164888748Y-121065000D02*
X165411252Y-121065000D01*
%TO.C,C33*%
X138940580Y-128490000D02*
X138659420Y-128490000D01*
X138940580Y-129510000D02*
X138659420Y-129510000D01*
%TO.C,FB1*%
X141850378Y-122060000D02*
X142649622Y-122060000D01*
X141850378Y-120940000D02*
X142649622Y-120940000D01*
%TO.C,R1*%
X118477500Y-109837258D02*
X118477500Y-109362742D01*
X119522500Y-109837258D02*
X119522500Y-109362742D01*
%TO.C,R3*%
X126237258Y-109177500D02*
X125762742Y-109177500D01*
X126237258Y-110222500D02*
X125762742Y-110222500D01*
%TO.C,R7*%
X122137258Y-117877500D02*
X121662742Y-117877500D01*
X122137258Y-118922500D02*
X121662742Y-118922500D01*
%TO.C,R10*%
X122137258Y-117322500D02*
X121662742Y-117322500D01*
X122137258Y-116277500D02*
X121662742Y-116277500D01*
%TO.C,R11*%
X141762742Y-129522500D02*
X142237258Y-129522500D01*
X141762742Y-128477500D02*
X142237258Y-128477500D01*
%TO.C,R12*%
X142237258Y-131122500D02*
X141762742Y-131122500D01*
X142237258Y-130077500D02*
X141762742Y-130077500D01*
%TO.C,R13*%
X122137258Y-119477500D02*
X121662742Y-119477500D01*
X122137258Y-120522500D02*
X121662742Y-120522500D01*
%TO.C,R14*%
X133622500Y-108362742D02*
X133622500Y-108837258D01*
X132577500Y-108362742D02*
X132577500Y-108837258D01*
%TO.C,R16*%
X134177500Y-108362742D02*
X134177500Y-108837258D01*
X135222500Y-108362742D02*
X135222500Y-108837258D01*
%TO.C,R18*%
X135837258Y-129322500D02*
X135362742Y-129322500D01*
X135837258Y-128277500D02*
X135362742Y-128277500D01*
%TO.C,R21*%
X162422500Y-103437258D02*
X162422500Y-102962742D01*
X161377500Y-103437258D02*
X161377500Y-102962742D01*
%TO.C,R22*%
X134922500Y-112062742D02*
X134922500Y-112537258D01*
X133877500Y-112062742D02*
X133877500Y-112537258D01*
%TO.C,R23*%
X121322500Y-125762742D02*
X121322500Y-126237258D01*
X120277500Y-125762742D02*
X120277500Y-126237258D01*
%TO.C,R24*%
X165977500Y-129937258D02*
X165977500Y-129462742D01*
X167022500Y-129937258D02*
X167022500Y-129462742D01*
%TO.C,U2*%
X110410000Y-109510000D02*
X109150000Y-109510000D01*
X103590000Y-109510000D02*
X104850000Y-109510000D01*
X110410000Y-105750000D02*
X110410000Y-109510000D01*
X103590000Y-103500000D02*
X103590000Y-109510000D01*
%TO.C,U3*%
X110410000Y-118410000D02*
X109150000Y-118410000D01*
X103590000Y-118410000D02*
X104850000Y-118410000D01*
X110410000Y-114650000D02*
X110410000Y-118410000D01*
X103590000Y-112400000D02*
X103590000Y-118410000D01*
%TO.C,U4*%
X103590000Y-121350000D02*
X103590000Y-127360000D01*
X110410000Y-123600000D02*
X110410000Y-127360000D01*
X103590000Y-127360000D02*
X104850000Y-127360000D01*
X110410000Y-127360000D02*
X109150000Y-127360000D01*
%TO.C,U8*%
X166560000Y-114620000D02*
X166560000Y-116380000D01*
X163490000Y-116380000D02*
X163490000Y-113950000D01*
%TO.C,C6*%
X112910000Y-104788748D02*
X112910000Y-106211252D01*
X111090000Y-104788748D02*
X111090000Y-106211252D01*
%TO.C,C7*%
X111090000Y-113688748D02*
X111090000Y-115111252D01*
X112910000Y-113688748D02*
X112910000Y-115111252D01*
%TO.C,C8*%
X111090000Y-123288748D02*
X111090000Y-124711252D01*
X112910000Y-123288748D02*
X112910000Y-124711252D01*
%TO.C,C21*%
X166865000Y-104411252D02*
X166865000Y-103888748D01*
X168335000Y-104411252D02*
X168335000Y-103888748D01*
%TO.C,C24*%
X164961252Y-107065000D02*
X164438748Y-107065000D01*
X164961252Y-108535000D02*
X164438748Y-108535000D01*
%TO.C,C30*%
X161165000Y-125538748D02*
X161165000Y-126061252D01*
X162635000Y-125538748D02*
X162635000Y-126061252D01*
%TO.C,D7*%
X168450000Y-109900000D02*
X168450000Y-106750000D01*
X166750000Y-109900000D02*
X166750000Y-106750000D01*
X168450000Y-109900000D02*
X166750000Y-109900000D01*
%TO.C,D8*%
X161050000Y-120100000D02*
X162750000Y-120100000D01*
X162750000Y-120100000D02*
X162750000Y-123250000D01*
X161050000Y-120100000D02*
X161050000Y-123250000D01*
%TO.C,R2*%
X125762742Y-111722500D02*
X126237258Y-111722500D01*
X125762742Y-110677500D02*
X126237258Y-110677500D01*
%TO.C,R5*%
X125762742Y-113222500D02*
X126237258Y-113222500D01*
X125762742Y-112177500D02*
X126237258Y-112177500D01*
%TO.C,R26*%
X123877500Y-115662258D02*
X123877500Y-115187742D01*
X124922500Y-115662258D02*
X124922500Y-115187742D01*
%TO.C,U10*%
D12*
X166119047Y-100626190D02*
X166119047Y-101030952D01*
X166095238Y-101078571D01*
X166071428Y-101102380D01*
X166023809Y-101126190D01*
X165928571Y-101126190D01*
X165880952Y-101102380D01*
X165857142Y-101078571D01*
X165833333Y-101030952D01*
X165833333Y-100626190D01*
X165333333Y-101126190D02*
X165619047Y-101126190D01*
X165476190Y-101126190D02*
X165476190Y-100626190D01*
X165523809Y-100697619D01*
X165571428Y-100745238D01*
X165619047Y-100769047D01*
X165023809Y-100626190D02*
X164976190Y-100626190D01*
X164928571Y-100650000D01*
X164904761Y-100673809D01*
X164880952Y-100721428D01*
X164857142Y-100816666D01*
X164857142Y-100935714D01*
X164880952Y-101030952D01*
X164904761Y-101078571D01*
X164928571Y-101102380D01*
X164976190Y-101126190D01*
X165023809Y-101126190D01*
X165071428Y-101102380D01*
X165095238Y-101078571D01*
X165119047Y-101030952D01*
X165142857Y-100935714D01*
X165142857Y-100816666D01*
X165119047Y-100721428D01*
X165095238Y-100673809D01*
X165071428Y-100650000D01*
X165023809Y-100626190D01*
%TO.C,U13*%
X165619047Y-128326190D02*
X165619047Y-128730952D01*
X165595238Y-128778571D01*
X165571428Y-128802380D01*
X165523809Y-128826190D01*
X165428571Y-128826190D01*
X165380952Y-128802380D01*
X165357142Y-128778571D01*
X165333333Y-128730952D01*
X165333333Y-128326190D01*
X164833333Y-128826190D02*
X165119047Y-128826190D01*
X164976190Y-128826190D02*
X164976190Y-128326190D01*
X165023809Y-128397619D01*
X165071428Y-128445238D01*
X165119047Y-128469047D01*
X164666666Y-128326190D02*
X164357142Y-128326190D01*
X164523809Y-128516666D01*
X164452380Y-128516666D01*
X164404761Y-128540476D01*
X164380952Y-128564285D01*
X164357142Y-128611904D01*
X164357142Y-128730952D01*
X164380952Y-128778571D01*
X164404761Y-128802380D01*
X164452380Y-128826190D01*
X164595238Y-128826190D01*
X164642857Y-128802380D01*
X164666666Y-128778571D01*
%TO.C,C1*%
X102583333Y-107078571D02*
X102607142Y-107102380D01*
X102678571Y-107126190D01*
X102726190Y-107126190D01*
X102797619Y-107102380D01*
X102845238Y-107054761D01*
X102869047Y-107007142D01*
X102892857Y-106911904D01*
X102892857Y-106840476D01*
X102869047Y-106745238D01*
X102845238Y-106697619D01*
X102797619Y-106650000D01*
X102726190Y-106626190D01*
X102678571Y-106626190D01*
X102607142Y-106650000D01*
X102583333Y-106673809D01*
X102107142Y-107126190D02*
X102392857Y-107126190D01*
X102250000Y-107126190D02*
X102250000Y-106626190D01*
X102297619Y-106697619D01*
X102345238Y-106745238D01*
X102392857Y-106769047D01*
%TO.C,C2*%
X102583333Y-111778571D02*
X102607142Y-111802380D01*
X102678571Y-111826190D01*
X102726190Y-111826190D01*
X102797619Y-111802380D01*
X102845238Y-111754761D01*
X102869047Y-111707142D01*
X102892857Y-111611904D01*
X102892857Y-111540476D01*
X102869047Y-111445238D01*
X102845238Y-111397619D01*
X102797619Y-111350000D01*
X102726190Y-111326190D01*
X102678571Y-111326190D01*
X102607142Y-111350000D01*
X102583333Y-111373809D01*
X102392857Y-111373809D02*
X102369047Y-111350000D01*
X102321428Y-111326190D01*
X102202380Y-111326190D01*
X102154761Y-111350000D01*
X102130952Y-111373809D01*
X102107142Y-111421428D01*
X102107142Y-111469047D01*
X102130952Y-111540476D01*
X102416666Y-111826190D01*
X102107142Y-111826190D01*
%TO.C,C3*%
X102583333Y-120778571D02*
X102607142Y-120802380D01*
X102678571Y-120826190D01*
X102726190Y-120826190D01*
X102797619Y-120802380D01*
X102845238Y-120754761D01*
X102869047Y-120707142D01*
X102892857Y-120611904D01*
X102892857Y-120540476D01*
X102869047Y-120445238D01*
X102845238Y-120397619D01*
X102797619Y-120350000D01*
X102726190Y-120326190D01*
X102678571Y-120326190D01*
X102607142Y-120350000D01*
X102583333Y-120373809D01*
X102416666Y-120326190D02*
X102107142Y-120326190D01*
X102273809Y-120516666D01*
X102202380Y-120516666D01*
X102154761Y-120540476D01*
X102130952Y-120564285D01*
X102107142Y-120611904D01*
X102107142Y-120730952D01*
X102130952Y-120778571D01*
X102154761Y-120802380D01*
X102202380Y-120826190D01*
X102345238Y-120826190D01*
X102392857Y-120802380D01*
X102416666Y-120778571D01*
%TO.C,C4*%
X123783333Y-110178571D02*
X123807142Y-110202380D01*
X123878571Y-110226190D01*
X123926190Y-110226190D01*
X123997619Y-110202380D01*
X124045238Y-110154761D01*
X124069047Y-110107142D01*
X124092857Y-110011904D01*
X124092857Y-109940476D01*
X124069047Y-109845238D01*
X124045238Y-109797619D01*
X123997619Y-109750000D01*
X123926190Y-109726190D01*
X123878571Y-109726190D01*
X123807142Y-109750000D01*
X123783333Y-109773809D01*
X123354761Y-109892857D02*
X123354761Y-110226190D01*
X123473809Y-109702380D02*
X123592857Y-110059523D01*
X123283333Y-110059523D01*
%TO.C,C5*%
X130183333Y-107348571D02*
X130207142Y-107372380D01*
X130278571Y-107396190D01*
X130326190Y-107396190D01*
X130397619Y-107372380D01*
X130445238Y-107324761D01*
X130469047Y-107277142D01*
X130492857Y-107181904D01*
X130492857Y-107110476D01*
X130469047Y-107015238D01*
X130445238Y-106967619D01*
X130397619Y-106920000D01*
X130326190Y-106896190D01*
X130278571Y-106896190D01*
X130207142Y-106920000D01*
X130183333Y-106943809D01*
X129730952Y-106896190D02*
X129969047Y-106896190D01*
X129992857Y-107134285D01*
X129969047Y-107110476D01*
X129921428Y-107086666D01*
X129802380Y-107086666D01*
X129754761Y-107110476D01*
X129730952Y-107134285D01*
X129707142Y-107181904D01*
X129707142Y-107300952D01*
X129730952Y-107348571D01*
X129754761Y-107372380D01*
X129802380Y-107396190D01*
X129921428Y-107396190D01*
X129969047Y-107372380D01*
X129992857Y-107348571D01*
%TO.C,C9*%
X123783333Y-111978571D02*
X123807142Y-112002380D01*
X123878571Y-112026190D01*
X123926190Y-112026190D01*
X123997619Y-112002380D01*
X124045238Y-111954761D01*
X124069047Y-111907142D01*
X124092857Y-111811904D01*
X124092857Y-111740476D01*
X124069047Y-111645238D01*
X124045238Y-111597619D01*
X123997619Y-111550000D01*
X123926190Y-111526190D01*
X123878571Y-111526190D01*
X123807142Y-111550000D01*
X123783333Y-111573809D01*
X123545238Y-112026190D02*
X123450000Y-112026190D01*
X123402380Y-112002380D01*
X123378571Y-111978571D01*
X123330952Y-111907142D01*
X123307142Y-111811904D01*
X123307142Y-111621428D01*
X123330952Y-111573809D01*
X123354761Y-111550000D01*
X123402380Y-111526190D01*
X123497619Y-111526190D01*
X123545238Y-111550000D01*
X123569047Y-111573809D01*
X123592857Y-111621428D01*
X123592857Y-111740476D01*
X123569047Y-111788095D01*
X123545238Y-111811904D01*
X123497619Y-111835714D01*
X123402380Y-111835714D01*
X123354761Y-111811904D01*
X123330952Y-111788095D01*
X123307142Y-111740476D01*
%TO.C,C11*%
X129621428Y-114778571D02*
X129645238Y-114802380D01*
X129716666Y-114826190D01*
X129764285Y-114826190D01*
X129835714Y-114802380D01*
X129883333Y-114754761D01*
X129907142Y-114707142D01*
X129930952Y-114611904D01*
X129930952Y-114540476D01*
X129907142Y-114445238D01*
X129883333Y-114397619D01*
X129835714Y-114350000D01*
X129764285Y-114326190D01*
X129716666Y-114326190D01*
X129645238Y-114350000D01*
X129621428Y-114373809D01*
X129145238Y-114826190D02*
X129430952Y-114826190D01*
X129288095Y-114826190D02*
X129288095Y-114326190D01*
X129335714Y-114397619D01*
X129383333Y-114445238D01*
X129430952Y-114469047D01*
X128669047Y-114826190D02*
X128954761Y-114826190D01*
X128811904Y-114826190D02*
X128811904Y-114326190D01*
X128859523Y-114397619D01*
X128907142Y-114445238D01*
X128954761Y-114469047D01*
%TO.C,C12*%
X144921428Y-127278571D02*
X144945238Y-127302380D01*
X145016666Y-127326190D01*
X145064285Y-127326190D01*
X145135714Y-127302380D01*
X145183333Y-127254761D01*
X145207142Y-127207142D01*
X145230952Y-127111904D01*
X145230952Y-127040476D01*
X145207142Y-126945238D01*
X145183333Y-126897619D01*
X145135714Y-126850000D01*
X145064285Y-126826190D01*
X145016666Y-126826190D01*
X144945238Y-126850000D01*
X144921428Y-126873809D01*
X144445238Y-127326190D02*
X144730952Y-127326190D01*
X144588095Y-127326190D02*
X144588095Y-126826190D01*
X144635714Y-126897619D01*
X144683333Y-126945238D01*
X144730952Y-126969047D01*
X144254761Y-126873809D02*
X144230952Y-126850000D01*
X144183333Y-126826190D01*
X144064285Y-126826190D01*
X144016666Y-126850000D01*
X143992857Y-126873809D01*
X143969047Y-126921428D01*
X143969047Y-126969047D01*
X143992857Y-127040476D01*
X144278571Y-127326190D01*
X143969047Y-127326190D01*
%TO.C,C13*%
X144921428Y-124678571D02*
X144945238Y-124702380D01*
X145016666Y-124726190D01*
X145064285Y-124726190D01*
X145135714Y-124702380D01*
X145183333Y-124654761D01*
X145207142Y-124607142D01*
X145230952Y-124511904D01*
X145230952Y-124440476D01*
X145207142Y-124345238D01*
X145183333Y-124297619D01*
X145135714Y-124250000D01*
X145064285Y-124226190D01*
X145016666Y-124226190D01*
X144945238Y-124250000D01*
X144921428Y-124273809D01*
X144445238Y-124726190D02*
X144730952Y-124726190D01*
X144588095Y-124726190D02*
X144588095Y-124226190D01*
X144635714Y-124297619D01*
X144683333Y-124345238D01*
X144730952Y-124369047D01*
X144278571Y-124226190D02*
X143969047Y-124226190D01*
X144135714Y-124416666D01*
X144064285Y-124416666D01*
X144016666Y-124440476D01*
X143992857Y-124464285D01*
X143969047Y-124511904D01*
X143969047Y-124630952D01*
X143992857Y-124678571D01*
X144016666Y-124702380D01*
X144064285Y-124726190D01*
X144207142Y-124726190D01*
X144254761Y-124702380D01*
X144278571Y-124678571D01*
%TO.C,C14*%
X145121428Y-119878571D02*
X145145238Y-119902380D01*
X145216666Y-119926190D01*
X145264285Y-119926190D01*
X145335714Y-119902380D01*
X145383333Y-119854761D01*
X145407142Y-119807142D01*
X145430952Y-119711904D01*
X145430952Y-119640476D01*
X145407142Y-119545238D01*
X145383333Y-119497619D01*
X145335714Y-119450000D01*
X145264285Y-119426190D01*
X145216666Y-119426190D01*
X145145238Y-119450000D01*
X145121428Y-119473809D01*
X144645238Y-119926190D02*
X144930952Y-119926190D01*
X144788095Y-119926190D02*
X144788095Y-119426190D01*
X144835714Y-119497619D01*
X144883333Y-119545238D01*
X144930952Y-119569047D01*
X144216666Y-119592857D02*
X144216666Y-119926190D01*
X144335714Y-119402380D02*
X144454761Y-119759523D01*
X144145238Y-119759523D01*
%TO.C,C15*%
X144921428Y-118178571D02*
X144945238Y-118202380D01*
X145016666Y-118226190D01*
X145064285Y-118226190D01*
X145135714Y-118202380D01*
X145183333Y-118154761D01*
X145207142Y-118107142D01*
X145230952Y-118011904D01*
X145230952Y-117940476D01*
X145207142Y-117845238D01*
X145183333Y-117797619D01*
X145135714Y-117750000D01*
X145064285Y-117726190D01*
X145016666Y-117726190D01*
X144945238Y-117750000D01*
X144921428Y-117773809D01*
X144445238Y-118226190D02*
X144730952Y-118226190D01*
X144588095Y-118226190D02*
X144588095Y-117726190D01*
X144635714Y-117797619D01*
X144683333Y-117845238D01*
X144730952Y-117869047D01*
X143992857Y-117726190D02*
X144230952Y-117726190D01*
X144254761Y-117964285D01*
X144230952Y-117940476D01*
X144183333Y-117916666D01*
X144064285Y-117916666D01*
X144016666Y-117940476D01*
X143992857Y-117964285D01*
X143969047Y-118011904D01*
X143969047Y-118130952D01*
X143992857Y-118178571D01*
X144016666Y-118202380D01*
X144064285Y-118226190D01*
X144183333Y-118226190D01*
X144230952Y-118202380D01*
X144254761Y-118178571D01*
%TO.C,C16*%
X162721428Y-113778571D02*
X162745238Y-113802380D01*
X162816666Y-113826190D01*
X162864285Y-113826190D01*
X162935714Y-113802380D01*
X162983333Y-113754761D01*
X163007142Y-113707142D01*
X163030952Y-113611904D01*
X163030952Y-113540476D01*
X163007142Y-113445238D01*
X162983333Y-113397619D01*
X162935714Y-113350000D01*
X162864285Y-113326190D01*
X162816666Y-113326190D01*
X162745238Y-113350000D01*
X162721428Y-113373809D01*
X162245238Y-113826190D02*
X162530952Y-113826190D01*
X162388095Y-113826190D02*
X162388095Y-113326190D01*
X162435714Y-113397619D01*
X162483333Y-113445238D01*
X162530952Y-113469047D01*
X161816666Y-113326190D02*
X161911904Y-113326190D01*
X161959523Y-113350000D01*
X161983333Y-113373809D01*
X162030952Y-113445238D01*
X162054761Y-113540476D01*
X162054761Y-113730952D01*
X162030952Y-113778571D01*
X162007142Y-113802380D01*
X161959523Y-113826190D01*
X161864285Y-113826190D01*
X161816666Y-113802380D01*
X161792857Y-113778571D01*
X161769047Y-113730952D01*
X161769047Y-113611904D01*
X161792857Y-113564285D01*
X161816666Y-113540476D01*
X161864285Y-113516666D01*
X161959523Y-113516666D01*
X162007142Y-113540476D01*
X162030952Y-113564285D01*
X162054761Y-113611904D01*
%TO.C,C17*%
X133621428Y-127478571D02*
X133645238Y-127502380D01*
X133716666Y-127526190D01*
X133764285Y-127526190D01*
X133835714Y-127502380D01*
X133883333Y-127454761D01*
X133907142Y-127407142D01*
X133930952Y-127311904D01*
X133930952Y-127240476D01*
X133907142Y-127145238D01*
X133883333Y-127097619D01*
X133835714Y-127050000D01*
X133764285Y-127026190D01*
X133716666Y-127026190D01*
X133645238Y-127050000D01*
X133621428Y-127073809D01*
X133145238Y-127526190D02*
X133430952Y-127526190D01*
X133288095Y-127526190D02*
X133288095Y-127026190D01*
X133335714Y-127097619D01*
X133383333Y-127145238D01*
X133430952Y-127169047D01*
X132978571Y-127026190D02*
X132645238Y-127026190D01*
X132859523Y-127526190D01*
%TO.C,C18*%
X136721428Y-120178571D02*
X136745238Y-120202380D01*
X136816666Y-120226190D01*
X136864285Y-120226190D01*
X136935714Y-120202380D01*
X136983333Y-120154761D01*
X137007142Y-120107142D01*
X137030952Y-120011904D01*
X137030952Y-119940476D01*
X137007142Y-119845238D01*
X136983333Y-119797619D01*
X136935714Y-119750000D01*
X136864285Y-119726190D01*
X136816666Y-119726190D01*
X136745238Y-119750000D01*
X136721428Y-119773809D01*
X136245238Y-120226190D02*
X136530952Y-120226190D01*
X136388095Y-120226190D02*
X136388095Y-119726190D01*
X136435714Y-119797619D01*
X136483333Y-119845238D01*
X136530952Y-119869047D01*
X135959523Y-119940476D02*
X136007142Y-119916666D01*
X136030952Y-119892857D01*
X136054761Y-119845238D01*
X136054761Y-119821428D01*
X136030952Y-119773809D01*
X136007142Y-119750000D01*
X135959523Y-119726190D01*
X135864285Y-119726190D01*
X135816666Y-119750000D01*
X135792857Y-119773809D01*
X135769047Y-119821428D01*
X135769047Y-119845238D01*
X135792857Y-119892857D01*
X135816666Y-119916666D01*
X135864285Y-119940476D01*
X135959523Y-119940476D01*
X136007142Y-119964285D01*
X136030952Y-119988095D01*
X136054761Y-120035714D01*
X136054761Y-120130952D01*
X136030952Y-120178571D01*
X136007142Y-120202380D01*
X135959523Y-120226190D01*
X135864285Y-120226190D01*
X135816666Y-120202380D01*
X135792857Y-120178571D01*
X135769047Y-120130952D01*
X135769047Y-120035714D01*
X135792857Y-119988095D01*
X135816666Y-119964285D01*
X135864285Y-119940476D01*
%TO.C,C19*%
X130521428Y-124078571D02*
X130545238Y-124102380D01*
X130616666Y-124126190D01*
X130664285Y-124126190D01*
X130735714Y-124102380D01*
X130783333Y-124054761D01*
X130807142Y-124007142D01*
X130830952Y-123911904D01*
X130830952Y-123840476D01*
X130807142Y-123745238D01*
X130783333Y-123697619D01*
X130735714Y-123650000D01*
X130664285Y-123626190D01*
X130616666Y-123626190D01*
X130545238Y-123650000D01*
X130521428Y-123673809D01*
X130045238Y-124126190D02*
X130330952Y-124126190D01*
X130188095Y-124126190D02*
X130188095Y-123626190D01*
X130235714Y-123697619D01*
X130283333Y-123745238D01*
X130330952Y-123769047D01*
X129807142Y-124126190D02*
X129711904Y-124126190D01*
X129664285Y-124102380D01*
X129640476Y-124078571D01*
X129592857Y-124007142D01*
X129569047Y-123911904D01*
X129569047Y-123721428D01*
X129592857Y-123673809D01*
X129616666Y-123650000D01*
X129664285Y-123626190D01*
X129759523Y-123626190D01*
X129807142Y-123650000D01*
X129830952Y-123673809D01*
X129854761Y-123721428D01*
X129854761Y-123840476D01*
X129830952Y-123888095D01*
X129807142Y-123911904D01*
X129759523Y-123935714D01*
X129664285Y-123935714D01*
X129616666Y-123911904D01*
X129592857Y-123888095D01*
X129569047Y-123840476D01*
%TO.C,C20*%
X136321428Y-122978571D02*
X136345238Y-123002380D01*
X136416666Y-123026190D01*
X136464285Y-123026190D01*
X136535714Y-123002380D01*
X136583333Y-122954761D01*
X136607142Y-122907142D01*
X136630952Y-122811904D01*
X136630952Y-122740476D01*
X136607142Y-122645238D01*
X136583333Y-122597619D01*
X136535714Y-122550000D01*
X136464285Y-122526190D01*
X136416666Y-122526190D01*
X136345238Y-122550000D01*
X136321428Y-122573809D01*
X136130952Y-122573809D02*
X136107142Y-122550000D01*
X136059523Y-122526190D01*
X135940476Y-122526190D01*
X135892857Y-122550000D01*
X135869047Y-122573809D01*
X135845238Y-122621428D01*
X135845238Y-122669047D01*
X135869047Y-122740476D01*
X136154761Y-123026190D01*
X135845238Y-123026190D01*
X135535714Y-122526190D02*
X135488095Y-122526190D01*
X135440476Y-122550000D01*
X135416666Y-122573809D01*
X135392857Y-122621428D01*
X135369047Y-122716666D01*
X135369047Y-122835714D01*
X135392857Y-122930952D01*
X135416666Y-122978571D01*
X135440476Y-123002380D01*
X135488095Y-123026190D01*
X135535714Y-123026190D01*
X135583333Y-123002380D01*
X135607142Y-122978571D01*
X135630952Y-122930952D01*
X135654761Y-122835714D01*
X135654761Y-122716666D01*
X135630952Y-122621428D01*
X135607142Y-122573809D01*
X135583333Y-122550000D01*
X135535714Y-122526190D01*
%TO.C,C22*%
X131421428Y-130678571D02*
X131445238Y-130702380D01*
X131516666Y-130726190D01*
X131564285Y-130726190D01*
X131635714Y-130702380D01*
X131683333Y-130654761D01*
X131707142Y-130607142D01*
X131730952Y-130511904D01*
X131730952Y-130440476D01*
X131707142Y-130345238D01*
X131683333Y-130297619D01*
X131635714Y-130250000D01*
X131564285Y-130226190D01*
X131516666Y-130226190D01*
X131445238Y-130250000D01*
X131421428Y-130273809D01*
X131230952Y-130273809D02*
X131207142Y-130250000D01*
X131159523Y-130226190D01*
X131040476Y-130226190D01*
X130992857Y-130250000D01*
X130969047Y-130273809D01*
X130945238Y-130321428D01*
X130945238Y-130369047D01*
X130969047Y-130440476D01*
X131254761Y-130726190D01*
X130945238Y-130726190D01*
X130754761Y-130273809D02*
X130730952Y-130250000D01*
X130683333Y-130226190D01*
X130564285Y-130226190D01*
X130516666Y-130250000D01*
X130492857Y-130273809D01*
X130469047Y-130321428D01*
X130469047Y-130369047D01*
X130492857Y-130440476D01*
X130778571Y-130726190D01*
X130469047Y-130726190D01*
%TO.C,C23*%
X131421428Y-128978571D02*
X131445238Y-129002380D01*
X131516666Y-129026190D01*
X131564285Y-129026190D01*
X131635714Y-129002380D01*
X131683333Y-128954761D01*
X131707142Y-128907142D01*
X131730952Y-128811904D01*
X131730952Y-128740476D01*
X131707142Y-128645238D01*
X131683333Y-128597619D01*
X131635714Y-128550000D01*
X131564285Y-128526190D01*
X131516666Y-128526190D01*
X131445238Y-128550000D01*
X131421428Y-128573809D01*
X131230952Y-128573809D02*
X131207142Y-128550000D01*
X131159523Y-128526190D01*
X131040476Y-128526190D01*
X130992857Y-128550000D01*
X130969047Y-128573809D01*
X130945238Y-128621428D01*
X130945238Y-128669047D01*
X130969047Y-128740476D01*
X131254761Y-129026190D01*
X130945238Y-129026190D01*
X130778571Y-128526190D02*
X130469047Y-128526190D01*
X130635714Y-128716666D01*
X130564285Y-128716666D01*
X130516666Y-128740476D01*
X130492857Y-128764285D01*
X130469047Y-128811904D01*
X130469047Y-128930952D01*
X130492857Y-128978571D01*
X130516666Y-129002380D01*
X130564285Y-129026190D01*
X130707142Y-129026190D01*
X130754761Y-129002380D01*
X130778571Y-128978571D01*
%TO.C,C25*%
X121121428Y-129778571D02*
X121145238Y-129802380D01*
X121216666Y-129826190D01*
X121264285Y-129826190D01*
X121335714Y-129802380D01*
X121383333Y-129754761D01*
X121407142Y-129707142D01*
X121430952Y-129611904D01*
X121430952Y-129540476D01*
X121407142Y-129445238D01*
X121383333Y-129397619D01*
X121335714Y-129350000D01*
X121264285Y-129326190D01*
X121216666Y-129326190D01*
X121145238Y-129350000D01*
X121121428Y-129373809D01*
X120930952Y-129373809D02*
X120907142Y-129350000D01*
X120859523Y-129326190D01*
X120740476Y-129326190D01*
X120692857Y-129350000D01*
X120669047Y-129373809D01*
X120645238Y-129421428D01*
X120645238Y-129469047D01*
X120669047Y-129540476D01*
X120954761Y-129826190D01*
X120645238Y-129826190D01*
X120192857Y-129326190D02*
X120430952Y-129326190D01*
X120454761Y-129564285D01*
X120430952Y-129540476D01*
X120383333Y-129516666D01*
X120264285Y-129516666D01*
X120216666Y-129540476D01*
X120192857Y-129564285D01*
X120169047Y-129611904D01*
X120169047Y-129730952D01*
X120192857Y-129778571D01*
X120216666Y-129802380D01*
X120264285Y-129826190D01*
X120383333Y-129826190D01*
X120430952Y-129802380D01*
X120454761Y-129778571D01*
%TO.C,C31*%
X119408571Y-125878571D02*
X119432380Y-125854761D01*
X119456190Y-125783333D01*
X119456190Y-125735714D01*
X119432380Y-125664285D01*
X119384761Y-125616666D01*
X119337142Y-125592857D01*
X119241904Y-125569047D01*
X119170476Y-125569047D01*
X119075238Y-125592857D01*
X119027619Y-125616666D01*
X118980000Y-125664285D01*
X118956190Y-125735714D01*
X118956190Y-125783333D01*
X118980000Y-125854761D01*
X119003809Y-125878571D01*
X118956190Y-126045238D02*
X118956190Y-126354761D01*
X119146666Y-126188095D01*
X119146666Y-126259523D01*
X119170476Y-126307142D01*
X119194285Y-126330952D01*
X119241904Y-126354761D01*
X119360952Y-126354761D01*
X119408571Y-126330952D01*
X119432380Y-126307142D01*
X119456190Y-126259523D01*
X119456190Y-126116666D01*
X119432380Y-126069047D01*
X119408571Y-126045238D01*
X119456190Y-126830952D02*
X119456190Y-126545238D01*
X119456190Y-126688095D02*
X118956190Y-126688095D01*
X119027619Y-126640476D01*
X119075238Y-126592857D01*
X119099047Y-126545238D01*
%TO.C,C32*%
X165421428Y-120578571D02*
X165445238Y-120602380D01*
X165516666Y-120626190D01*
X165564285Y-120626190D01*
X165635714Y-120602380D01*
X165683333Y-120554761D01*
X165707142Y-120507142D01*
X165730952Y-120411904D01*
X165730952Y-120340476D01*
X165707142Y-120245238D01*
X165683333Y-120197619D01*
X165635714Y-120150000D01*
X165564285Y-120126190D01*
X165516666Y-120126190D01*
X165445238Y-120150000D01*
X165421428Y-120173809D01*
X165254761Y-120126190D02*
X164945238Y-120126190D01*
X165111904Y-120316666D01*
X165040476Y-120316666D01*
X164992857Y-120340476D01*
X164969047Y-120364285D01*
X164945238Y-120411904D01*
X164945238Y-120530952D01*
X164969047Y-120578571D01*
X164992857Y-120602380D01*
X165040476Y-120626190D01*
X165183333Y-120626190D01*
X165230952Y-120602380D01*
X165254761Y-120578571D01*
X164754761Y-120173809D02*
X164730952Y-120150000D01*
X164683333Y-120126190D01*
X164564285Y-120126190D01*
X164516666Y-120150000D01*
X164492857Y-120173809D01*
X164469047Y-120221428D01*
X164469047Y-120269047D01*
X164492857Y-120340476D01*
X164778571Y-120626190D01*
X164469047Y-120626190D01*
%TO.C,C33*%
X139121428Y-127978571D02*
X139145238Y-128002380D01*
X139216666Y-128026190D01*
X139264285Y-128026190D01*
X139335714Y-128002380D01*
X139383333Y-127954761D01*
X139407142Y-127907142D01*
X139430952Y-127811904D01*
X139430952Y-127740476D01*
X139407142Y-127645238D01*
X139383333Y-127597619D01*
X139335714Y-127550000D01*
X139264285Y-127526190D01*
X139216666Y-127526190D01*
X139145238Y-127550000D01*
X139121428Y-127573809D01*
X138954761Y-127526190D02*
X138645238Y-127526190D01*
X138811904Y-127716666D01*
X138740476Y-127716666D01*
X138692857Y-127740476D01*
X138669047Y-127764285D01*
X138645238Y-127811904D01*
X138645238Y-127930952D01*
X138669047Y-127978571D01*
X138692857Y-128002380D01*
X138740476Y-128026190D01*
X138883333Y-128026190D01*
X138930952Y-128002380D01*
X138954761Y-127978571D01*
X138478571Y-127526190D02*
X138169047Y-127526190D01*
X138335714Y-127716666D01*
X138264285Y-127716666D01*
X138216666Y-127740476D01*
X138192857Y-127764285D01*
X138169047Y-127811904D01*
X138169047Y-127930952D01*
X138192857Y-127978571D01*
X138216666Y-128002380D01*
X138264285Y-128026190D01*
X138407142Y-128026190D01*
X138454761Y-128002380D01*
X138478571Y-127978571D01*
%TO.C,FB1*%
X145316666Y-121464285D02*
X145483333Y-121464285D01*
X145483333Y-121726190D02*
X145483333Y-121226190D01*
X145245238Y-121226190D01*
X144888095Y-121464285D02*
X144816666Y-121488095D01*
X144792857Y-121511904D01*
X144769047Y-121559523D01*
X144769047Y-121630952D01*
X144792857Y-121678571D01*
X144816666Y-121702380D01*
X144864285Y-121726190D01*
X145054761Y-121726190D01*
X145054761Y-121226190D01*
X144888095Y-121226190D01*
X144840476Y-121250000D01*
X144816666Y-121273809D01*
X144792857Y-121321428D01*
X144792857Y-121369047D01*
X144816666Y-121416666D01*
X144840476Y-121440476D01*
X144888095Y-121464285D01*
X145054761Y-121464285D01*
X144292857Y-121726190D02*
X144578571Y-121726190D01*
X144435714Y-121726190D02*
X144435714Y-121226190D01*
X144483333Y-121297619D01*
X144530952Y-121345238D01*
X144578571Y-121369047D01*
%TO.C,R1*%
X119283333Y-111926190D02*
X119450000Y-111688095D01*
X119569047Y-111926190D02*
X119569047Y-111426190D01*
X119378571Y-111426190D01*
X119330952Y-111450000D01*
X119307142Y-111473809D01*
X119283333Y-111521428D01*
X119283333Y-111592857D01*
X119307142Y-111640476D01*
X119330952Y-111664285D01*
X119378571Y-111688095D01*
X119569047Y-111688095D01*
X118807142Y-111926190D02*
X119092857Y-111926190D01*
X118950000Y-111926190D02*
X118950000Y-111426190D01*
X118997619Y-111497619D01*
X119045238Y-111545238D01*
X119092857Y-111569047D01*
%TO.C,R3*%
X128383333Y-109926190D02*
X128550000Y-109688095D01*
X128669047Y-109926190D02*
X128669047Y-109426190D01*
X128478571Y-109426190D01*
X128430952Y-109450000D01*
X128407142Y-109473809D01*
X128383333Y-109521428D01*
X128383333Y-109592857D01*
X128407142Y-109640476D01*
X128430952Y-109664285D01*
X128478571Y-109688095D01*
X128669047Y-109688095D01*
X128216666Y-109426190D02*
X127907142Y-109426190D01*
X128073809Y-109616666D01*
X128002380Y-109616666D01*
X127954761Y-109640476D01*
X127930952Y-109664285D01*
X127907142Y-109711904D01*
X127907142Y-109830952D01*
X127930952Y-109878571D01*
X127954761Y-109902380D01*
X128002380Y-109926190D01*
X128145238Y-109926190D01*
X128192857Y-109902380D01*
X128216666Y-109878571D01*
%TO.C,R7*%
X124483333Y-118626190D02*
X124650000Y-118388095D01*
X124769047Y-118626190D02*
X124769047Y-118126190D01*
X124578571Y-118126190D01*
X124530952Y-118150000D01*
X124507142Y-118173809D01*
X124483333Y-118221428D01*
X124483333Y-118292857D01*
X124507142Y-118340476D01*
X124530952Y-118364285D01*
X124578571Y-118388095D01*
X124769047Y-118388095D01*
X124316666Y-118126190D02*
X123983333Y-118126190D01*
X124197619Y-118626190D01*
%TO.C,R10*%
X122421428Y-115826190D02*
X122588095Y-115588095D01*
X122707142Y-115826190D02*
X122707142Y-115326190D01*
X122516666Y-115326190D01*
X122469047Y-115350000D01*
X122445238Y-115373809D01*
X122421428Y-115421428D01*
X122421428Y-115492857D01*
X122445238Y-115540476D01*
X122469047Y-115564285D01*
X122516666Y-115588095D01*
X122707142Y-115588095D01*
X121945238Y-115826190D02*
X122230952Y-115826190D01*
X122088095Y-115826190D02*
X122088095Y-115326190D01*
X122135714Y-115397619D01*
X122183333Y-115445238D01*
X122230952Y-115469047D01*
X121635714Y-115326190D02*
X121588095Y-115326190D01*
X121540476Y-115350000D01*
X121516666Y-115373809D01*
X121492857Y-115421428D01*
X121469047Y-115516666D01*
X121469047Y-115635714D01*
X121492857Y-115730952D01*
X121516666Y-115778571D01*
X121540476Y-115802380D01*
X121588095Y-115826190D01*
X121635714Y-115826190D01*
X121683333Y-115802380D01*
X121707142Y-115778571D01*
X121730952Y-115730952D01*
X121754761Y-115635714D01*
X121754761Y-115516666D01*
X121730952Y-115421428D01*
X121707142Y-115373809D01*
X121683333Y-115350000D01*
X121635714Y-115326190D01*
%TO.C,R11*%
X144821428Y-129226190D02*
X144988095Y-128988095D01*
X145107142Y-129226190D02*
X145107142Y-128726190D01*
X144916666Y-128726190D01*
X144869047Y-128750000D01*
X144845238Y-128773809D01*
X144821428Y-128821428D01*
X144821428Y-128892857D01*
X144845238Y-128940476D01*
X144869047Y-128964285D01*
X144916666Y-128988095D01*
X145107142Y-128988095D01*
X144345238Y-129226190D02*
X144630952Y-129226190D01*
X144488095Y-129226190D02*
X144488095Y-128726190D01*
X144535714Y-128797619D01*
X144583333Y-128845238D01*
X144630952Y-128869047D01*
X143869047Y-129226190D02*
X144154761Y-129226190D01*
X144011904Y-129226190D02*
X144011904Y-128726190D01*
X144059523Y-128797619D01*
X144107142Y-128845238D01*
X144154761Y-128869047D01*
%TO.C,R12*%
X144921428Y-130826190D02*
X145088095Y-130588095D01*
X145207142Y-130826190D02*
X145207142Y-130326190D01*
X145016666Y-130326190D01*
X144969047Y-130350000D01*
X144945238Y-130373809D01*
X144921428Y-130421428D01*
X144921428Y-130492857D01*
X144945238Y-130540476D01*
X144969047Y-130564285D01*
X145016666Y-130588095D01*
X145207142Y-130588095D01*
X144445238Y-130826190D02*
X144730952Y-130826190D01*
X144588095Y-130826190D02*
X144588095Y-130326190D01*
X144635714Y-130397619D01*
X144683333Y-130445238D01*
X144730952Y-130469047D01*
X144254761Y-130373809D02*
X144230952Y-130350000D01*
X144183333Y-130326190D01*
X144064285Y-130326190D01*
X144016666Y-130350000D01*
X143992857Y-130373809D01*
X143969047Y-130421428D01*
X143969047Y-130469047D01*
X143992857Y-130540476D01*
X144278571Y-130826190D01*
X143969047Y-130826190D01*
%TO.C,R13*%
X124821428Y-120126190D02*
X124988095Y-119888095D01*
X125107142Y-120126190D02*
X125107142Y-119626190D01*
X124916666Y-119626190D01*
X124869047Y-119650000D01*
X124845238Y-119673809D01*
X124821428Y-119721428D01*
X124821428Y-119792857D01*
X124845238Y-119840476D01*
X124869047Y-119864285D01*
X124916666Y-119888095D01*
X125107142Y-119888095D01*
X124345238Y-120126190D02*
X124630952Y-120126190D01*
X124488095Y-120126190D02*
X124488095Y-119626190D01*
X124535714Y-119697619D01*
X124583333Y-119745238D01*
X124630952Y-119769047D01*
X124178571Y-119626190D02*
X123869047Y-119626190D01*
X124035714Y-119816666D01*
X123964285Y-119816666D01*
X123916666Y-119840476D01*
X123892857Y-119864285D01*
X123869047Y-119911904D01*
X123869047Y-120030952D01*
X123892857Y-120078571D01*
X123916666Y-120102380D01*
X123964285Y-120126190D01*
X124107142Y-120126190D01*
X124154761Y-120102380D01*
X124178571Y-120078571D01*
%TO.C,R14*%
X133321428Y-106926190D02*
X133488095Y-106688095D01*
X133607142Y-106926190D02*
X133607142Y-106426190D01*
X133416666Y-106426190D01*
X133369047Y-106450000D01*
X133345238Y-106473809D01*
X133321428Y-106521428D01*
X133321428Y-106592857D01*
X133345238Y-106640476D01*
X133369047Y-106664285D01*
X133416666Y-106688095D01*
X133607142Y-106688095D01*
X132845238Y-106926190D02*
X133130952Y-106926190D01*
X132988095Y-106926190D02*
X132988095Y-106426190D01*
X133035714Y-106497619D01*
X133083333Y-106545238D01*
X133130952Y-106569047D01*
X132416666Y-106592857D02*
X132416666Y-106926190D01*
X132535714Y-106402380D02*
X132654761Y-106759523D01*
X132345238Y-106759523D01*
%TO.C,R16*%
X135021428Y-106826190D02*
X135188095Y-106588095D01*
X135307142Y-106826190D02*
X135307142Y-106326190D01*
X135116666Y-106326190D01*
X135069047Y-106350000D01*
X135045238Y-106373809D01*
X135021428Y-106421428D01*
X135021428Y-106492857D01*
X135045238Y-106540476D01*
X135069047Y-106564285D01*
X135116666Y-106588095D01*
X135307142Y-106588095D01*
X134545238Y-106826190D02*
X134830952Y-106826190D01*
X134688095Y-106826190D02*
X134688095Y-106326190D01*
X134735714Y-106397619D01*
X134783333Y-106445238D01*
X134830952Y-106469047D01*
X134116666Y-106326190D02*
X134211904Y-106326190D01*
X134259523Y-106350000D01*
X134283333Y-106373809D01*
X134330952Y-106445238D01*
X134354761Y-106540476D01*
X134354761Y-106730952D01*
X134330952Y-106778571D01*
X134307142Y-106802380D01*
X134259523Y-106826190D01*
X134164285Y-106826190D01*
X134116666Y-106802380D01*
X134092857Y-106778571D01*
X134069047Y-106730952D01*
X134069047Y-106611904D01*
X134092857Y-106564285D01*
X134116666Y-106540476D01*
X134164285Y-106516666D01*
X134259523Y-106516666D01*
X134307142Y-106540476D01*
X134330952Y-106564285D01*
X134354761Y-106611904D01*
%TO.C,R18*%
X133621428Y-129026190D02*
X133788095Y-128788095D01*
X133907142Y-129026190D02*
X133907142Y-128526190D01*
X133716666Y-128526190D01*
X133669047Y-128550000D01*
X133645238Y-128573809D01*
X133621428Y-128621428D01*
X133621428Y-128692857D01*
X133645238Y-128740476D01*
X133669047Y-128764285D01*
X133716666Y-128788095D01*
X133907142Y-128788095D01*
X133145238Y-129026190D02*
X133430952Y-129026190D01*
X133288095Y-129026190D02*
X133288095Y-128526190D01*
X133335714Y-128597619D01*
X133383333Y-128645238D01*
X133430952Y-128669047D01*
X132859523Y-128740476D02*
X132907142Y-128716666D01*
X132930952Y-128692857D01*
X132954761Y-128645238D01*
X132954761Y-128621428D01*
X132930952Y-128573809D01*
X132907142Y-128550000D01*
X132859523Y-128526190D01*
X132764285Y-128526190D01*
X132716666Y-128550000D01*
X132692857Y-128573809D01*
X132669047Y-128621428D01*
X132669047Y-128645238D01*
X132692857Y-128692857D01*
X132716666Y-128716666D01*
X132764285Y-128740476D01*
X132859523Y-128740476D01*
X132907142Y-128764285D01*
X132930952Y-128788095D01*
X132954761Y-128835714D01*
X132954761Y-128930952D01*
X132930952Y-128978571D01*
X132907142Y-129002380D01*
X132859523Y-129026190D01*
X132764285Y-129026190D01*
X132716666Y-129002380D01*
X132692857Y-128978571D01*
X132669047Y-128930952D01*
X132669047Y-128835714D01*
X132692857Y-128788095D01*
X132716666Y-128764285D01*
X132764285Y-128740476D01*
%TO.C,R21*%
X162221428Y-105326190D02*
X162388095Y-105088095D01*
X162507142Y-105326190D02*
X162507142Y-104826190D01*
X162316666Y-104826190D01*
X162269047Y-104850000D01*
X162245238Y-104873809D01*
X162221428Y-104921428D01*
X162221428Y-104992857D01*
X162245238Y-105040476D01*
X162269047Y-105064285D01*
X162316666Y-105088095D01*
X162507142Y-105088095D01*
X162030952Y-104873809D02*
X162007142Y-104850000D01*
X161959523Y-104826190D01*
X161840476Y-104826190D01*
X161792857Y-104850000D01*
X161769047Y-104873809D01*
X161745238Y-104921428D01*
X161745238Y-104969047D01*
X161769047Y-105040476D01*
X162054761Y-105326190D01*
X161745238Y-105326190D01*
X161269047Y-105326190D02*
X161554761Y-105326190D01*
X161411904Y-105326190D02*
X161411904Y-104826190D01*
X161459523Y-104897619D01*
X161507142Y-104945238D01*
X161554761Y-104969047D01*
%TO.C,R22*%
X134821428Y-114526190D02*
X134988095Y-114288095D01*
X135107142Y-114526190D02*
X135107142Y-114026190D01*
X134916666Y-114026190D01*
X134869047Y-114050000D01*
X134845238Y-114073809D01*
X134821428Y-114121428D01*
X134821428Y-114192857D01*
X134845238Y-114240476D01*
X134869047Y-114264285D01*
X134916666Y-114288095D01*
X135107142Y-114288095D01*
X134630952Y-114073809D02*
X134607142Y-114050000D01*
X134559523Y-114026190D01*
X134440476Y-114026190D01*
X134392857Y-114050000D01*
X134369047Y-114073809D01*
X134345238Y-114121428D01*
X134345238Y-114169047D01*
X134369047Y-114240476D01*
X134654761Y-114526190D01*
X134345238Y-114526190D01*
X134154761Y-114073809D02*
X134130952Y-114050000D01*
X134083333Y-114026190D01*
X133964285Y-114026190D01*
X133916666Y-114050000D01*
X133892857Y-114073809D01*
X133869047Y-114121428D01*
X133869047Y-114169047D01*
X133892857Y-114240476D01*
X134178571Y-114526190D01*
X133869047Y-114526190D01*
%TO.C,R23*%
X122821428Y-125326190D02*
X122988095Y-125088095D01*
X123107142Y-125326190D02*
X123107142Y-124826190D01*
X122916666Y-124826190D01*
X122869047Y-124850000D01*
X122845238Y-124873809D01*
X122821428Y-124921428D01*
X122821428Y-124992857D01*
X122845238Y-125040476D01*
X122869047Y-125064285D01*
X122916666Y-125088095D01*
X123107142Y-125088095D01*
X122630952Y-124873809D02*
X122607142Y-124850000D01*
X122559523Y-124826190D01*
X122440476Y-124826190D01*
X122392857Y-124850000D01*
X122369047Y-124873809D01*
X122345238Y-124921428D01*
X122345238Y-124969047D01*
X122369047Y-125040476D01*
X122654761Y-125326190D01*
X122345238Y-125326190D01*
X122178571Y-124826190D02*
X121869047Y-124826190D01*
X122035714Y-125016666D01*
X121964285Y-125016666D01*
X121916666Y-125040476D01*
X121892857Y-125064285D01*
X121869047Y-125111904D01*
X121869047Y-125230952D01*
X121892857Y-125278571D01*
X121916666Y-125302380D01*
X121964285Y-125326190D01*
X122107142Y-125326190D01*
X122154761Y-125302380D01*
X122178571Y-125278571D01*
%TO.C,R24*%
X166821428Y-132026190D02*
X166988095Y-131788095D01*
X167107142Y-132026190D02*
X167107142Y-131526190D01*
X166916666Y-131526190D01*
X166869047Y-131550000D01*
X166845238Y-131573809D01*
X166821428Y-131621428D01*
X166821428Y-131692857D01*
X166845238Y-131740476D01*
X166869047Y-131764285D01*
X166916666Y-131788095D01*
X167107142Y-131788095D01*
X166630952Y-131573809D02*
X166607142Y-131550000D01*
X166559523Y-131526190D01*
X166440476Y-131526190D01*
X166392857Y-131550000D01*
X166369047Y-131573809D01*
X166345238Y-131621428D01*
X166345238Y-131669047D01*
X166369047Y-131740476D01*
X166654761Y-132026190D01*
X166345238Y-132026190D01*
X165916666Y-131692857D02*
X165916666Y-132026190D01*
X166035714Y-131502380D02*
X166154761Y-131859523D01*
X165845238Y-131859523D01*
%TO.C,U2*%
X104580952Y-109926190D02*
X104580952Y-110330952D01*
X104557142Y-110378571D01*
X104533333Y-110402380D01*
X104485714Y-110426190D01*
X104390476Y-110426190D01*
X104342857Y-110402380D01*
X104319047Y-110378571D01*
X104295238Y-110330952D01*
X104295238Y-109926190D01*
X104080952Y-109973809D02*
X104057142Y-109950000D01*
X104009523Y-109926190D01*
X103890476Y-109926190D01*
X103842857Y-109950000D01*
X103819047Y-109973809D01*
X103795238Y-110021428D01*
X103795238Y-110069047D01*
X103819047Y-110140476D01*
X104104761Y-110426190D01*
X103795238Y-110426190D01*
%TO.C,U3*%
X104680952Y-118826190D02*
X104680952Y-119230952D01*
X104657142Y-119278571D01*
X104633333Y-119302380D01*
X104585714Y-119326190D01*
X104490476Y-119326190D01*
X104442857Y-119302380D01*
X104419047Y-119278571D01*
X104395238Y-119230952D01*
X104395238Y-118826190D01*
X104204761Y-118826190D02*
X103895238Y-118826190D01*
X104061904Y-119016666D01*
X103990476Y-119016666D01*
X103942857Y-119040476D01*
X103919047Y-119064285D01*
X103895238Y-119111904D01*
X103895238Y-119230952D01*
X103919047Y-119278571D01*
X103942857Y-119302380D01*
X103990476Y-119326190D01*
X104133333Y-119326190D01*
X104180952Y-119302380D01*
X104204761Y-119278571D01*
%TO.C,U4*%
X104180952Y-127626190D02*
X104180952Y-128030952D01*
X104157142Y-128078571D01*
X104133333Y-128102380D01*
X104085714Y-128126190D01*
X103990476Y-128126190D01*
X103942857Y-128102380D01*
X103919047Y-128078571D01*
X103895238Y-128030952D01*
X103895238Y-127626190D01*
X103442857Y-127792857D02*
X103442857Y-128126190D01*
X103561904Y-127602380D02*
X103680952Y-127959523D01*
X103371428Y-127959523D01*
%TO.C,U8*%
X165380952Y-112626190D02*
X165380952Y-113030952D01*
X165357142Y-113078571D01*
X165333333Y-113102380D01*
X165285714Y-113126190D01*
X165190476Y-113126190D01*
X165142857Y-113102380D01*
X165119047Y-113078571D01*
X165095238Y-113030952D01*
X165095238Y-112626190D01*
X164785714Y-112840476D02*
X164833333Y-112816666D01*
X164857142Y-112792857D01*
X164880952Y-112745238D01*
X164880952Y-112721428D01*
X164857142Y-112673809D01*
X164833333Y-112650000D01*
X164785714Y-112626190D01*
X164690476Y-112626190D01*
X164642857Y-112650000D01*
X164619047Y-112673809D01*
X164595238Y-112721428D01*
X164595238Y-112745238D01*
X164619047Y-112792857D01*
X164642857Y-112816666D01*
X164690476Y-112840476D01*
X164785714Y-112840476D01*
X164833333Y-112864285D01*
X164857142Y-112888095D01*
X164880952Y-112935714D01*
X164880952Y-113030952D01*
X164857142Y-113078571D01*
X164833333Y-113102380D01*
X164785714Y-113126190D01*
X164690476Y-113126190D01*
X164642857Y-113102380D01*
X164619047Y-113078571D01*
X164595238Y-113030952D01*
X164595238Y-112935714D01*
X164619047Y-112888095D01*
X164642857Y-112864285D01*
X164690476Y-112840476D01*
%TO.C,C6*%
X112283333Y-102878571D02*
X112307142Y-102902380D01*
X112378571Y-102926190D01*
X112426190Y-102926190D01*
X112497619Y-102902380D01*
X112545238Y-102854761D01*
X112569047Y-102807142D01*
X112592857Y-102711904D01*
X112592857Y-102640476D01*
X112569047Y-102545238D01*
X112545238Y-102497619D01*
X112497619Y-102450000D01*
X112426190Y-102426190D01*
X112378571Y-102426190D01*
X112307142Y-102450000D01*
X112283333Y-102473809D01*
X111854761Y-102426190D02*
X111950000Y-102426190D01*
X111997619Y-102450000D01*
X112021428Y-102473809D01*
X112069047Y-102545238D01*
X112092857Y-102640476D01*
X112092857Y-102830952D01*
X112069047Y-102878571D01*
X112045238Y-102902380D01*
X111997619Y-102926190D01*
X111902380Y-102926190D01*
X111854761Y-102902380D01*
X111830952Y-102878571D01*
X111807142Y-102830952D01*
X111807142Y-102711904D01*
X111830952Y-102664285D01*
X111854761Y-102640476D01*
X111902380Y-102616666D01*
X111997619Y-102616666D01*
X112045238Y-102640476D01*
X112069047Y-102664285D01*
X112092857Y-102711904D01*
%TO.C,C7*%
X112083333Y-117478571D02*
X112107142Y-117502380D01*
X112178571Y-117526190D01*
X112226190Y-117526190D01*
X112297619Y-117502380D01*
X112345238Y-117454761D01*
X112369047Y-117407142D01*
X112392857Y-117311904D01*
X112392857Y-117240476D01*
X112369047Y-117145238D01*
X112345238Y-117097619D01*
X112297619Y-117050000D01*
X112226190Y-117026190D01*
X112178571Y-117026190D01*
X112107142Y-117050000D01*
X112083333Y-117073809D01*
X111916666Y-117026190D02*
X111583333Y-117026190D01*
X111797619Y-117526190D01*
%TO.C,C8*%
X112683333Y-126878571D02*
X112707142Y-126902380D01*
X112778571Y-126926190D01*
X112826190Y-126926190D01*
X112897619Y-126902380D01*
X112945238Y-126854761D01*
X112969047Y-126807142D01*
X112992857Y-126711904D01*
X112992857Y-126640476D01*
X112969047Y-126545238D01*
X112945238Y-126497619D01*
X112897619Y-126450000D01*
X112826190Y-126426190D01*
X112778571Y-126426190D01*
X112707142Y-126450000D01*
X112683333Y-126473809D01*
X112397619Y-126640476D02*
X112445238Y-126616666D01*
X112469047Y-126592857D01*
X112492857Y-126545238D01*
X112492857Y-126521428D01*
X112469047Y-126473809D01*
X112445238Y-126450000D01*
X112397619Y-126426190D01*
X112302380Y-126426190D01*
X112254761Y-126450000D01*
X112230952Y-126473809D01*
X112207142Y-126521428D01*
X112207142Y-126545238D01*
X112230952Y-126592857D01*
X112254761Y-126616666D01*
X112302380Y-126640476D01*
X112397619Y-126640476D01*
X112445238Y-126664285D01*
X112469047Y-126688095D01*
X112492857Y-126735714D01*
X112492857Y-126830952D01*
X112469047Y-126878571D01*
X112445238Y-126902380D01*
X112397619Y-126926190D01*
X112302380Y-126926190D01*
X112254761Y-126902380D01*
X112230952Y-126878571D01*
X112207142Y-126830952D01*
X112207142Y-126735714D01*
X112230952Y-126688095D01*
X112254761Y-126664285D01*
X112302380Y-126640476D01*
%TO.C,C21*%
X167921428Y-102278571D02*
X167945238Y-102302380D01*
X168016666Y-102326190D01*
X168064285Y-102326190D01*
X168135714Y-102302380D01*
X168183333Y-102254761D01*
X168207142Y-102207142D01*
X168230952Y-102111904D01*
X168230952Y-102040476D01*
X168207142Y-101945238D01*
X168183333Y-101897619D01*
X168135714Y-101850000D01*
X168064285Y-101826190D01*
X168016666Y-101826190D01*
X167945238Y-101850000D01*
X167921428Y-101873809D01*
X167730952Y-101873809D02*
X167707142Y-101850000D01*
X167659523Y-101826190D01*
X167540476Y-101826190D01*
X167492857Y-101850000D01*
X167469047Y-101873809D01*
X167445238Y-101921428D01*
X167445238Y-101969047D01*
X167469047Y-102040476D01*
X167754761Y-102326190D01*
X167445238Y-102326190D01*
X166969047Y-102326190D02*
X167254761Y-102326190D01*
X167111904Y-102326190D02*
X167111904Y-101826190D01*
X167159523Y-101897619D01*
X167207142Y-101945238D01*
X167254761Y-101969047D01*
%TO.C,C24*%
X165021428Y-109578571D02*
X165045238Y-109602380D01*
X165116666Y-109626190D01*
X165164285Y-109626190D01*
X165235714Y-109602380D01*
X165283333Y-109554761D01*
X165307142Y-109507142D01*
X165330952Y-109411904D01*
X165330952Y-109340476D01*
X165307142Y-109245238D01*
X165283333Y-109197619D01*
X165235714Y-109150000D01*
X165164285Y-109126190D01*
X165116666Y-109126190D01*
X165045238Y-109150000D01*
X165021428Y-109173809D01*
X164830952Y-109173809D02*
X164807142Y-109150000D01*
X164759523Y-109126190D01*
X164640476Y-109126190D01*
X164592857Y-109150000D01*
X164569047Y-109173809D01*
X164545238Y-109221428D01*
X164545238Y-109269047D01*
X164569047Y-109340476D01*
X164854761Y-109626190D01*
X164545238Y-109626190D01*
X164116666Y-109292857D02*
X164116666Y-109626190D01*
X164235714Y-109102380D02*
X164354761Y-109459523D01*
X164045238Y-109459523D01*
%TO.C,C30*%
X162021428Y-128278571D02*
X162045238Y-128302380D01*
X162116666Y-128326190D01*
X162164285Y-128326190D01*
X162235714Y-128302380D01*
X162283333Y-128254761D01*
X162307142Y-128207142D01*
X162330952Y-128111904D01*
X162330952Y-128040476D01*
X162307142Y-127945238D01*
X162283333Y-127897619D01*
X162235714Y-127850000D01*
X162164285Y-127826190D01*
X162116666Y-127826190D01*
X162045238Y-127850000D01*
X162021428Y-127873809D01*
X161854761Y-127826190D02*
X161545238Y-127826190D01*
X161711904Y-128016666D01*
X161640476Y-128016666D01*
X161592857Y-128040476D01*
X161569047Y-128064285D01*
X161545238Y-128111904D01*
X161545238Y-128230952D01*
X161569047Y-128278571D01*
X161592857Y-128302380D01*
X161640476Y-128326190D01*
X161783333Y-128326190D01*
X161830952Y-128302380D01*
X161854761Y-128278571D01*
X161235714Y-127826190D02*
X161188095Y-127826190D01*
X161140476Y-127850000D01*
X161116666Y-127873809D01*
X161092857Y-127921428D01*
X161069047Y-128016666D01*
X161069047Y-128135714D01*
X161092857Y-128230952D01*
X161116666Y-128278571D01*
X161140476Y-128302380D01*
X161188095Y-128326190D01*
X161235714Y-128326190D01*
X161283333Y-128302380D01*
X161307142Y-128278571D01*
X161330952Y-128230952D01*
X161354761Y-128135714D01*
X161354761Y-128016666D01*
X161330952Y-127921428D01*
X161307142Y-127873809D01*
X161283333Y-127850000D01*
X161235714Y-127826190D01*
%TO.C,D7*%
X167969047Y-110826190D02*
X167969047Y-110326190D01*
X167850000Y-110326190D01*
X167778571Y-110350000D01*
X167730952Y-110397619D01*
X167707142Y-110445238D01*
X167683333Y-110540476D01*
X167683333Y-110611904D01*
X167707142Y-110707142D01*
X167730952Y-110754761D01*
X167778571Y-110802380D01*
X167850000Y-110826190D01*
X167969047Y-110826190D01*
X167516666Y-110326190D02*
X167183333Y-110326190D01*
X167397619Y-110826190D01*
%TO.C,D8*%
X162269047Y-119726190D02*
X162269047Y-119226190D01*
X162150000Y-119226190D01*
X162078571Y-119250000D01*
X162030952Y-119297619D01*
X162007142Y-119345238D01*
X161983333Y-119440476D01*
X161983333Y-119511904D01*
X162007142Y-119607142D01*
X162030952Y-119654761D01*
X162078571Y-119702380D01*
X162150000Y-119726190D01*
X162269047Y-119726190D01*
X161697619Y-119440476D02*
X161745238Y-119416666D01*
X161769047Y-119392857D01*
X161792857Y-119345238D01*
X161792857Y-119321428D01*
X161769047Y-119273809D01*
X161745238Y-119250000D01*
X161697619Y-119226190D01*
X161602380Y-119226190D01*
X161554761Y-119250000D01*
X161530952Y-119273809D01*
X161507142Y-119321428D01*
X161507142Y-119345238D01*
X161530952Y-119392857D01*
X161554761Y-119416666D01*
X161602380Y-119440476D01*
X161697619Y-119440476D01*
X161745238Y-119464285D01*
X161769047Y-119488095D01*
X161792857Y-119535714D01*
X161792857Y-119630952D01*
X161769047Y-119678571D01*
X161745238Y-119702380D01*
X161697619Y-119726190D01*
X161602380Y-119726190D01*
X161554761Y-119702380D01*
X161530952Y-119678571D01*
X161507142Y-119630952D01*
X161507142Y-119535714D01*
X161530952Y-119488095D01*
X161554761Y-119464285D01*
X161602380Y-119440476D01*
%TO.C,R2*%
X128383333Y-111426190D02*
X128550000Y-111188095D01*
X128669047Y-111426190D02*
X128669047Y-110926190D01*
X128478571Y-110926190D01*
X128430952Y-110950000D01*
X128407142Y-110973809D01*
X128383333Y-111021428D01*
X128383333Y-111092857D01*
X128407142Y-111140476D01*
X128430952Y-111164285D01*
X128478571Y-111188095D01*
X128669047Y-111188095D01*
X128192857Y-110973809D02*
X128169047Y-110950000D01*
X128121428Y-110926190D01*
X128002380Y-110926190D01*
X127954761Y-110950000D01*
X127930952Y-110973809D01*
X127907142Y-111021428D01*
X127907142Y-111069047D01*
X127930952Y-111140476D01*
X128216666Y-111426190D01*
X127907142Y-111426190D01*
%TO.C,R5*%
X128283333Y-113026190D02*
X128450000Y-112788095D01*
X128569047Y-113026190D02*
X128569047Y-112526190D01*
X128378571Y-112526190D01*
X128330952Y-112550000D01*
X128307142Y-112573809D01*
X128283333Y-112621428D01*
X128283333Y-112692857D01*
X128307142Y-112740476D01*
X128330952Y-112764285D01*
X128378571Y-112788095D01*
X128569047Y-112788095D01*
X127830952Y-112526190D02*
X128069047Y-112526190D01*
X128092857Y-112764285D01*
X128069047Y-112740476D01*
X128021428Y-112716666D01*
X127902380Y-112716666D01*
X127854761Y-112740476D01*
X127830952Y-112764285D01*
X127807142Y-112811904D01*
X127807142Y-112930952D01*
X127830952Y-112978571D01*
X127854761Y-113002380D01*
X127902380Y-113026190D01*
X128021428Y-113026190D01*
X128069047Y-113002380D01*
X128092857Y-112978571D01*
%TO.C,R26*%
X124021428Y-113726190D02*
X124188095Y-113488095D01*
X124307142Y-113726190D02*
X124307142Y-113226190D01*
X124116666Y-113226190D01*
X124069047Y-113250000D01*
X124045238Y-113273809D01*
X124021428Y-113321428D01*
X124021428Y-113392857D01*
X124045238Y-113440476D01*
X124069047Y-113464285D01*
X124116666Y-113488095D01*
X124307142Y-113488095D01*
X123830952Y-113273809D02*
X123807142Y-113250000D01*
X123759523Y-113226190D01*
X123640476Y-113226190D01*
X123592857Y-113250000D01*
X123569047Y-113273809D01*
X123545238Y-113321428D01*
X123545238Y-113369047D01*
X123569047Y-113440476D01*
X123854761Y-113726190D01*
X123545238Y-113726190D01*
X123116666Y-113226190D02*
X123211904Y-113226190D01*
X123259523Y-113250000D01*
X123283333Y-113273809D01*
X123330952Y-113345238D01*
X123354761Y-113440476D01*
X123354761Y-113630952D01*
X123330952Y-113678571D01*
X123307142Y-113702380D01*
X123259523Y-113726190D01*
X123164285Y-113726190D01*
X123116666Y-113702380D01*
X123092857Y-113678571D01*
X123069047Y-113630952D01*
X123069047Y-113511904D01*
X123092857Y-113464285D01*
X123116666Y-113440476D01*
X123164285Y-113416666D01*
X123259523Y-113416666D01*
X123307142Y-113440476D01*
X123330952Y-113464285D01*
X123354761Y-113511904D01*
%TD*%
M02*
