M48
; DRILL file {KiCad (5.1.8)-1} date 11/17/20 00:45:20
; FORMAT={-:-/ absolute / inch / decimal}
; #@! TF.CreationDate,2020-11-17T00:45:20-08:00
; #@! TF.GenerationSoftware,Kicad,Pcbnew,(5.1.8)-1
FMAT,2
INCH
T1C0.0079
T2C0.0118
T3C0.0157
T4C0.0256
T5C0.0394
T6C0.0430
T7C0.0591
T8C0.0669
T9C0.1260
%
G90
G05
T1
X4.8189Y-5.0157
X4.8189Y-5.0945
X4.8976Y-5.0157
X4.8976Y-5.0945
T2
X4.0157Y-4.0059
X4.0256Y-4.0453
X4.0256Y-5.0098
X4.0256Y-5.0689
X4.0472Y-4.0925
X4.065Y-3.9764
X4.065Y-4.9705
X4.065Y-5.0394
X4.065Y-5.0984
X4.0748Y-4.0256
X4.1043Y-5.0098
X4.1043Y-5.0689
X4.1339Y-3.9961
X4.1437Y-5.0394
X4.1535Y-4.9705
X4.1535Y-5.0984
X4.1634Y-4.0354
X4.1831Y-3.9665
X4.1831Y-5.0098
X4.1929Y-5.0689
X4.2126Y-4.0059
X4.2126Y-4.252
X4.2126Y-4.3012
X4.2323Y-3.9272
X4.2323Y-4.9705
X4.2323Y-5.0394
X4.2323Y-5.0984
X4.2421Y-4.2717
X4.2717Y-3.9665
X4.2717Y-4.0354
X4.2717Y-4.252
X4.2717Y-4.3012
X4.2717Y-5.0098
X4.2717Y-5.0689
X4.3012Y-4.0059
X4.311Y-3.9173
X4.311Y-4.2717
X4.311Y-4.9705
X4.311Y-5.0394
X4.311Y-5.0984
X4.3406Y-4.2717
X4.3504Y-4.311
X4.3504Y-4.3504
X4.3504Y-4.3898
X4.3898Y-4.6654
X4.4193Y-4.8819
X4.4488Y-3.9272
X4.4587Y-4.8819
X4.4646Y-4.3465
X4.4783Y-3.9961
X4.4882Y-3.8878
X4.5079Y-4.2205
X4.5079Y-4.8819
X4.5276Y-4.126
X4.5669Y-3.9764
X4.5669Y-4.0256
X4.5669Y-4.0945
X4.5669Y-4.1535
X4.5669Y-4.1969
X4.5748Y-4.8583
X4.5768Y-3.9075
X4.5906Y-4.937
X4.6024Y-4.0
X4.6063Y-4.0551
X4.6063Y-4.124
X4.6063Y-4.3898
X4.6063Y-5.0259
X4.6299Y-4.937
X4.6364Y-5.0152
X4.6378Y-3.9016
X4.6496Y-4.3858
X4.6614Y-5.0709
X4.6693Y-4.937
X4.6732Y-4.8622
X4.6732Y-5.122
X4.685Y-4.2825
X4.6978Y-4.4675
X4.7305Y-5.017
X4.7362Y-4.8583
X4.7402Y-4.9291
X4.7402Y-5.063
X4.748Y-4.6614
X4.7648Y-4.61
X4.7648Y-4.71
X4.814Y-4.3268
X4.8219Y-4.3754
X4.8327Y-3.9272
X4.8327Y-4.0157
X4.8425Y-4.124
X4.8504Y-4.5984
X4.8504Y-4.6614
X4.8504Y-4.7244
X4.8583Y-4.2756
X4.8583Y-5.0551
X4.8622Y-3.8878
X4.8622Y-3.9764
X4.8622Y-4.0748
X4.8622Y-4.1535
X4.8819Y-3.9272
X4.8819Y-4.0157
X4.8819Y-4.124
X4.9114Y-4.065
X4.9114Y-4.1437
X4.9213Y-3.8976
X4.9213Y-3.9665
X4.9409Y-4.4213
X4.9528Y-4.3228
X4.9636Y-4.5118
X4.9803Y-4.4567
X4.9843Y-4.9528
X4.9931Y-4.248
X5.0236Y-4.8917
X5.0246Y-5.0709
X5.0246Y-5.1339
X5.0276Y-4.5236
X5.0315Y-4.9449
X5.063Y-4.8543
X5.0709Y-4.7165
X5.0733Y-4.4484
X5.0787Y-4.3996
X5.0827Y-4.2756
X5.0856Y-5.0709
X5.0856Y-5.1339
X5.0984Y-4.9094
X5.1459Y-4.2754
X5.1614Y-5.1929
X5.1732Y-4.8898
X5.189Y-4.5906
X5.2244Y-4.4961
X5.2441Y-4.3543
X5.2441Y-4.622
X5.252Y-4.874
X5.2559Y-4.2559
X5.2677Y-4.7087
X5.2756Y-4.622
X5.2835Y-4.7717
X5.2874Y-4.378
X5.2992Y-4.8189
X5.2992Y-4.9921
X5.3071Y-4.8583
X5.3228Y-4.7244
X5.3543Y-4.1535
X5.3545Y-4.9692
X5.3635Y-4.6963
X5.3642Y-4.0453
X5.3701Y-4.7638
X5.3701Y-4.811
X5.3701Y-4.8661
X5.374Y-4.1142
X5.3839Y-4.0059
X5.3858Y-4.9724
X5.3858Y-4.6063
X5.3858Y-5.0079
X5.3858Y-5.0709
X5.4016Y-4.5413
X5.4035Y-4.1535
X5.4035Y-4.4488
X5.4094Y-4.2913
X5.4114Y-5.1024
X5.4232Y-4.0846
X5.4252Y-4.7165
X5.4252Y-4.7874
X5.4252Y-4.8583
X5.4331Y-4.0059
X5.4331Y-4.5413
X5.4429Y-4.3996
X5.4528Y-4.439
X5.4626Y-4.0453
X5.4626Y-4.1535
X5.463Y-4.3213
X5.4646Y-5.1732
X5.4921Y-4.1043
X5.4921Y-4.1929
X5.4921Y-4.3996
X5.4951Y-5.0787
X5.5Y-4.6339
X5.502Y-4.0059
X5.5217Y-4.1535
X5.5217Y-4.4488
X5.5315Y-4.0453
X5.5315Y-4.3602
X5.5315Y-4.8327
X5.5433Y-4.8031
X5.5512Y-4.2815
X5.5512Y-4.7638
X5.561Y-4.4094
X5.561Y-4.498
X5.5709Y-4.6004
X5.5709Y-4.7165
X5.5709Y-4.9016
X5.5709Y-5.0
X5.5807Y-4.3701
X5.5906Y-4.3209
X5.6004Y-4.2717
X5.6004Y-4.439
X5.622Y-5.1417
X5.6378Y-4.6457
X5.6378Y-4.7165
X5.6398Y-4.3209
X5.6398Y-4.3701
X5.6457Y-4.8031
X5.6457Y-4.8976
X5.6457Y-5.0079
X5.6496Y-4.2717
X5.8504Y-3.8386
X5.8504Y-3.9134
X5.8504Y-3.9843
X5.8563Y-4.1831
X5.8563Y-4.252
X5.8563Y-4.7539
X5.8563Y-4.813
X5.8563Y-4.8819
X5.8563Y-5.0886
X5.8563Y-5.1575
X5.8819Y-3.874
X5.8819Y-3.9488
X5.8858Y-4.2126
X5.8858Y-4.2913
X5.8858Y-4.7835
X5.8858Y-4.8524
X5.8858Y-5.1181
X5.8858Y-5.1969
X5.9134Y-3.8386
X5.9134Y-3.9094
X5.9134Y-3.9803
X5.9154Y-4.1831
X5.9154Y-4.252
X5.9154Y-4.7539
X5.9154Y-4.813
X5.9154Y-4.8819
X5.9154Y-5.0886
X5.9154Y-5.1575
X6.1693Y-4.5512
X6.2161Y-4.5704
X6.25Y-4.4291
X6.2933Y-4.437
X6.3091Y-4.1831
X6.3091Y-4.252
X6.3091Y-5.0886
X6.3091Y-5.1575
X6.311Y-3.8386
X6.311Y-3.9094
X6.311Y-3.9764
X6.3259Y-4.9626
X6.3357Y-4.9331
X6.3386Y-4.2126
X6.3386Y-4.2913
X6.3386Y-5.1181
X6.3386Y-5.1969
X6.3425Y-3.874
X6.3425Y-3.9488
X6.3653Y-4.9429
X6.3681Y-4.1831
X6.3681Y-4.252
X6.3681Y-5.1575
X6.374Y-3.8386
X6.374Y-3.9094
X6.374Y-4.7539
X6.3819Y-5.0
X6.385Y-4.9232
X6.3937Y-4.1024
X6.3937Y-4.5945
X6.4094Y-4.5236
X6.4094Y-5.0906
X6.4114Y-5.0551
X6.437Y-4.2421
X6.4488Y-4.0748
X6.4528Y-4.126
X6.4528Y-4.6102
X6.4567Y-5.0669
X6.4646Y-4.7953
X6.4646Y-5.0394
X6.4685Y-4.9094
X6.4685Y-4.9685
X6.4685Y-5.0945
X6.4843Y-4.1024
X6.4843Y-4.2106
X6.4961Y-4.9409
X6.5118Y-4.0748
X6.5118Y-4.126
X6.5157Y-4.0
X6.5197Y-4.2638
X6.5236Y-4.9094
X6.5236Y-4.9685
X6.5354Y-4.4724
X6.5581Y-4.2608
X6.563Y-4.0984
X6.5669Y-4.1299
X6.5709Y-5.1457
X6.5787Y-4.1535
X6.5827Y-4.0512
X6.5846Y-4.2815
X6.5866Y-4.1102
X6.5945Y-4.813
X6.6024Y-5.126
X6.6102Y-4.7244
X6.6102Y-4.9409
X6.6142Y-4.8504
X6.6177Y-3.9961
X6.622Y-4.4173
X6.622Y-4.5354
X6.622Y-5.0984
X6.626Y-4.4488
X6.626Y-4.4843
X6.6299Y-4.622
X6.6299Y-4.6693
X6.6299Y-4.8071
X6.6378Y-4.8937
X6.6378Y-4.9803
X6.6417Y-5.1299
X6.6437Y-4.7146
X6.6457Y-4.5709
X6.6535Y-4.8425
X6.6575Y-4.4016
X6.6575Y-5.0197
X6.6614Y-4.9409
X6.6654Y-4.4488
X6.6693Y-3.937
X6.6693Y-3.9961
X6.6693Y-4.3701
X6.6693Y-4.5354
X6.6693Y-5.0984
X6.6732Y-4.4843
X6.6732Y-4.6752
X6.6772Y-4.622
X6.6772Y-4.8071
X6.685Y-4.063
X6.685Y-4.9843
X6.689Y-4.2835
X6.689Y-4.5709
X6.689Y-4.8937
X6.6929Y-3.9646
X6.6929Y-4.2244
X6.6929Y-5.126
X6.6969Y-4.4094
X6.7008Y-4.1575
X6.7047Y-4.8386
X6.7126Y-4.3701
X6.7126Y-4.4488
X6.7126Y-4.5374
X6.7126Y-4.6358
X6.7126Y-4.7146
X6.7126Y-4.9449
X6.7126Y-5.0984
X6.7165Y-3.937
X6.7165Y-3.9961
X6.7165Y-4.2913
X6.7165Y-5.0157
X6.7205Y-5.1457
X6.7244Y-4.063
X6.7244Y-4.8071
X6.7402Y-4.8937
X6.7421Y-4.4094
X6.7421Y-4.4882
X6.7421Y-4.5866
X6.7421Y-4.6752
X6.7441Y-3.9646
X6.7441Y-4.9803
X6.7638Y-4.063
X6.7638Y-5.1339
X6.7677Y-3.937
X6.7677Y-3.9961
X6.7677Y-4.1299
X6.7677Y-4.1929
X6.7677Y-4.252
X6.7677Y-4.8465
X6.7677Y-4.9449
X6.7681Y-4.8031
X6.7717Y-4.2913
X6.7717Y-4.3701
X6.7717Y-4.4488
X6.7717Y-4.5374
X6.7717Y-4.6358
X6.7717Y-4.7146
X6.7874Y-4.8976
X6.7874Y-5.0039
X6.8031Y-4.0945
X6.8071Y-4.1575
X6.8071Y-4.2362
X6.811Y-4.7913
X6.811Y-4.8543
X6.811Y-4.9685
X7.2047Y-4.1142
X7.2047Y-4.6555
X7.2146Y-3.7205
X7.2146Y-3.7894
X7.2146Y-3.8681
X7.2146Y-3.9469
X7.2146Y-4.0354
X7.2146Y-4.2224
X7.2146Y-4.3209
X7.2146Y-4.439
X7.2146Y-4.5472
X7.2441Y-4.2717
X7.2441Y-4.4882
X7.2441Y-4.6063
X7.2539Y-3.75
X7.2539Y-3.8287
X7.2539Y-3.8976
X7.2539Y-3.9862
X7.2539Y-4.065
X7.2539Y-4.1634
X7.2539Y-4.3701
X7.2835Y-3.9469
X7.2835Y-4.0354
X7.2835Y-4.1142
X7.2835Y-4.3209
X7.2835Y-4.439
X7.2835Y-4.5472
X7.2874Y-3.7205
X7.2874Y-3.7913
X7.2874Y-3.8661
X7.2933Y-4.2224
X7.2933Y-4.6555
X7.4173Y-3.7205
X7.4213Y-3.7913
X7.4213Y-3.8701
X7.4213Y-4.0197
X7.4213Y-4.2205
X7.4213Y-4.3228
X7.4213Y-4.4331
X7.4252Y-3.937
X7.4252Y-4.1181
X7.4252Y-4.5433
X7.4252Y-4.6496
X7.4646Y-4.4764
X7.4646Y-4.6063
X7.4685Y-3.752
X7.4685Y-3.8228
X7.4685Y-3.9016
X7.4685Y-3.9764
X7.4685Y-4.0551
X7.4685Y-4.1693
X7.4685Y-4.2638
X7.4685Y-4.3661
X7.4843Y-4.5433
X7.4921Y-4.4291
X7.5Y-4.0079
X7.5Y-4.1102
X7.5Y-4.2087
X7.5Y-4.3189
X7.5039Y-3.8622
X7.5079Y-3.7205
X7.5079Y-3.937
X7.5118Y-3.7835
X7.5492Y-4.0157
X7.5492Y-4.065
X7.5492Y-4.1142
X7.5492Y-4.1732
X7.5492Y-4.9409
X7.5492Y-5.0098
X7.5492Y-5.0787
X7.5984Y-4.0354
X7.5984Y-4.0945
X7.5984Y-4.1437
X7.5984Y-4.9114
X7.5984Y-4.9705
X7.5984Y-5.0492
X7.6476Y-4.0157
X7.6476Y-4.065
X7.6476Y-4.1142
X7.6476Y-4.1732
X7.6476Y-4.9409
X7.6476Y-5.0098
X7.6476Y-5.0787
X7.687Y-4.9114
X7.687Y-4.9705
X7.687Y-5.0492
X7.6969Y-4.0354
X7.6969Y-4.0945
X7.6969Y-4.1535
X7.7264Y-4.9409
X7.7264Y-5.0098
X7.7264Y-5.0787
X7.7461Y-4.0157
X7.7461Y-4.065
X7.7461Y-4.1142
X7.7461Y-4.1732
X7.7756Y-4.9114
X7.7756Y-4.9705
X7.7756Y-5.0492
X7.7953Y-4.0354
X7.7953Y-4.0945
X7.7953Y-4.1437
X7.8248Y-4.9409
X7.8248Y-5.0098
X7.8248Y-5.0787
X7.8445Y-4.0157
X7.8445Y-4.065
X7.8445Y-4.1142
X7.8445Y-4.1732
X7.874Y-4.9114
X7.874Y-4.9705
X7.874Y-5.0492
X7.9035Y-4.0354
X7.9035Y-4.0945
X7.9035Y-4.1437
X7.9134Y-4.9409
X7.9134Y-5.0098
X7.9134Y-5.0787
T3
X4.0354Y-4.1772
X4.0354Y-4.878
X4.0394Y-4.5236
X4.1437Y-4.6161
X4.1634Y-4.2618
X4.1831Y-4.6457
X4.1929Y-4.4587
X4.1929Y-4.9016
X4.2017Y-4.3602
X4.2126Y-4.8327
X4.2126Y-5.1772
X4.2224Y-4.5079
X4.2323Y-4.5965
X4.2618Y-4.8819
X4.2874Y-3.7598
X4.2913Y-5.252
X4.3307Y-5.1772
X4.3602Y-4.2224
X4.3701Y-3.748
X4.3701Y-4.9213
X4.3898Y-4.9803
X4.3898Y-5.0984
X4.4291Y-4.5669
X4.4449Y-3.7598
X4.4488Y-5.252
X4.5236Y-3.7623
X4.5984Y-3.7598
X4.6299Y-5.3465
X4.6352Y-4.3254
X4.6772Y-3.7598
X4.752Y-3.7598
X4.8307Y-3.7559
X4.9606Y-3.9173
X4.9606Y-4.0157
X4.9606Y-4.1142
X5.0394Y-3.878
X5.0394Y-3.9764
X5.0394Y-4.0551
X5.1181Y-3.9173
X5.1181Y-4.0157
X5.1181Y-4.1142
X5.1969Y-3.8583
X5.1969Y-3.9764
X5.1969Y-4.0551
X5.2756Y-3.9173
X5.2756Y-4.0157
X5.2756Y-4.0945
X5.3543Y-3.878
X5.3937Y-3.937
X5.4921Y-3.878
X5.5118Y-3.937
X5.7087Y-3.7402
X5.7087Y-3.8386
X5.7087Y-3.937
X5.7087Y-4.1339
X5.7087Y-4.4291
X5.7087Y-4.5276
X5.7087Y-4.8228
X5.7283Y-4.2323
X5.7283Y-4.3307
X5.748Y-5.1181
X5.748Y-5.2362
X5.748Y-5.315
X5.8071Y-3.7402
X5.8071Y-4.1339
X5.8071Y-4.2323
X5.8071Y-4.3307
X5.8071Y-4.4291
X5.8071Y-4.5276
X5.8071Y-4.626
X5.8071Y-4.7244
X5.8071Y-4.9213
X5.8071Y-5.0197
X5.8071Y-5.0197
X5.8858Y-5.315
X5.9055Y-3.7402
X5.9055Y-4.1339
X5.9055Y-4.4291
X5.9055Y-4.5276
X5.9055Y-4.626
X5.9055Y-5.0197
X5.9843Y-5.2165
X6.0039Y-3.7402
X6.0039Y-3.8386
X6.0039Y-3.937
X6.0039Y-4.1339
X6.0039Y-4.2323
X6.0039Y-4.3307
X6.0039Y-4.4291
X6.0039Y-4.5276
X6.0039Y-4.626
X6.0039Y-4.7835
X6.0039Y-4.9213
X6.0039Y-5.0197
X6.0433Y-5.1181
X6.1024Y-3.7402
X6.1024Y-3.8386
X6.1024Y-3.937
X6.1024Y-4.1339
X6.1024Y-4.2323
X6.1024Y-4.3307
X6.1024Y-4.4291
X6.1024Y-4.5276
X6.1024Y-4.626
X6.1024Y-4.7244
X6.1024Y-4.8228
X6.1417Y-4.9803
X6.2008Y-3.7402
X6.2008Y-3.8386
X6.2008Y-3.937
X6.2008Y-4.1339
X6.2008Y-4.3307
X6.2992Y-3.7402
X6.3189Y-5.2559
X6.3976Y-3.7402
X6.3976Y-4.3307
X6.4173Y-4.7047
X6.4764Y-5.2559
X6.4961Y-3.7402
X6.4961Y-3.8386
X6.4961Y-5.374
X6.5551Y-4.685
X6.5748Y-4.5472
X6.5945Y-3.7402
X6.5945Y-3.8386
X6.5945Y-5.2559
X6.6929Y-3.7402
X6.6929Y-3.8386
X6.7323Y-5.3543
X6.7913Y-3.7402
X6.7913Y-3.8386
X6.8504Y-3.7402
X6.8504Y-3.8189
X6.8504Y-3.937
X6.8882Y-4.5685
X6.9134Y-3.7559
X6.9291Y-3.8976
X6.9291Y-5.3543
X6.9843Y-3.9764
X6.9882Y-4.7441
X7.0079Y-5.1181
X7.0472Y-3.8976
X7.063Y-3.7638
X7.0882Y-4.5654
X7.126Y-3.7402
X7.126Y-3.8189
X7.126Y-5.315
X7.1417Y-3.937
X7.1575Y-5.1969
X7.2047Y-4.8031
X7.2441Y-5.0394
X7.2835Y-4.9213
X7.2835Y-5.315
X7.3031Y-5.1969
X7.3228Y-4.8031
X7.3622Y-5.0787
X7.4016Y-4.9213
X7.4409Y-4.8031
X7.4409Y-5.0
X7.4409Y-5.1969
X7.4409Y-5.315
X7.4803Y-5.1181
X7.5591Y-4.252
X7.5591Y-4.3701
X7.5591Y-4.4882
X7.5591Y-4.6063
X7.5591Y-4.8031
X7.5591Y-5.1969
X7.5591Y-5.315
X7.5984Y-3.8189
X7.6339Y-3.9055
X7.6772Y-4.252
X7.6772Y-4.3701
X7.6772Y-4.4882
X7.6772Y-4.6063
X7.6772Y-4.8031
X7.7953Y-4.252
X7.7953Y-4.3701
X7.7953Y-4.4882
X7.7953Y-4.6063
X7.7953Y-4.8031
T4
X5.3858Y-5.265
X5.3858Y-5.315
X5.4358Y-5.265
X5.4358Y-5.315
X5.4858Y-5.265
X5.4858Y-5.315
X5.5358Y-5.265
X5.5358Y-5.315
X5.5858Y-5.265
X5.5858Y-5.315
T5
X4.8661Y-5.2913
X5.4409Y-3.7953
X5.1811Y-5.2913
X4.6457Y-4.5866
X6.9882Y-5.2598
X5.126Y-3.7953
X6.9882Y-3.8189
X4.9685Y-3.7953
X5.2835Y-3.7953
X5.5984Y-3.7953
X6.1142Y-5.2913
X5.0236Y-5.2913
T6
X4.552Y-4.7039
X4.552Y-4.8039
X4.552Y-4.2799
X4.552Y-4.3799
X4.552Y-4.4799
T7
X6.9882Y-4.5472
X6.9882Y-4.9409
X6.9882Y-4.1437
T8
X6.8882Y-4.4472
X6.8882Y-4.6472
X7.0882Y-4.4472
X7.0882Y-4.6472
X6.8882Y-4.8409
X6.8882Y-5.0409
X7.0882Y-4.8409
X7.0882Y-5.0409
X6.8882Y-4.0437
X6.8882Y-4.2437
X7.0882Y-4.0437
X7.0882Y-4.2437
T9
X7.7953Y-5.2953
X7.7953Y-3.7992
X4.1339Y-3.7992
X4.1339Y-5.2953
T0
M30
